<svg width="47" height="31" viewBox="0 0 47 31" fill="none" xmlns="http://www.w3.org/2000/svg">
<path d="M43.0533 16.786H32.3291V0.645638C32.3291 0.289075 31.8909 0 31.3503 0H15.6888C15.1482 0 14.7099 0.289075 14.7099 0.645638V16.7861H3.94274C3.40214 16.7862 2.96396 17.0753 2.96414 17.4319C2.96423 17.6027 3.06692 17.7666 3.24972 17.8875L22.7776 30.8102C22.9612 30.9317 23.2105 30.9999 23.4706 31C23.7304 31.0003 23.9797 30.9325 24.1636 30.8115L43.7404 17.8888C44.1231 17.637 44.1239 17.2282 43.7421 16.9757C43.5596 16.855 43.3119 16.7868 43.0533 16.786Z" fill="#FFC107"/>
<path d="M23.4687 30.9896C23.2086 30.9896 22.9593 30.9213 22.7757 30.7998L3.24973 17.8823C2.87238 17.627 2.88028 17.2182 3.26735 16.9693C3.44822 16.853 3.6902 16.7874 3.94275 16.786H14.71V0.645638C14.71 0.289075 15.1482 0 15.6888 0H31.3503C31.8909 0 32.3292 0.289075 32.3292 0.645638V16.7861H43.0553C43.5959 16.7854 44.0349 17.074 44.0359 17.4306C44.0363 17.6025 43.9328 17.7674 43.7483 17.8888L24.1715 30.8115C23.9826 30.9303 23.7296 30.9944 23.4687 30.9896ZM6.29985 18.0773L23.4706 29.4402L40.6982 18.0773H31.3503C30.8097 18.0773 30.3714 17.7882 30.3714 17.4317V1.29122H16.6677V17.4317C16.6677 17.7882 16.2294 18.0773 15.6888 18.0773H6.29985Z" fill="black"/>
</svg>
