<svg width="33" height="40" viewBox="0 0 33 40" fill="none" xmlns="http://www.w3.org/2000/svg">
<path d="M18.5694 8.19664C18.3833 5.38835 18.0474 3.17733 17.7884 1.77723L14.8254 0.576965L14.2836 26.8661L16.911 27.3461C18.8213 19.6622 18.8673 12.6914 18.5694 8.19664Z" fill="#BB9430"/>
<path d="M14.8253 0.576965L12.45 2.43135C12.689 3.71301 13.0192 5.84517 13.1946 8.56975C13.4641 12.7571 13.413 19.2464 11.6387 26.383L14.2835 26.8661C17.6756 13.1426 15.0623 1.57062 14.8253 0.576965Z" fill="#D9B43A"/>
<path d="M28.3949 10.746C28.4488 7.93345 28.3025 5.70742 28.1636 4.29484L25.3108 2.91199L22.5278 29.0968L25.1072 29.7401C27.6681 22.1967 28.3085 15.2474 28.3949 10.746Z" fill="#BB9430"/>
<path d="M25.3109 2.91199L22.7838 4.61251C22.9129 5.90572 23.0603 8.05281 23.0028 10.7811C22.9145 14.974 22.3099 21.4429 19.9314 28.4492L22.528 29.0967C27.0817 15.6227 25.4626 3.91796 25.3109 2.91199Z" fill="#D9B43A"/>
<path d="M10.4558 9.02664C9.47854 6.34141 8.52556 4.26678 7.87716 2.9627L4.66245 2.41602L11.5949 28.0291L14.2795 27.947C13.9528 20.0956 12.0198 13.3244 10.4558 9.02664Z" fill="#BB9430"/>
<path d="M4.66235 2.41602L2.88434 4.70989C3.47983 5.9033 4.40495 7.90254 5.34804 10.5088C6.79741 14.5142 8.58872 20.8195 8.8923 28.1118L11.5948 28.0291C10.9919 14.0105 5.1742 3.3305 4.66235 2.41602Z" fill="#D9B43A"/>
<path d="M8.4498 13.511C7.34184 10.8633 6.28806 8.82481 5.57632 7.54523L2.33762 7.11475L10.5189 32.4556L13.1972 32.277C12.4861 24.4444 10.2231 17.7487 8.4498 13.511Z" fill="#BB9430"/>
<path d="M2.33763 7.11475L0.67363 9.47054C1.32707 10.6415 2.34931 12.6057 3.41927 15.1757C5.0636 19.1254 7.16236 25.3606 7.82289 32.6355L10.5189 32.4556C9.22967 18.4711 2.89377 8.00998 2.33763 7.11475Z" fill="#E2C35A"/>
<path d="M31.464 12.517C31.9099 9.73027 32.0753 7.50508 32.1344 6.08842L29.4949 4.4231L23.0791 30.1349L25.5502 31.038C29.1449 23.811 30.7502 16.9772 31.464 12.517Z" fill="#BB9430"/>
<path d="M29.4949 4.4231L26.7487 5.85239C26.6965 7.14961 26.5433 9.29639 26.1056 11.9992C25.4329 16.153 23.9302 22.5134 20.5915 29.2257L23.0791 30.1348C29.4797 17.2241 29.5052 5.43731 29.4949 4.4231Z" fill="#E2C35A"/>
<path d="M15.8723 11.8281C15.6861 9.01983 15.3503 6.80882 15.0913 5.40872L12.1281 4.20837L11.5864 30.4976L14.2138 30.9775C16.1242 23.2937 16.1701 16.3229 15.8723 11.8281Z" fill="#BB9430"/>
<path d="M12.1282 4.20837L9.75294 6.06276C9.99202 7.34442 10.3222 9.47657 10.4976 12.2012C10.7671 16.3885 10.716 22.8778 8.94165 30.0144L11.5865 30.4975C14.9785 16.774 12.3652 5.20202 12.1282 4.20837Z" fill="#E2C35A"/>
<path d="M21.0867 13.3693C20.9005 10.561 20.5647 8.34996 20.3057 6.94985L17.3425 5.74951L16.8007 32.0387L19.4281 32.5186C21.3386 24.8349 21.3845 17.8641 21.0867 13.3693Z" fill="#BB9430"/>
<path d="M17.3425 5.74951L14.9672 7.60389C15.2063 8.88556 15.5365 11.0177 15.7118 13.7423C15.9814 17.9296 15.9302 24.4189 14.1559 31.5555L16.8007 32.0387C20.1928 18.3152 17.5796 6.74324 17.3425 5.74951Z" fill="#E2C35A"/>
<path d="M25.402 16.4517C25.2159 13.6434 24.88 11.4324 24.621 10.0323L21.6578 8.83191L21.1161 35.1211L23.7435 35.601C25.6539 27.9173 25.6998 20.9465 25.402 16.4517Z" fill="#BB9430"/>
<path d="M21.6579 8.83179L19.2826 10.6862C19.5216 11.9678 19.8518 14.1 20.0272 16.8246C20.2967 21.0119 20.2456 27.5012 18.4713 34.6378L21.1161 35.121C24.5082 21.3975 21.8949 9.82559 21.6579 8.83179Z" fill="#EBD37A"/>
<path d="M18.12 21.0751C17.9338 18.2668 17.598 16.0558 17.339 14.6558L14.3758 13.4554L14.9062 28.9244C16.0031 29.1291 17.0472 29.4857 18.0919 29.8387C18.3359 26.4145 18.2747 23.4101 18.12 21.0751Z" fill="#BB9430"/>
<path d="M14.3757 13.4553L12.0004 15.3097C12.2395 16.5914 12.5696 18.7235 12.745 21.448C12.8695 23.3816 12.9251 25.8069 12.7747 28.5592L14.906 28.9242C15.0876 28.9581 15.2674 28.9975 15.4465 29.039C15.9626 20.4341 14.5473 14.1744 14.3757 13.4553Z" fill="#EBD37A"/>
<path d="M29.7616 19.714H24.8319L7.28926 37.3879L7.38162 37.8795C7.48674 38.4395 8.05051 38.8511 8.71212 38.8511H17.6327H19.8927H26.6015C27.2631 38.8511 27.8269 38.4394 27.932 37.8795L31.0919 21.0528C31.224 20.3505 30.5914 19.714 29.7616 19.714Z" fill="#8D472E"/>
<path d="M27.8261 19.714H24.2825C23.6416 19.714 23.1022 20.107 22.9738 20.6452C22.4711 22.7507 20.2977 24.3346 17.6926 24.3346C15.0875 24.3346 12.9141 22.7508 12.4114 20.6452C12.2829 20.107 11.7435 19.714 11.1027 19.714H5.55223C4.72252 19.714 4.08984 20.3505 4.22173 21.0527L7.28937 37.3878H24.941C25.6026 37.3878 26.1664 36.9761 26.2715 36.4163L29.1566 21.0527C29.2886 20.3505 28.6558 19.714 27.8261 19.714Z" fill="#AB5034"/>
<path d="M32.8078 6.10913C32.8158 5.9183 32.7131 5.73649 32.5338 5.62328L29.8944 3.95796C29.6888 3.82827 29.4155 3.80933 29.1883 3.90875C29.0091 3.9873 28.8841 4.12923 28.8398 4.29295C28.8383 4.27739 28.8368 4.26145 28.8353 4.24613C28.8165 4.05591 28.6894 3.88595 28.4956 3.79208L25.6428 2.40923C25.4208 2.30164 25.1467 2.31081 24.9349 2.43279C24.9211 2.4408 24.9089 2.45012 24.896 2.45882L24.895 2.45766L22.3679 4.15818C22.1892 4.27847 22.0931 4.46776 22.1125 4.66175C22.1978 5.5157 22.2978 6.82309 22.3305 8.46554L21.9459 8.30975C21.7153 8.21634 21.4426 8.2426 21.2419 8.37767C21.2368 8.38106 21.2326 8.38522 21.2277 8.38876C21.148 7.86302 21.0623 7.35129 20.9713 6.85951C20.9365 6.67099 20.7951 6.50935 20.5937 6.4278L19.0396 5.79832C18.8883 4.35448 18.692 2.97239 18.4541 1.68703C18.4191 1.49851 18.2779 1.33687 18.0765 1.25532L15.1131 0.054668L15.1117 0.0542059C15.0858 0.0438097 15.0593 0.0351847 15.0324 0.0277918C15.0258 0.0260206 15.0192 0.0244804 15.0127 0.0228632C14.9908 0.0174725 14.9687 0.012929 14.9463 0.00946358C14.9404 0.00853947 14.9345 0.00738433 14.9286 0.00653723C14.9017 0.0029948 14.8747 0.000838545 14.8476 6.84527e-05C14.8415 -8.55658e-05 14.8354 6.84527e-05 14.8293 6.84527e-05C14.8068 -8.55658e-06 14.7842 0.000838545 14.7617 0.00260976C14.7553 0.00314882 14.7489 0.00353387 14.7425 0.00422695C14.7146 0.0071533 14.6868 0.0112348 14.6594 0.0171645L14.6584 0.0173955C14.6316 0.0232482 14.6052 0.0309492 14.5793 0.0397282C14.574 0.0414994 14.5687 0.0433476 14.5634 0.0452729C14.539 0.0540519 14.5151 0.0639091 14.4919 0.0753065C14.4901 0.0762306 14.4881 0.0769237 14.4862 0.0779248C14.4617 0.0901692 14.438 0.104031 14.415 0.119202C14.4131 0.120511 14.4109 0.121435 14.409 0.122744C14.4052 0.125285 14.4021 0.128366 14.3983 0.130984C14.3893 0.137299 14.3801 0.143229 14.3714 0.150005L11.9961 2.00439C11.8282 2.13553 11.7486 2.33029 11.7845 2.52258C11.8519 2.88329 11.916 3.25964 11.9773 3.64569C11.9254 3.65593 11.8751 3.67141 11.8274 3.69181C11.8222 3.69405 11.8172 3.69643 11.8122 3.69874C11.7919 3.70799 11.7722 3.718 11.7531 3.72901C11.7492 3.73132 11.7451 3.7334 11.7412 3.73579C11.7181 3.74965 11.6958 3.76466 11.6747 3.78107L9.69598 5.32595C9.22915 4.24767 8.81281 3.37138 8.4971 2.73636C8.40977 2.56078 8.22685 2.43341 8.00844 2.39629L4.79372 1.84952L4.79256 1.84945C4.76408 1.84459 4.73533 1.84174 4.70657 1.8402C4.70074 1.8399 4.69498 1.83982 4.68915 1.83959C4.6648 1.83882 4.64063 1.83905 4.61646 1.84051C4.6117 1.84082 4.60694 1.84082 4.60218 1.84121C4.57441 1.84336 4.54692 1.84698 4.51979 1.85206C4.51476 1.85306 4.50982 1.8543 4.50469 1.8553C4.48187 1.86007 4.45932 1.86577 4.43713 1.87255C4.43156 1.87424 4.42599 1.87578 4.42042 1.87763C4.39401 1.88633 4.36813 1.89619 4.34306 1.90774L4.34208 1.9082C4.31782 1.91945 4.29464 1.93231 4.272 1.94609C4.26715 1.9491 4.26239 1.9521 4.25753 1.95518C4.23696 1.96842 4.21701 1.98267 4.19815 1.99815C4.19617 1.99977 4.19401 2.00123 4.19204 2.00292C4.17191 2.01979 4.15296 2.03812 4.13517 2.05745C4.13355 2.05914 4.13166 2.06053 4.13013 2.0623C4.12708 2.06569 4.12483 2.06946 4.12187 2.07285C4.11504 2.08078 4.10776 2.08833 4.10129 2.09664L2.32328 4.39021C2.19759 4.55232 2.17567 4.75793 2.26506 4.93698C2.53244 5.47288 2.80017 6.03898 3.06494 6.62702L2.44115 6.54408C2.41195 6.54023 2.3824 6.53831 2.3532 6.53777C2.34754 6.53769 2.34188 6.53777 2.33622 6.53777C2.31223 6.53777 2.28833 6.53892 2.26461 6.54116C2.25922 6.54162 2.25392 6.54193 2.24853 6.54254C2.22158 6.54562 2.19498 6.55017 2.16866 6.55602C2.16219 6.55748 2.15581 6.55933 2.14943 6.56087C2.12877 6.56603 2.10846 6.57204 2.08843 6.57889C2.08151 6.58128 2.07459 6.58351 2.06776 6.58605C2.04279 6.59537 2.01835 6.60577 1.99472 6.6177C1.99256 6.61886 1.99059 6.62017 1.98843 6.62124C1.96669 6.63249 1.94584 6.64512 1.92563 6.65852C1.92024 6.66206 1.91503 6.66576 1.90973 6.66945C1.89032 6.68316 1.87172 6.69772 1.85402 6.71335C1.85187 6.71527 1.84953 6.71697 1.84737 6.71889C1.82806 6.73653 1.81009 6.75555 1.79311 6.77549C1.79167 6.77719 1.78996 6.77857 1.78853 6.78027C1.78583 6.7835 1.78394 6.78712 1.78125 6.79043C1.7746 6.79883 1.76759 6.80684 1.76139 6.81562L0.0973905 9.17133C-0.0203053 9.3379 -0.0319849 9.54413 0.0659452 9.71971C0.724323 10.8994 1.7304 12.8373 2.78481 15.3698C3.2874 16.5772 3.82296 17.9086 4.35349 19.4899C4.23876 19.5647 4.13256 19.6505 4.03715 19.7465C3.65288 20.1331 3.48658 20.6427 3.58083 21.1443L6.74065 37.9712C6.89931 38.8156 7.73863 39.4285 8.73653 39.4285H26.6258C27.6237 39.4285 28.4632 38.8156 28.6216 37.9712L31.7816 21.1444C31.8757 20.6431 31.7094 20.1341 31.3254 19.7475C31.1399 19.561 30.9138 19.413 30.6634 19.3092C31.295 16.9889 31.7897 14.7319 32.1317 12.5954C32.5848 9.76222 32.7494 7.50431 32.8078 6.10913ZM27.5211 4.64673C27.5247 4.68716 27.5283 4.72797 27.5319 4.76902L26.3989 5.35868C26.3423 5.38817 26.292 5.42414 26.2487 5.46511C26.207 4.87452 26.1609 4.37173 26.1185 3.96689L27.5211 4.64673ZM26.773 12.0787C27.1794 9.56893 27.3435 7.53211 27.4082 6.18483L28.5835 5.57323C28.6772 5.52448 28.7523 5.45733 28.8074 5.38001C28.7415 7.48383 28.3836 12.6773 26.5427 19.1938L23.7564 19.2432C23.6687 19.2448 23.5825 19.2615 23.5021 19.2915C23.4136 14.8944 22.8866 11.5394 22.5561 9.83453L22.7266 9.90361L24.0099 10.4234C24.229 11.6576 24.5061 13.5269 24.6842 15.8568C24.7064 16.1464 24.9757 16.3769 25.3136 16.3954C25.3281 16.3963 25.3427 16.3966 25.3571 16.3966C25.677 16.3966 25.9556 16.2025 26.0179 15.9301L26.0685 15.7078C26.3427 14.4921 26.5798 13.2706 26.773 12.0787ZM24.7702 4.01009C24.8893 5.12534 25.0431 7.05981 25.0378 9.57902C24.9983 9.55237 24.9555 9.5288 24.909 9.51001L23.6867 9.01485C23.6696 7.2682 23.5745 5.8483 23.4851 4.87491L24.7702 4.01009ZM20.0066 9.33975L18.8287 10.2592C18.6608 10.3904 18.5813 10.5851 18.6171 10.7774C18.8581 12.069 19.1815 14.1722 19.3544 16.8564C19.4168 17.8269 19.4552 18.8263 19.4685 19.8272C19.4727 20.1439 19.7736 20.3982 20.1422 20.3982C20.1448 20.3982 20.1475 20.3982 20.15 20.3982C20.5221 20.3945 20.8204 20.1331 20.8161 19.8141C20.8027 18.7965 20.7636 17.78 20.7 16.7928C20.5371 14.2633 20.2423 12.2372 20.0043 10.904L21.1691 9.99471C21.185 9.98231 21.1994 9.96899 21.2137 9.95544C21.5433 11.6351 22.0935 15.0836 22.1609 19.6443C22.1641 19.8622 22.3078 20.0504 22.5171 20.1465C22.4273 20.325 22.3685 20.5081 22.313 20.683C22.1768 21.1112 22.0226 21.5965 21.4263 22.236C20.7764 22.9336 19.9087 23.4085 18.9521 23.6231C18.9148 23.1292 18.8619 22.2155 18.8327 21.7126C18.8154 21.4143 18.8011 21.1688 18.7929 21.0423C18.6038 18.1881 18.2598 15.9447 18.0047 14.5653C17.9698 14.3768 17.8285 14.2151 17.6272 14.1336L16.3795 13.6282C16.2156 11.1371 15.9246 9.14037 15.6891 7.82174L16.8973 6.87846C17.0257 7.54004 17.1918 8.49326 17.3485 9.68606C17.3901 10.003 17.7238 10.2321 18.0934 10.1954C18.4632 10.1597 18.7293 9.87381 18.6877 9.55684C18.5324 8.37498 18.3699 7.42876 18.2395 6.75162L19.6949 7.34113C19.8082 7.97976 19.9127 8.64951 20.0066 9.33975ZM13.4119 21.33C13.248 18.841 12.9574 16.8453 12.7222 15.5275L13.7423 14.7312C13.8203 14.6703 13.8787 14.5952 13.916 14.5128C14.2008 15.9696 14.691 18.9621 14.8405 22.9052C14.219 22.4955 13.7274 21.9565 13.4119 21.33ZM13.7886 5.51986L14.4804 5.8001C14.5517 6.20162 14.6196 6.61832 14.6838 7.04387L14.5134 7.17687C14.3455 7.30794 14.2659 7.50277 14.3017 7.69506C14.5265 8.90041 14.8233 10.8128 15.0024 13.2446C14.8852 12.9878 14.5666 12.8322 14.2407 12.8896C14.114 12.9117 14.0035 12.9636 13.9156 13.0342C13.7467 9.42415 13.3116 6.68963 13.0259 5.21082L13.7886 5.51986ZM16.209 23.5308C16.0931 19.2947 15.5747 16.0356 15.2638 14.4203C15.3152 14.4622 15.3736 14.4984 15.4397 14.5252L16.7279 15.047C16.9708 16.415 17.2743 18.5008 17.4471 21.1078C17.4555 21.2327 17.4695 21.4752 17.4865 21.7699C17.5131 22.2295 17.5462 22.8013 17.5769 23.2672C17.59 23.4646 17.6013 23.624 17.6113 23.7506C17.2886 23.7415 16.9628 23.7045 16.638 23.6375C16.4919 23.6076 16.349 23.5714 16.209 23.5308ZM17.1775 2.16857C17.3108 2.9201 17.4751 3.96065 17.6227 5.2243C17.5988 5.2149 17.5743 5.2072 17.5495 5.20035C17.5448 5.19904 17.54 5.19773 17.5351 5.1965C17.5301 5.19519 17.5251 5.19411 17.5201 5.19295C17.5013 5.18857 17.4823 5.18495 17.4632 5.18194C17.4575 5.1811 17.452 5.17994 17.4463 5.17917C17.4425 5.17871 17.4388 5.17801 17.4351 5.17755C17.4316 5.17717 17.4281 5.17709 17.4246 5.17671C17.4048 5.17463 17.3848 5.17316 17.3648 5.17262C17.359 5.17247 17.3531 5.17262 17.3473 5.17262C17.3404 5.17262 17.3334 5.17247 17.3264 5.17262C17.3105 5.17293 17.2946 5.17393 17.2787 5.17517C17.2725 5.17563 17.2663 5.17609 17.2601 5.17671C17.2535 5.1774 17.2468 5.17786 17.2402 5.17871C17.2381 5.17902 17.236 5.17948 17.2339 5.17979C17.2148 5.18248 17.1958 5.18564 17.1769 5.18964L17.1757 5.18995C17.1682 5.19157 17.1608 5.1938 17.1533 5.19565C17.1479 5.19704 17.1426 5.19827 17.1373 5.19973C17.1237 5.20343 17.1103 5.20759 17.0969 5.21205C17.0914 5.2139 17.086 5.21583 17.0806 5.21775C17.0716 5.22099 17.0624 5.22399 17.0535 5.22761L17.0523 5.22807C17.038 5.23392 17.024 5.24047 17.0102 5.24725C17.0079 5.24832 17.0056 5.24917 17.0035 5.25033C16.9944 5.25487 16.9857 5.25995 16.9769 5.26488C16.9712 5.26804 16.9657 5.27112 16.9601 5.27443C16.9509 5.2799 16.9416 5.28544 16.9326 5.29137C16.9306 5.29268 16.9283 5.29361 16.9264 5.29499C16.9225 5.29761 16.9194 5.30069 16.9156 5.30339C16.9066 5.3097 16.8974 5.31555 16.8887 5.32233L16.3335 5.75582C16.1382 3.928 15.8993 2.50071 15.7218 1.57876L17.1775 2.16857ZM14.3804 1.70544C14.5148 2.39683 14.6888 3.40203 14.8518 4.67276L13.4041 4.08633C13.3318 3.59132 13.254 3.11016 13.1717 2.64911L14.3804 1.70544ZM11.6824 5.33758C11.9787 6.87006 12.4791 9.98285 12.6071 14.0549L11.5467 14.8828C11.3788 15.0139 11.2992 15.2087 11.3351 15.401C11.5048 16.3107 11.7154 17.6237 11.8856 19.2585C11.8396 19.2428 11.7929 19.2282 11.7452 19.2153C11.698 19.2026 11.6301 19.1846 11.2088 19.1686C11.3307 16.8179 11.3181 14.4632 11.1704 12.1693C11.1471 11.8073 11.1205 11.4463 11.0906 11.087C11.0011 10.0091 10.8822 8.94646 10.7357 7.91554C10.6553 7.3506 10.5678 6.80206 10.4747 6.28056L11.6824 5.33758ZM7.39543 3.46964C7.90925 4.52113 8.63609 6.10929 9.40542 8.11068C9.41611 8.18638 9.42627 8.26262 9.4366 8.33863C9.4481 8.4228 9.45987 8.50666 9.47092 8.59114C9.48134 8.67092 9.49122 8.75124 9.50138 8.83133C9.51279 8.92166 9.52447 9.01176 9.53552 9.10248C9.54468 9.17826 9.55331 9.25465 9.5622 9.33074C9.57334 9.42608 9.58475 9.52126 9.59544 9.61698C9.60362 9.69022 9.61117 9.76391 9.61898 9.83738C9.62967 9.93665 9.64054 10.0357 9.6507 10.1353C9.65788 10.2057 9.66435 10.2765 9.67127 10.347C9.68133 10.4501 9.69167 10.553 9.70128 10.6565C9.70784 10.7274 9.71368 10.7987 9.71997 10.8698C9.72913 10.973 9.73847 11.0762 9.7471 11.1797C9.75348 11.2564 9.75914 11.3333 9.76516 11.41C9.77289 11.5086 9.78106 11.6072 9.78834 11.7061C9.80128 11.8814 9.8134 12.057 9.82473 12.2329C9.85797 12.7503 9.88438 13.2711 9.9037 13.794C8.44643 8.72167 6.70435 4.95785 5.81597 3.20096L7.39543 3.46964ZM3.64623 4.77064L4.55096 3.60341C5.67384 5.81311 8.30582 11.5213 9.83021 19.1419C9.4348 19.138 8.95431 19.1352 8.37078 19.1338C6.59977 13.6349 4.56759 9.69268 3.53016 7.85786L3.99905 7.92024L4.00157 7.92054L5.02327 8.05639C5.39164 8.10514 5.73547 7.88936 5.79243 7.57416C5.84948 7.25896 5.59765 6.96378 5.22983 6.91488L4.5967 6.83071C4.28404 6.11268 3.96545 5.42229 3.64623 4.77064ZM1.43786 9.50393L2.28357 8.30675C3.24086 10.0017 5.23791 13.8402 6.97199 19.1332C6.56365 19.1336 6.11982 19.1347 5.63691 19.1363C5.10027 17.5405 4.56058 16.1984 4.05404 14.9818C3.06045 12.5951 2.10711 10.7241 1.43786 9.50393ZM30.4511 20.9609L27.2911 37.7877C27.2382 38.0692 26.9585 38.2735 26.6258 38.2735H8.73644C8.40384 38.2735 8.12398 38.0692 8.07106 37.7877L7.97879 37.2961L4.91124 20.9609C4.86829 20.7322 4.98797 20.5712 5.06299 20.4957C5.19191 20.3659 5.37906 20.2916 5.57914 20.2916C6.12737 20.2898 6.6906 20.2887 7.24189 20.2887C9.20938 20.2887 11.0172 20.3013 11.3817 20.3296C11.5929 20.3997 11.7505 20.5621 11.7982 20.7611C12.2732 22.7508 14.007 24.2835 16.3229 24.7608C18.6391 25.2385 20.9979 24.5471 22.4791 22.9571C23.2493 22.1311 23.4597 21.4698 23.6131 20.9869C23.7347 20.6046 23.7841 20.4843 23.9447 20.3953L29.7914 20.2916C29.9862 20.2931 30.1711 20.3677 30.2995 20.4968C30.3745 20.5722 30.4939 20.7329 30.4511 20.9609ZM30.7964 12.4385C30.4555 14.5698 29.9594 16.8246 29.3244 19.1445L27.9358 19.1691C29.6906 12.8427 30.0706 7.76437 30.1495 5.55328L31.4471 6.37204C31.3794 7.75405 31.2105 9.85063 30.7964 12.4385Z" fill="black"/>
</svg>
