<svg width="46" height="40" viewBox="0 0 46 40" fill="none" xmlns="http://www.w3.org/2000/svg">
<g clip-path="url(#clip0)">
<path d="M39.0364 26.9364H6.9636C6.0117 28.9303 7.01804 31.2608 9.20277 32.096C13.452 33.7207 18.1122 33.8899 23 33.8899C27.8878 33.8899 32.548 33.7207 36.7972 32.096C38.9819 31.2608 39.9884 28.9303 39.0364 26.9364Z" fill="#C98A2E"/>
<path d="M40.4763 21.8426H5.52382C4.52844 21.8426 3.69568 22.5414 3.68499 23.4203C3.66576 25.0048 4.81523 26.5189 6.74579 27.1652C11.7518 28.841 17.2418 29.7663 23 29.7663C28.7581 29.7663 34.2481 28.8411 39.2541 27.1652C41.1847 26.5188 42.3342 25.0048 42.3149 23.4203C42.3044 22.5415 41.4716 21.8426 40.4763 21.8426Z" fill="#6D5B4D"/>
<path d="M40.4763 21.8426H5.52386C4.87114 21.8426 4.29021 22.1441 3.96327 22.5987C4.41177 23.6382 5.38415 24.5262 6.74591 24.982C11.7519 26.6579 17.2419 27.5832 23.0001 27.5832C28.7583 27.5832 34.2483 26.658 39.2543 24.982C40.616 24.5262 41.5883 23.6382 42.0369 22.5987C41.71 22.1441 41.1289 21.8426 40.4763 21.8426Z" fill="#625143"/>
<path d="M25.0108 33.0837C23.715 34.051 22.2851 34.051 20.9893 33.0837L14.4654 28.2138L5.93077 21.8428H23H40.0692L31.5346 28.2138L25.0108 33.0837Z" fill="#DFCE4E"/>
<path d="M22.999 32.5963C22.9993 32.5963 22.9997 32.5963 23 32.5963C23.3669 32.5963 23.7539 32.4462 24.1505 32.1501L26.1704 30.6423C26.9942 30.0274 26.7275 28.8453 25.7087 28.5503C24.9794 28.3392 24.297 28.0486 23.6893 27.6857C23.5237 27.5887 23.2713 27.5329 22.9959 27.5326C22.7288 27.533 22.4765 27.5887 22.3109 27.6856C20.9373 28.5061 19.1817 28.9578 17.3665 28.9578C16.7381 28.9578 16.1069 28.9045 15.4902 28.7993C15.3832 28.7815 15.277 28.7616 15.1713 28.7408L20.336 32.5962C21.4163 32.5961 22.6408 32.5961 22.999 32.5963Z" fill="#EFE388"/>
<path d="M43.4183 17.2377C43.4102 17.2374 43.4024 17.2372 43.3942 17.2369C43.3367 17.2353 43.279 17.2343 43.2213 17.234C42.1978 17.2294 41.1748 17.4555 40.2327 17.8527C29.3109 22.4656 16.6892 22.4656 5.76741 17.8527C4.82549 17.4554 3.80244 17.2294 2.77885 17.234C2.72108 17.2343 2.66349 17.2353 2.6059 17.2368C2.59791 17.2371 2.58991 17.2373 2.58191 17.2376C1.06283 17.277 0.156491 18.5416 0.996081 19.8129C1.00048 19.8195 1.00489 19.8261 1.00938 19.8327C1.4568 20.4938 2.09676 21.0913 2.83608 21.5623C4.31805 22.5134 6.18689 22.9458 7.81037 22.693C8.56407 22.5795 9.3626 22.6619 10.1098 22.9287C10.8564 23.1961 11.4717 23.6196 11.8685 24.1511C12.7169 25.3021 14.2799 26.1309 15.987 26.4151C17.693 26.7073 19.5079 26.4508 20.8257 25.6616C21.4371 25.2993 22.197 25.108 23.0003 25.1069C23.8035 25.108 24.5634 25.2993 25.1748 25.6616C26.4924 26.4508 28.3075 26.7073 30.0135 26.4151C31.7207 26.1308 33.2838 25.3021 34.132 24.1511C34.5287 23.6196 35.144 23.1961 35.8907 22.9287C36.6379 22.6619 37.4365 22.5795 38.1901 22.693C39.8136 22.9458 41.6823 22.5134 43.1644 21.5622C43.9037 21.0913 44.5439 20.4937 44.9911 19.8326C44.9956 19.826 45 19.8195 45.0044 19.8129C45.8437 18.5417 44.9374 17.2769 43.4183 17.2377Z" fill="#A0BC72"/>
<path d="M40.2328 17.8526C29.3109 22.4656 16.6893 22.4656 5.76744 17.8526C5.45065 17.719 5.1247 17.6049 4.79272 17.5123C4.29319 17.3731 3.8252 17.8094 4.01818 18.2467C4.01953 18.2499 4.02096 18.253 4.0224 18.2562C4.60495 19.5695 5.8244 20.6248 7.368 21.1516C12.328 22.8441 17.5875 23.7022 23.0002 23.7022C28.4129 23.7022 33.6724 22.8441 38.6324 21.1516C40.1761 20.6249 41.3954 19.5696 41.978 18.2562C41.9794 18.253 41.9807 18.2499 41.9822 18.2467C42.1751 17.8093 41.7071 17.3731 41.2076 17.5123C40.8755 17.605 40.5495 17.7191 40.2328 17.8526Z" fill="#7C9554"/>
<path d="M23.0001 22.4894C28.3687 22.4894 33.4874 21.6103 38.1547 20.0177C40.5543 19.1989 41.6597 16.9142 40.6141 14.9597C37.6375 9.39548 30.871 5.50995 23.0001 5.50995C15.1292 5.50995 8.36257 9.3954 5.38596 14.9596C4.34035 16.9142 5.44579 19.1988 7.84543 20.0176C12.5129 21.6102 17.6314 22.4894 23.0001 22.4894Z" fill="#C98A2E"/>
<path opacity="0.5" d="M31.9067 16.7835C34.3064 15.9647 35.4118 13.68 34.3662 11.7255C33.3174 9.76481 31.7975 8.01315 29.925 6.56593C27.7762 5.88421 25.4414 5.51007 23.0001 5.51007C15.129 5.51007 8.36263 9.39553 5.38611 14.9597C4.87121 15.9221 4.87885 16.9642 5.3048 17.8723C8.92856 18.7715 12.7715 19.2554 16.7522 19.2554C22.1209 19.2553 27.2394 18.3761 31.9067 16.7835Z" fill="#D9B43A"/>
<path d="M19.0431 13.7415C19.4152 13.7415 19.7169 13.4699 19.7169 13.135C19.7169 12.8001 19.4152 12.5286 19.0431 12.5286C18.6709 12.5286 18.3692 12.8001 18.3692 13.135C18.3692 13.4699 18.6709 13.7415 19.0431 13.7415Z" fill="black"/>
<path d="M22.6367 9.69873C23.0088 9.69873 23.3105 9.42722 23.3105 9.09229C23.3105 8.75735 23.0088 8.48584 22.6367 8.48584C22.2645 8.48584 21.9629 8.75735 21.9629 9.09229C21.9629 9.42722 22.2645 9.69873 22.6367 9.69873Z" fill="black"/>
<path d="M21.6485 7.5965C22.0206 7.5965 22.3223 7.32498 22.3223 6.99005C22.3223 6.65512 22.0206 6.38361 21.6485 6.38361C21.2763 6.38361 20.9747 6.65512 20.9747 6.99005C20.9747 7.32498 21.2763 7.5965 21.6485 7.5965Z" fill="black"/>
<path d="M24.4334 13.7415C24.8055 13.7415 25.1072 13.4699 25.1072 13.135C25.1072 12.8001 24.8055 12.5286 24.4334 12.5286C24.0613 12.5286 23.7596 12.8001 23.7596 13.135C23.7596 13.4699 24.0613 13.7415 24.4334 13.7415Z" fill="black"/>
<path d="M21.7383 16.9756C22.1104 16.9756 22.4121 16.7041 22.4121 16.3691C22.4121 16.0342 22.1104 15.7627 21.7383 15.7627C21.3661 15.7627 21.0644 16.0342 21.0644 16.3691C21.0644 16.7041 21.3661 16.9756 21.7383 16.9756Z" fill="black"/>
<path d="M29.8237 16.1671C30.1959 16.1671 30.4976 15.8956 30.4976 15.5607C30.4976 15.2257 30.1959 14.9542 29.8237 14.9542C29.4516 14.9542 29.1499 15.2257 29.1499 15.5607C29.1499 15.8956 29.4516 16.1671 29.8237 16.1671Z" fill="black"/>
<path d="M26.8591 8.89014C27.2312 8.89014 27.5329 8.61862 27.5329 8.28369C27.5329 7.94876 27.2312 7.67725 26.8591 7.67725C26.4869 7.67725 26.1852 7.94876 26.1852 8.28369C26.1852 8.61862 26.4869 8.89014 26.8591 8.89014Z" fill="black"/>
<path d="M28.0269 11.3158C28.3991 11.3158 28.7008 11.0443 28.7008 10.7094C28.7008 10.3744 28.3991 10.1029 28.0269 10.1029C27.6548 10.1029 27.3531 10.3744 27.3531 10.7094C27.3531 11.0443 27.6548 11.3158 28.0269 11.3158Z" fill="black"/>
<path d="M31.7104 9.69873C32.0825 9.69873 32.3842 9.42722 32.3842 9.09229C32.3842 8.75735 32.0825 8.48584 31.7104 8.48584C31.3382 8.48584 31.0365 8.75735 31.0365 9.09229C31.0365 9.42722 31.3382 9.69873 31.7104 9.69873Z" fill="black"/>
<path d="M31.7104 12.9329C32.0825 12.9329 32.3842 12.6613 32.3842 12.3264C32.3842 11.9915 32.0825 11.72 31.7104 11.72C31.3382 11.72 31.0365 11.9915 31.0365 12.3264C31.0365 12.6613 31.3382 12.9329 31.7104 12.9329Z" fill="black"/>
<path d="M9.25078 14.55C9.62292 14.55 9.92461 14.2785 9.92461 13.9435C9.92461 13.6086 9.62292 13.3371 9.25078 13.3371C8.87863 13.3371 8.57695 13.6086 8.57695 13.9435C8.57695 14.2785 8.87863 14.55 9.25078 14.55Z" fill="black"/>
<path d="M11.0475 11.3158C11.4197 11.3158 11.7213 11.0443 11.7213 10.7094C11.7213 10.3744 11.4197 10.1029 11.0475 10.1029C10.6754 10.1029 10.3737 10.3744 10.3737 10.7094C10.3737 11.0443 10.6754 11.3158 11.0475 11.3158Z" fill="black"/>
<path d="M18.2346 8.08167C18.6068 8.08167 18.9085 7.81015 18.9085 7.47522C18.9085 7.14029 18.6068 6.86877 18.2346 6.86877C17.8625 6.86877 17.5608 7.14029 17.5608 7.47522C17.5608 7.81015 17.8625 8.08167 18.2346 8.08167Z" fill="black"/>
<path d="M16.4379 15.3585C16.81 15.3585 17.1117 15.087 17.1117 14.7521C17.1117 14.4171 16.81 14.1456 16.4379 14.1456C16.0657 14.1456 15.764 14.4171 15.764 14.7521C15.764 15.087 16.0657 15.3585 16.4379 15.3585Z" fill="black"/>
<path d="M33.5071 15.3585C33.8793 15.3585 34.181 15.087 34.181 14.7521C34.181 14.4171 33.8793 14.1456 33.5071 14.1456C33.135 14.1456 32.8333 14.4171 32.8333 14.7521C32.8333 15.087 33.135 15.3585 33.5071 15.3585Z" fill="black"/>
<path d="M19.9415 11.3158C20.3136 11.3158 20.6153 11.0443 20.6153 10.7094C20.6153 10.3744 20.3136 10.1029 19.9415 10.1029C19.5694 10.1029 19.2677 10.3744 19.2677 10.7094C19.2677 11.0443 19.5694 11.3158 19.9415 11.3158Z" fill="black"/>
<path d="M15.4496 9.61792C15.8218 9.61792 16.1234 9.34641 16.1234 9.01147C16.1234 8.67654 15.8218 8.40503 15.4496 8.40503C15.0775 8.40503 14.7758 8.67654 14.7758 9.01147C14.7758 9.34641 15.0775 9.61792 15.4496 9.61792Z" fill="black"/>
<path d="M13.6529 12.9329C14.025 12.9329 14.3267 12.6613 14.3267 12.3264C14.3267 11.9915 14.025 11.72 13.6529 11.72C13.2807 11.72 12.9791 11.9915 12.9791 12.3264C12.9791 12.6613 13.2807 12.9329 13.6529 12.9329Z" fill="black"/>
<path d="M45.7074 17.8048C45.2739 17.0957 44.4254 16.657 43.4376 16.6315C43.0684 16.6227 42.7554 16.8855 42.7447 17.2202C42.734 17.555 43.0269 17.8343 43.3988 17.8439C43.9042 17.857 44.3258 18.0609 44.5266 18.3895C44.7231 18.711 44.6869 19.1065 44.426 19.5016L44.4152 19.5175C44.0226 20.0979 43.4554 20.6339 42.773 21.0686C42.3734 21.325 41.9362 21.5433 41.4729 21.7172C40.6167 22.0388 39.7198 22.1887 38.8779 22.1515C38.678 22.1426 38.4852 22.1238 38.3011 22.0951C37.426 21.9633 36.5063 22.0567 35.6413 22.3655C34.7589 22.6816 34.0435 23.1822 33.5702 23.8162C32.8388 24.8085 31.4633 25.5573 29.8871 25.8197C28.3131 26.0894 26.6908 25.8417 25.5451 25.1554C24.8245 24.7284 23.9449 24.502 22.9989 24.5008C22.0549 24.5022 21.1752 24.7285 20.4521 25.1571C19.3092 25.8416 17.6874 26.0895 16.1093 25.8191C14.5367 25.5572 13.1612 24.8085 12.4275 23.8132C11.9565 23.1821 11.2411 22.6815 10.3579 22.3652C9.4935 22.0567 8.57386 21.9633 7.6951 22.0957C7.51478 22.1238 7.32198 22.1426 7.12199 22.1515C6.28087 22.1889 5.38324 22.0388 4.52694 21.7172C4.06379 21.5434 3.62652 21.3251 3.22501 21.0674C2.54499 20.6343 1.9778 20.0982 1.58456 19.5173L1.57503 19.5033C1.31296 19.1064 1.27684 18.7109 1.47333 18.3895C1.67413 18.061 2.09577 17.857 2.60383 17.8438L2.6262 17.8431C2.67831 17.8416 2.73042 17.8408 2.7819 17.8405C3.4127 17.8376 4.05247 17.9316 4.69099 18.1199C5.21918 19.2375 6.26461 20.1269 7.60642 20.5847C12.4899 22.251 17.6689 23.0959 22.9999 23.0959C28.3307 23.0959 33.5098 22.251 38.3935 20.5847C39.8468 20.0887 40.9538 19.0873 41.4308 17.8372C41.8257 16.8029 41.7511 15.6875 41.2211 14.6966C38.0388 8.7476 30.8865 4.90363 23.0001 4.90363C19.1275 4.90363 15.3732 5.82098 12.1434 7.55654C8.98732 9.25241 6.48751 11.6359 4.91426 14.4493C4.80042 14.6528 4.71822 14.875 4.66988 15.1097C4.60196 15.439 4.84364 15.7555 5.20957 15.8165C5.57479 15.8773 5.92706 15.66 5.99481 15.3308C6.01996 15.2088 6.06138 15.0956 6.11789 14.9945C9.13386 9.60123 15.7605 6.11644 23.0001 6.11644C28.7482 6.11644 34.0728 8.28961 37.5425 11.8693C37.4241 11.7766 37.2698 11.72 37.1005 11.72C36.7284 11.72 36.4267 11.9915 36.4267 12.3264C36.4267 12.6614 36.7284 12.9329 37.1005 12.9329C37.4726 12.9329 37.7743 12.6614 37.7743 12.3264C37.7743 12.2073 37.7356 12.0965 37.6697 12.0028C38.5947 12.9792 39.3836 14.0573 40.007 15.2227C40.3822 15.924 40.4353 16.7127 40.1564 17.4432C39.8099 18.3513 38.9933 19.083 37.9158 19.4506C33.1856 21.0647 28.1672 21.883 23.0002 21.883C17.8331 21.883 12.8148 21.0647 8.08457 19.4506C7.00708 19.0829 6.19031 18.3513 5.84396 17.4431C5.84288 17.4402 5.84135 17.4376 5.84018 17.4347C5.83381 17.419 5.82707 17.4033 5.81934 17.388C5.81449 17.3784 5.80874 17.3693 5.80344 17.36C5.79877 17.3518 5.79436 17.3435 5.78915 17.3355C5.78277 17.3256 5.77559 17.3163 5.76867 17.3067C5.76355 17.2998 5.75879 17.2926 5.75331 17.2858C5.7463 17.277 5.73857 17.2687 5.73102 17.2603C5.72474 17.2533 5.71872 17.2461 5.71198 17.2392C5.70497 17.232 5.69742 17.2254 5.68997 17.2185C5.68197 17.2111 5.67406 17.2035 5.66562 17.1964C5.65888 17.1908 5.65178 17.1857 5.64486 17.1803C5.63507 17.1728 5.62546 17.1651 5.61513 17.1581C5.6083 17.1534 5.60111 17.1493 5.5941 17.1448C5.58323 17.138 5.57245 17.1309 5.56104 17.1246C5.55251 17.1199 5.54361 17.1158 5.53481 17.1115C5.52447 17.1063 5.5145 17.1009 5.50381 17.0962C5.48422 17.0875 5.46428 17.0797 5.44388 17.0727C5.4437 17.0726 5.44352 17.0726 5.44326 17.0725C5.44263 17.0722 5.442 17.0721 5.44128 17.0718C4.56845 16.777 3.68331 16.6275 2.80886 16.6275C2.79745 16.6275 2.78604 16.6275 2.77463 16.6276C2.71147 16.6279 2.64831 16.629 2.58389 16.6307L2.56241 16.6314C1.57467 16.6569 0.726188 17.0957 0.292692 17.8047C-0.136941 18.5078 -0.0917498 19.3527 0.416766 20.1227L0.433836 20.1481C0.921957 20.8691 1.61789 21.5292 2.44472 22.0559C2.70024 22.2199 2.9686 22.3704 3.24693 22.5071C3.09672 22.7872 3.01514 23.0943 3.01118 23.4137C2.98971 25.1763 4.16487 26.759 6.04359 27.556C5.54738 29.6484 6.73521 31.8116 8.93926 32.6543C13.3854 34.3542 18.3233 34.4965 23 34.4965C27.6766 34.4965 32.6145 34.3542 37.0607 32.6543C38.5028 32.103 39.5781 30.9375 39.9374 29.5369C40.0212 29.2105 39.795 28.8849 39.4324 28.8096C39.0698 28.7341 38.708 28.9378 38.6244 29.2641C38.3618 30.2879 37.5804 31.1381 36.5338 31.5381C33.1914 32.816 29.4906 33.1646 25.8378 33.2543L30.3811 29.8629C33.4647 29.4328 36.4921 28.7292 39.3818 27.7691L39.4892 27.7338C41.6383 27.0143 43.012 25.3186 42.9888 23.4139C42.9848 23.0944 42.9033 22.7875 42.7531 22.5074C43.0312 22.3708 43.2991 22.2207 43.5534 22.0574C44.3827 21.529 45.0788 20.8688 45.5616 20.1548L45.5832 20.123C46.0918 19.3528 46.1371 18.508 45.7074 17.8048ZM7.32252 27.9963C9.99851 28.8404 12.7847 29.4674 15.619 29.8627L20.1624 33.2541C16.5096 33.1645 12.8087 32.8158 9.46628 31.538C7.926 30.9491 7.06871 29.4692 7.32252 27.9963ZM39.0198 26.5967L38.9155 26.631C36.8378 27.3212 34.6866 27.8747 32.494 28.2854L33.6759 27.4032C33.9623 27.1894 34.0019 26.8071 33.7643 26.5494C33.5266 26.2916 33.1019 26.256 32.8155 26.4697L29.6638 28.8225C29.6636 28.8226 29.6634 28.8227 29.6632 28.8228L24.5806 32.6169C23.5319 33.3998 22.4681 33.3998 21.4194 32.6169L16.3367 28.8229C16.3365 28.8227 16.3364 28.8226 16.3362 28.8226L12.8707 26.2356C12.5843 26.0219 12.1594 26.0574 11.922 26.3153C11.6843 26.5731 11.724 26.9554 12.0104 27.1692L13.5059 28.2856C11.3133 27.8748 9.16198 27.3214 7.08425 26.6311L6.98057 26.597C5.37093 26.0581 4.34177 24.8138 4.35866 23.4271C4.36046 23.2758 4.40421 23.1303 4.48283 22.9983C5.3792 23.2762 6.30549 23.4022 7.18865 23.3626C7.44318 23.3513 7.69088 23.327 7.92124 23.2911C8.55401 23.1957 9.22496 23.2654 9.86042 23.4922C10.4892 23.7174 10.99 24.0622 11.3067 24.4864C12.236 25.7471 13.9397 26.691 15.8607 27.0109C17.7733 27.3386 19.7687 27.0229 21.1959 26.1681C21.6963 25.8716 22.3204 25.7143 22.9988 25.7134C23.6793 25.7143 24.3033 25.8716 24.8012 26.1665C25.8594 26.8004 27.2278 27.1381 28.6416 27.138C29.1378 27.138 29.6396 27.0965 30.1356 27.0115C32.0603 26.691 33.7641 25.7471 34.6909 24.4894C35.0098 24.0622 35.5106 23.7175 36.1386 23.4925C36.7747 23.2654 37.4454 23.1957 38.0749 23.2906C38.309 23.327 38.5568 23.3513 38.8111 23.3626C39.6955 23.4022 40.621 23.2762 41.517 22.9983C41.5956 23.1304 41.6393 23.2758 41.6411 23.4271C41.6582 24.8137 40.629 26.0581 39.0198 26.5967Z" fill="black"/>
</g>
<defs>
<clipPath id="clip0">
<rect width="46" height="40" fill="white"/>
</clipPath>
</defs>
</svg>
