<svg width="42" height="41" viewBox="0 0 42 41" fill="none" xmlns="http://www.w3.org/2000/svg">
<g clip-path="url(#clip0)">
<path d="M31.7839 3.13497L31.7694 3.12093C28.284 -0.247465 22.6332 -0.247545 19.148 3.12093L3.22924 18.5059C-0.25602 21.8743 -0.256102 27.3357 3.22924 30.7041L3.24376 30.7181L18.2734 18.6321L31.7839 3.13497Z" fill="#FED2A4"/>
<path d="M11.1207 24.3838L24.703 11.257L31.7838 3.13495C30.7397 2.20403 29.4488 1.60729 28.094 1.38348C26.8929 1.18512 25.6384 1.28343 24.4523 1.7117C23.7918 1.95018 23.0916 2.31931 22.2591 3.12377C19.8809 5.4222 21.1801 6.67776 18.8018 8.97619C16.4236 11.2748 15.1244 10.0192 12.7461 12.3177C10.3678 14.6163 11.6668 15.8719 9.28848 18.1705C6.90999 20.4693 5.61086 19.2137 3.23244 21.5124C2.39991 22.3171 2.01797 22.9939 1.77114 23.6323C1.32801 24.7787 1.22629 25.9911 1.43145 27.1519C1.66294 28.4614 2.28039 29.7089 3.2436 30.7181L11.1207 24.3838Z" fill="#FFBD86"/>
<path d="M10.2161 37.4567L10.2306 37.4707C13.4465 39.4638 18.5464 40.0464 22.0317 36.6779L37.9504 21.2929C42.3401 12.5491 40.6645 12.9608 38.7707 9.88751L38.7562 9.87347L23.7266 21.9596L10.2161 37.4567Z" fill="#FED2A4"/>
<path d="M37.3193 20.6829L21.4005 36.0679C18.4047 38.9633 13.8087 39.3699 10.3635 37.2876L10.2161 37.4567L10.2306 37.4707C13.7159 40.8392 19.3667 40.8392 22.852 37.4707L38.7707 22.0857C42.256 18.7173 42.2561 13.2559 38.7707 9.88751L38.7562 9.87347L38.5805 10.0148C40.736 13.3446 40.3155 17.7872 37.3193 20.6829Z" fill="#FFBD86"/>
<path d="M6.16585 31.1026C5.08632 30.0593 3.13045 29.9544 2.88305 28.5547C2.67789 27.3939 2.7796 26.1814 3.22274 25.0351C3.46957 24.3967 3.85151 23.7198 4.68404 22.9152C7.06254 20.6165 8.36159 21.872 10.7401 19.5733C13.1184 17.2747 11.8194 16.0192 14.1977 13.7205C16.576 11.4219 17.8751 12.6775 20.2534 10.379C22.6316 8.08053 21.3324 6.82497 23.7107 4.52654C24.5431 3.72208 25.2433 3.35295 25.9038 3.11447C27.0899 2.6862 28.3444 2.58789 29.5455 2.78625C30.9937 3.02544 31.1021 4.91565 32.1817 5.95898L32.6347 6.39685L6.61883 31.5403L6.16585 31.1026Z" fill="#ADE194"/>
<path d="M29.5452 2.78729L2.88409 28.5545C3.1315 29.9542 3.82409 31.279 4.90362 32.3224L5.35652 32.7601L33.8968 5.17697L33.4438 4.7391C32.3642 3.69585 30.9935 3.02648 29.5452 2.78729Z" fill="#97DA7B"/>
<path d="M8.5561 35.8524C10.531 37.7611 12.8489 37.8118 15.4652 36.8671C16.1258 36.6285 16.8261 36.2594 17.6586 35.4548C20.0371 33.156 18.738 31.9006 21.1165 29.6018C23.4948 27.3032 24.7939 28.5587 27.1723 26.2601C29.5506 23.9615 28.2515 22.706 30.6298 20.4075C33.008 18.109 34.3071 19.3646 36.6853 17.0661C37.5176 16.2616 37.8996 15.5849 38.1463 14.9465C39.1237 12.418 39.0711 10.178 37.0963 8.26935L36.6433 7.83148L8.10312 35.4147L8.5561 35.8524Z" fill="#ADE194"/>
<path d="M31.2609 21.0174C33.639 18.719 34.9382 19.9745 37.3163 17.676C38.1488 16.8716 38.5306 16.1948 38.7774 15.5565C39.7548 13.028 39.0711 10.1779 37.0963 8.26929L36.6433 7.83142L36.5726 7.89976C37.9344 9.7424 38.314 12.1389 37.4783 14.3009C37.2315 14.9393 36.8496 15.616 36.0172 16.4205C33.639 18.7189 32.3399 17.4633 29.9617 19.7618C27.5834 22.0603 28.8825 23.3159 26.5043 25.6145C24.126 27.9131 22.8268 26.6576 20.4484 28.9562C18.0699 31.2549 19.369 32.5105 16.9905 34.8091C16.158 35.6138 15.4577 35.9829 14.7971 36.2214C12.5601 37.0292 10.0804 36.6624 8.17383 35.3463L8.10312 35.4146L8.55601 35.8523C10.5309 37.761 13.4799 38.4216 16.0962 37.4769C16.7568 37.2384 17.4571 36.8692 18.2896 36.0646C20.6681 33.7659 19.369 32.5103 21.7475 30.2116C24.1258 27.9131 25.4249 29.1686 27.8033 26.87C30.1817 24.5715 28.8825 23.316 31.2609 21.0174Z" fill="#97DA7B"/>
<path d="M3.2212 37.4785C2.99914 37.2639 2.73779 37.0968 2.56692 36.855C1.25647 35.0001 1.45285 32.449 3.15623 30.8027L31.8714 3.05043C33.556 1.42224 36.1567 1.21872 38.0703 2.43989C38.3437 2.6143 38.5381 2.88061 38.7787 3.11322C40.7041 4.97401 40.1195 7.30043 38.1942 9.16122L9.47904 36.9136C7.55368 38.7744 5.14656 39.3393 3.2212 37.4785Z" fill="#F07281"/>
<path d="M38.8438 3.05038C38.6217 2.83576 38.3831 2.647 38.1329 2.48193C39.4433 4.33686 39.248 6.88725 37.5447 8.53343L8.82953 36.2857C7.12623 37.9319 4.48729 38.1206 2.56808 36.8542C2.73896 37.096 2.93419 37.3266 3.15625 37.5412C5.0816 39.402 8.2033 39.402 10.1287 37.5412L38.8438 9.78892C40.7691 7.9282 40.7691 4.91117 38.8438 3.05038Z" fill="#EB5569"/>
<path d="M8.55276 33.4951C8.40494 33.3523 8.23768 33.2443 8.17705 33.0646C8.03202 32.6348 8.13628 32.1436 8.48968 31.8021C9.25765 31.0598 9.39415 30.5408 9.58315 29.8223C9.80562 28.9766 10.0825 27.924 11.3493 26.6996C12.6161 25.4753 13.7051 25.2077 14.5803 24.9927C15.3237 24.8101 15.8608 24.6781 16.6287 23.9359C17.3966 23.1938 17.5332 22.6746 17.7221 21.9563C17.9446 21.1105 18.2214 20.0579 19.4882 18.8336C20.7549 17.6094 21.844 17.3418 22.7191 17.1269C23.4624 16.9443 23.9995 16.8124 24.7673 16.0702C25.5351 15.3282 25.6716 14.8091 25.8605 14.0908C26.0828 13.2451 26.3597 12.1925 27.6264 10.9683C28.8931 9.74404 29.9822 9.47646 30.8573 9.26153C31.6007 9.07895 32.1376 8.94703 32.9055 8.20488C33.2589 7.86334 33.7672 7.76265 34.2119 7.90274C34.3979 7.96133 34.5096 8.12306 34.6573 8.26585C35.1584 8.75017 35.1584 9.41352 34.6573 9.89792C33.3906 11.1222 32.3015 11.3897 31.4264 11.6047C30.6831 11.7873 30.146 11.9192 29.3782 12.6613C28.6104 13.4034 28.4739 13.9224 28.285 14.6408C28.0626 15.4866 27.7858 16.539 26.5191 17.7633C25.2524 18.9875 24.1002 19.1941 23.2251 19.4091C22.4817 19.5917 21.9447 19.7236 21.1769 20.4657C20.409 21.2079 20.2725 21.7269 20.0836 22.4454C19.8611 23.2911 19.5843 24.3437 18.3175 25.568C17.0507 26.7923 15.9617 27.0599 15.0865 27.2748C14.3432 27.4575 13.8061 27.5894 13.0381 28.3316C12.2702 29.0739 12.1337 29.5929 11.9447 30.3114C11.7223 31.1571 11.4453 32.2097 10.1785 33.4341C9.67716 33.9185 9.05389 33.9794 8.55276 33.4951Z" fill="#FFE177"/>
<path d="M26.5821 17.8243C27.8487 16.6002 28.1256 15.5476 28.348 14.7019C28.5369 13.9835 28.6734 13.4645 29.4412 12.7224C30.209 11.9803 30.7461 11.8483 31.4894 11.6657C32.3645 11.4508 33.4536 11.1832 34.7203 9.95898C35.2214 9.47458 35.2214 8.6893 34.7203 8.2049C34.5725 8.06203 34.3974 7.96254 34.2114 7.90387C34.3563 8.33365 34.2533 8.82448 33.8999 9.16602C32.6332 10.3903 31.5441 10.6578 30.669 10.8728C29.9257 11.0554 29.3886 11.1873 28.6208 11.9294C27.853 12.6715 27.7165 13.1905 27.5276 13.9089C27.3052 14.7547 27.0284 15.8071 25.7617 17.0314C24.495 18.2556 23.4059 18.5232 22.5308 18.7381C21.7874 18.9207 21.2504 19.0526 20.4826 19.7948C19.7147 20.5369 19.5782 21.056 19.3892 21.7744C19.1668 22.6202 18.89 23.6727 17.6232 24.8971C16.3564 26.1213 15.2673 26.389 14.3922 26.6039C13.6489 26.7866 13.1117 26.9185 12.3438 27.6607C11.5759 28.4029 11.4394 28.922 11.2504 29.6405C11.0279 30.4863 10.751 31.5389 9.48422 32.7632C9.13083 33.1047 8.62298 33.2043 8.17828 33.0642C8.2389 33.244 8.34194 33.4133 8.48976 33.5561C8.99089 34.0404 9.80349 34.0404 10.3046 33.5561C11.5714 32.3318 11.8483 31.2792 12.0707 30.4334C12.2597 29.7149 12.3962 29.1958 13.1642 28.4536C13.9322 27.7114 14.4693 27.5794 15.2126 27.3968C16.0877 27.1818 17.1769 26.9142 18.4436 25.6899C19.7104 24.4656 19.9873 23.4131 20.2096 22.5673C20.3986 21.8489 20.5351 21.3298 21.303 20.5877C22.0709 19.8455 22.6079 19.7136 23.3512 19.531C24.2263 19.3162 25.3154 19.0486 26.5821 17.8243Z" fill="#FFD15B"/>
<path d="M39.5989 9.87108C40.4424 8.90616 40.903 7.69744 40.903 6.41967C40.903 4.9881 40.3262 3.64223 39.2788 2.6299C38.2314 1.61756 36.8388 1.06014 35.3575 1.06014C34.0355 1.06014 32.7849 1.5053 31.7865 2.32047C30.04 0.820397 27.8147 0 25.4586 0C22.9104 0 20.5148 0.959059 18.7129 2.70054L5.98697 14.9997C5.7467 15.2319 5.7467 15.6084 5.98697 15.8405C6.10714 15.9566 6.26464 16.0147 6.42206 16.0147C6.57948 16.0147 6.73698 15.9567 6.85716 15.8405L19.5831 3.54139C21.1524 2.02459 23.2391 1.18921 25.4586 1.18921C26.8748 1.18921 28.2365 1.5298 29.4445 2.16983C28.1814 1.99494 26.8902 2.12361 25.6885 2.55744C24.7938 2.88051 24.0496 3.35817 23.2756 4.10611C21.9754 5.3627 21.6654 6.38408 21.3917 7.28534C21.126 8.16068 20.8964 8.91662 19.8183 9.95853C18.7403 11.0004 17.958 11.2223 17.0522 11.4792C16.1198 11.7437 15.0628 12.0435 13.7625 13.3001C12.4623 14.5567 12.1521 15.5783 11.8785 16.4795C11.6126 17.3549 11.383 18.111 10.3048 19.1529C9.22671 20.1949 8.44446 20.4168 7.53859 20.6738C6.60606 20.9383 5.54909 21.2382 4.24881 22.4949C3.47484 23.243 2.98061 23.9622 2.64633 24.8271C2.19425 25.9965 2.06227 27.2382 2.24339 28.4545C1.5823 27.2875 1.23047 25.9725 1.23047 24.605C1.23047 22.4599 2.09483 20.4432 3.66434 18.9264L4.85707 17.7736C5.09734 17.5414 5.09734 17.1649 4.85699 16.9327C4.6168 16.7004 4.22723 16.7005 3.98696 16.9327L2.79423 18.0854C0.992332 19.8269 0 22.1422 0 24.605C0 26.8822 0.848942 29.033 2.4013 30.721C0.566262 32.8245 0.672 35.9813 2.72122 37.9617C3.7686 38.9741 5.16116 39.5315 6.64248 39.5315C7.96458 39.5315 9.21515 39.0863 10.2135 38.2712C11.96 39.7712 14.1853 40.5917 16.5414 40.5917C19.0896 40.5917 21.4853 39.6327 23.2871 37.8912L39.2058 22.5062C41.0077 20.7648 42 18.4495 42 15.9867C42 13.7096 41.1511 11.559 39.5989 9.87108ZM3.79911 25.2433C3.99197 24.7445 4.29959 24.1279 5.11916 23.3357C6.19738 22.2937 6.97963 22.0718 7.88542 21.8149C8.81795 21.5504 9.87492 21.2506 11.1752 19.9938C12.4754 18.7371 12.7856 17.7157 13.0593 16.8144C13.3252 15.939 13.5548 15.183 14.6329 14.141C15.711 13.0991 16.4932 12.8772 17.3989 12.6203C18.3314 12.3558 19.3884 12.0561 20.6887 10.7995C21.9889 9.54286 22.299 8.52149 22.5726 7.62022C22.8383 6.74488 23.0679 5.98894 24.146 4.94704C24.9655 4.15502 25.6034 3.8578 26.1194 3.67149C27.4955 3.17456 29.0133 3.15537 30.4214 3.61108L3.73595 29.4014C3.26238 28.0404 3.28068 26.5842 3.79911 25.2433ZM6.64248 38.3423C5.48986 38.3423 4.40631 37.9085 3.59141 37.1208H3.59133C1.90887 35.4948 1.90895 32.8491 3.59133 31.223L32.3064 3.47083C33.1214 2.68318 34.205 2.24935 35.3575 2.24935C36.5101 2.24935 37.5937 2.68318 38.4086 3.47083C39.2237 4.25848 39.6724 5.30578 39.6724 6.41967C39.6724 7.53365 39.2236 8.58087 38.4086 9.36852L9.69355 37.1209C8.87857 37.9085 7.79502 38.3423 6.64248 38.3423ZM38.3357 21.6654L22.4169 37.0503C20.8476 38.5671 18.7609 39.4025 16.5413 39.4025C15.1293 39.4025 13.7712 39.0639 12.5656 38.4274C12.9237 38.4769 13.2838 38.5022 13.6439 38.5022C14.5451 38.5022 15.4461 38.3466 16.3116 38.0341C17.2065 37.711 17.9508 37.2332 18.7248 36.4852C20.0251 35.2285 20.3353 34.207 20.609 33.3057C20.8748 32.4303 21.1044 31.6742 22.1826 30.6322C23.2608 29.5903 24.043 29.3684 24.9488 29.1115C25.8813 28.847 26.9382 28.5472 28.2386 27.2906C29.5388 26.034 29.849 25.0125 30.1226 24.1112C30.3884 23.2358 30.6179 22.4799 31.6961 21.4379C32.7741 20.396 33.5564 20.1742 34.4621 19.9173C35.0852 19.7406 35.7295 19.5578 36.4669 19.1076C36.7542 18.9322 36.8399 18.5649 36.6585 18.2873C36.477 18.0097 36.0969 17.9268 35.8097 18.1022C35.2178 18.4636 34.6824 18.6154 34.1156 18.7761C33.1831 19.0406 32.1261 19.3403 30.8259 20.5969C29.5257 21.8535 29.2155 22.875 28.9419 23.7762C28.6761 24.6516 28.4466 25.4076 27.3684 26.4495C26.2903 27.4915 25.508 27.7133 24.6022 27.9702C23.6698 28.2347 22.6128 28.5345 21.3125 29.7911C20.0122 31.0478 19.702 32.0694 19.4283 32.9706C19.1625 33.846 18.9329 34.6021 17.8546 35.6442C17.0351 36.4363 16.397 36.7336 15.8808 36.9199C14.4886 37.4227 12.9861 37.4391 11.5788 36.9805L38.2638 11.1902C38.7381 12.5506 38.7208 14.0035 38.201 15.3482C38.0654 15.6992 37.9074 16.0015 37.7039 16.2993C37.5167 16.5733 37.5948 16.9422 37.8784 17.1231C37.9828 17.1897 38.1004 17.2216 38.2168 17.2216C38.4165 17.2216 38.6125 17.1276 38.7308 16.9545C38.9867 16.5799 39.1846 16.2017 39.3537 15.7645C39.806 14.5945 39.94 13.3566 39.7604 12.1441C40.4191 13.3093 40.7695 14.6219 40.7695 15.9866C40.7695 18.1318 39.9052 20.1486 38.3357 21.6654Z" fill="black"/>
<path d="M32.4703 7.78451C31.8221 8.41106 31.4255 8.50842 30.7055 8.68529C29.8074 8.90585 28.5775 9.20799 27.1911 10.5478C25.8048 11.8878 25.4922 13.0765 25.2641 13.9443C25.0811 14.6401 24.9803 15.0233 24.3321 15.6498C23.6839 16.2763 23.2874 16.3737 22.5674 16.5506C21.8797 16.7195 21.0239 16.9298 20.0493 17.595C19.7717 17.7844 19.7057 18.1555 19.9017 18.4237C20.0976 18.6919 20.4817 18.756 20.7591 18.5664C21.5477 18.028 22.2505 17.8555 22.8705 17.7032C23.6454 17.5128 24.3148 17.3484 25.2022 16.4906C26.0895 15.6331 26.2597 14.9862 26.4565 14.2372C26.671 13.4218 26.914 12.4975 28.0613 11.3887C29.2085 10.28 30.1649 10.045 31.0087 9.8378C31.7837 9.64744 32.453 9.48302 33.3405 8.62528C33.6011 8.37356 34.0251 8.37364 34.2853 8.62528C34.5458 8.87707 34.5458 9.28664 34.2853 9.53843C33.1382 10.6471 32.1818 10.8821 31.3379 11.0893C30.563 11.2797 29.8937 11.4441 29.0062 12.3018C28.1187 13.1594 27.9486 13.8063 27.7517 14.5552C27.5373 15.3707 27.2943 16.2951 26.147 17.4037C24.9999 18.5125 24.0435 18.7474 23.1996 18.9547C22.4246 19.145 21.7554 19.3094 20.8679 20.1671C19.9805 21.0247 19.8103 21.6715 19.6133 22.4208C19.3988 23.2362 19.1558 24.1605 18.0084 25.2694C16.8612 26.3782 15.9047 26.6131 15.0608 26.8204C14.2859 27.0108 13.6165 27.1752 12.7289 28.033C11.8414 28.8909 11.6712 29.5377 11.4742 30.2868C11.2598 31.1023 11.0167 32.0266 9.86934 33.1355C9.6088 33.3873 9.18487 33.3873 8.9245 33.1355C8.66397 32.8837 8.66397 32.4742 8.92442 32.2224C9.812 31.3646 9.98221 30.7178 10.1792 29.9687C10.3937 29.1531 10.6368 28.2287 11.7841 27.12C12.9312 26.0112 13.8878 25.7762 14.7317 25.5689C15.5067 25.3785 16.176 25.214 17.0636 24.3563C17.951 23.4987 18.1211 22.8518 18.3181 22.1027C18.4619 21.5561 18.6248 20.9367 19.0785 20.2528C19.2619 19.9764 19.1787 19.6086 18.8927 19.4313C18.6065 19.254 18.2262 19.3345 18.0427 19.6109C17.4813 20.457 17.2841 21.207 17.1256 21.8098C16.9426 22.5056 16.8417 22.8888 16.1935 23.5154C15.5452 24.1419 15.1485 24.2395 14.4286 24.4163C13.5305 24.637 12.3004 24.9392 10.914 26.2791C9.52768 27.6189 9.21497 28.8078 8.9866 29.6758C8.80367 30.3716 8.70277 30.7549 8.05439 31.3815C7.31423 32.097 7.31423 33.261 8.05439 33.9765C8.4246 34.3342 8.91072 34.513 9.39692 34.513C9.88312 34.513 10.3693 34.3342 10.7394 33.9765C12.1259 32.6364 12.4386 31.4477 12.6667 30.5798C12.8498 29.8841 12.9505 29.5008 13.5989 28.874C14.2473 28.2474 14.644 28.15 15.364 27.9731C16.262 27.7525 17.492 27.4503 18.8785 26.1104C20.265 24.7703 20.5775 23.5817 20.8057 22.7137C20.9887 22.0179 21.0896 21.6347 21.7379 21.0081C22.3861 20.3816 22.7826 20.2841 23.5026 20.1073C24.4007 19.8867 25.6307 19.5846 27.0171 18.2447C28.4034 16.905 28.7159 15.7162 28.9441 14.8483C29.127 14.1526 29.2278 13.7693 29.8761 13.1428C30.5243 12.5163 30.9209 12.4189 31.6408 12.242C32.5389 12.0213 33.7688 11.7192 35.1552 10.3794C35.8955 9.66393 35.8955 8.49986 35.1552 7.78443C34.415 7.06908 33.2107 7.06908 32.4703 7.78451Z" fill="black"/>
</g>
<defs>
<clipPath id="clip0">
<rect width="42" height="40.5917" fill="white"/>
</clipPath>
</defs>
</svg>
