<svg width="168" height="186" viewBox="0 0 168 186" fill="none" xmlns="http://www.w3.org/2000/svg">
<path fill-rule="evenodd" clip-rule="evenodd" d="M168 -0.000488281H0V186H168V-0.000488281ZM139.743 92.2338C139.805 145.021 138.66 163.615 109.273 163.643C106.338 163.646 103.41 163.667 100.504 163.689C68.4935 163.926 39.2233 164.142 34.4 138.935C27.1733 101.166 27.8271 78.4379 34.4 46.1431C39.3655 21.7462 82.4725 22.0243 104.839 22.1686C106.429 22.1788 107.914 22.1884 109.273 22.1884C137.319 22.1883 139.681 39.4467 139.743 92.2338Z" fill="#FFD382"/>
<path d="M109.272 162.644C116.529 162.637 121.902 161.481 125.921 159.042C129.914 156.62 132.687 152.859 134.607 147.392C136.537 141.9 137.586 134.737 138.142 125.597C138.698 116.466 138.758 105.437 138.743 92.2357C138.727 79.0394 138.568 68.0955 137.902 59.0941C137.236 50.0839 136.067 43.0908 134.066 37.7686C132.074 32.4724 129.275 28.8736 125.351 26.573C121.401 24.2568 116.196 23.1889 109.272 23.1889C107.905 23.1889 106.413 23.1794 104.82 23.1692C94.4235 23.1027 79.6629 23.0083 66.3234 25.3521C58.6344 26.7031 51.5008 28.8522 45.9845 32.2295C40.4899 35.5936 36.641 40.1465 35.3799 46.3427C28.8331 78.5096 28.1799 101.106 35.3822 138.747C36.655 145.399 39.6685 150.167 43.9841 153.619C48.3237 157.09 54.0408 159.277 60.7826 160.632C72.0515 162.898 85.9086 162.796 100.463 162.689C103.376 162.668 106.318 162.646 109.272 162.644Z" stroke="#FFB84F" stroke-width="2"/>
</svg>
