<svg width="280" height="492" viewBox="0 0 280 492" fill="none" xmlns="http://www.w3.org/2000/svg">
<mask id="path-1-inside-1" fill="white">
<path fill-rule="evenodd" clip-rule="evenodd" d="M280 52.421V474.001C280 483.942 271.941 492.001 262 492.001H18C8.05887 492.001 0 483.942 0 474.001V57.673C26.5244 21.4046 70.6364 0 143.998 0C210.334 0 252.817 19.3473 280 52.421Z"/>
</mask>
<path fill-rule="evenodd" clip-rule="evenodd" d="M280 52.421V474.001C280 483.942 271.941 492.001 262 492.001H18C8.05887 492.001 0 483.942 0 474.001V57.673C26.5244 21.4046 70.6364 0 143.998 0C210.334 0 252.817 19.3473 280 52.421Z" fill="url(#paint0_linear)"/>
<path d="M280 52.421H282V51.7046L281.545 51.1511L280 52.421ZM0 57.673L-1.61435 56.4924L-2 57.0197V57.673H0ZM278 52.421V474.001H282V52.421H278ZM278 474.001C278 482.838 270.837 490.001 262 490.001V494.001C273.046 494.001 282 485.047 282 474.001H278ZM262 490.001H18V494.001H262V490.001ZM18 490.001C9.16344 490.001 2 482.838 2 474.001H-2C-2 485.047 6.9543 494.001 18 494.001V490.001ZM2 474.001V57.673H-2V474.001H2ZM1.61435 58.8536C27.6445 23.261 71.045 2 143.998 2V-2C70.2279 -2 25.4042 19.5483 -1.61435 56.4924L1.61435 58.8536ZM143.998 2C209.921 2 251.756 21.2056 278.455 53.6909L281.545 51.1511C253.879 17.489 210.747 -2 143.998 -2V2Z" fill="#7443A7" mask="url(#path-1-inside-1)"/>
<defs>
<linearGradient id="paint0_linear" x1="140" y1="0" x2="140" y2="492.001" gradientUnits="userSpaceOnUse">
<stop stop-color="#B794DC"/>
<stop offset="1" stop-color="#B794DC" stop-opacity="0.47"/>
</linearGradient>
</defs>
</svg>
