<svg width="46" height="42" viewBox="0 0 46 42" fill="none" xmlns="http://www.w3.org/2000/svg">
<path d="M22.9999 20.6999H42.9547C44.2869 20.6999 45.3359 19.6614 45.1889 18.4697C44.649 14.0938 42.5151 9.847 38.7868 6.49167C30.068 -1.3553 15.9318 -1.3553 7.21298 6.49167C-1.50587 14.3386 -1.50587 27.0612 7.21298 34.9081C15.3362 42.219 28.1618 42.7185 36.9274 36.4065C37.972 35.6544 38.0563 34.2507 37.1103 33.3993L22.9999 20.6999Z" fill="#C98A2E"/>
<path d="M38.7868 6.49167C30.068 -1.3553 15.9318 -1.3553 7.21298 6.49167C-1.50587 14.3386 -1.50587 27.0612 7.21298 34.9081C7.90361 34.2866 7.94646 33.2933 7.31504 32.6227C4.21428 29.3297 2.50887 25.2073 2.47141 20.8471C2.42936 15.9679 4.54365 11.2489 8.34007 7.76561C12.2333 4.19333 17.4484 2.22361 22.9999 2.22361C27.9107 2.22361 32.5583 3.76494 36.2606 6.59347C37.0001 7.15835 38.101 7.10895 38.7868 6.49167Z" fill="#E1B872"/>
<path d="M22.9999 20.6999H41.7322C41.7322 16.5164 40.0304 12.684 37.2171 9.7339C36.7094 9.20145 35.8012 9.17873 35.2499 9.67488L28.4953 12.5197L22.9999 20.6999Z" fill="#E2C35A"/>
<path d="M35.1843 7.90436C32.2505 5.63821 28.5314 4.17337 24.4502 3.89084C23.6678 3.83667 22.9998 4.3946 22.9998 5.10082L21.2029 11.6033L22.9998 20.6999L35.2498 9.67485C35.8012 9.1787 35.7759 8.3613 35.1843 7.90436Z" fill="#EBD37A"/>
<path d="M21.5496 3.89084C17.4684 4.17345 13.7493 5.63821 10.8154 7.90437C10.2238 8.3613 10.1986 9.1787 10.7498 9.67486L22.9999 20.6999V5.10074C22.9999 4.39452 22.3319 3.83667 21.5496 3.89084Z" fill="#E2C35A"/>
<path d="M22.9999 20.6999L10.7499 9.67488C10.1986 9.17873 9.29037 9.20145 8.78266 9.7339C6.26471 12.3744 4.63711 15.7215 4.32319 19.3946C4.263 20.0987 4.88292 20.6999 5.66761 20.6999L12.2188 22.3171L22.9999 20.6999Z" fill="#EBD37A"/>
<path d="M4.32319 22.0053C4.6372 25.6784 6.2648 29.0256 8.78266 31.666C9.29037 32.1985 10.1986 32.2212 10.7499 31.7251L17.9157 28.5102L22.9999 20.7H5.66761C4.88292 20.6999 4.263 21.3011 4.32319 22.0053Z" fill="#E2C35A"/>
<path d="M22.9999 20.6999L10.7498 31.7249C10.1986 32.2211 10.2238 33.0385 10.8154 33.4954C13.7493 35.7616 17.4683 37.2264 21.5496 37.509C22.3319 37.5631 23 37.0052 23 36.299L24.7969 29.1062L22.9999 20.6999Z" fill="#EBD37A"/>
<path d="M22.9999 20.6999V36.2991C22.9999 37.0053 23.6678 37.5632 24.4503 37.509C29.0379 37.1913 33.1681 35.3799 36.2395 32.6156L22.9999 20.6999Z" fill="#E2C35A"/>
<path d="M18.9571 10.1882C20.1976 10.1882 21.2032 9.28317 21.2032 8.16674C21.2032 7.05031 20.1976 6.14526 18.9571 6.14526C17.7166 6.14526 16.711 7.05031 16.711 8.16674C16.711 9.28317 17.7166 10.1882 18.9571 10.1882Z" fill="#BD7155"/>
<path d="M26.4141 15.0398C27.6546 15.0398 28.6602 14.1347 28.6602 13.0183C28.6602 11.9019 27.6546 10.9968 26.4141 10.9968C25.1736 10.9968 24.168 11.9019 24.168 13.0183C24.168 14.1347 25.1736 15.0398 26.4141 15.0398Z" fill="#BD7155"/>
<path d="M26.4141 30.403C27.6546 30.403 28.6602 29.498 28.6602 28.3815C28.6602 27.2651 27.6546 26.36 26.4141 26.36C25.1736 26.36 24.168 27.2651 24.168 28.3815C24.168 29.498 25.1736 30.403 26.4141 30.403Z" fill="#BD7155"/>
<path d="M9.97279 16.6569C11.2133 16.6569 12.2189 15.7519 12.2189 14.6354C12.2189 13.519 11.2133 12.614 9.97279 12.614C8.73231 12.614 7.7267 13.519 7.7267 14.6354C7.7267 15.7519 8.73231 16.6569 9.97279 16.6569Z" fill="#BD7155"/>
<path d="M17.1603 34.4459C18.4008 34.4459 19.4064 33.5409 19.4064 32.4244C19.4064 31.308 18.4008 30.403 17.1603 30.403C15.9198 30.403 14.9142 31.308 14.9142 32.4244C14.9142 33.5409 15.9198 34.4459 17.1603 34.4459Z" fill="#BD7155"/>
<path d="M16.2619 19.0827C17.0061 19.0827 17.6095 18.5397 17.6095 17.8698C17.6095 17.1999 17.0061 16.6569 16.2619 16.6569C15.5176 16.6569 14.9142 17.1999 14.9142 17.8698C14.9142 18.5397 15.5176 19.0827 16.2619 19.0827Z" fill="#BD7155"/>
<path d="M36.0274 15.0397C36.7717 15.0397 37.3751 14.4967 37.3751 13.8268C37.3751 13.157 36.7717 12.614 36.0274 12.614C35.2831 12.614 34.6798 13.157 34.6798 13.8268C34.6798 14.4967 35.2831 15.0397 36.0274 15.0397Z" fill="#BD7155"/>
<path d="M25.5157 8.57104C26.26 8.57104 26.8633 8.02801 26.8633 7.35815C26.8633 6.68829 26.26 6.14526 25.5157 6.14526C24.7714 6.14526 24.168 6.68829 24.168 7.35815C24.168 8.02801 24.7714 8.57104 25.5157 8.57104Z" fill="#BD7155"/>
<path d="M7.54704 24.5811C8.29133 24.5811 8.89469 24.0381 8.89469 23.3682C8.89469 22.6984 8.29133 22.1553 7.54704 22.1553C6.80275 22.1553 6.19939 22.6984 6.19939 23.3682C6.19939 24.0381 6.80275 24.5811 7.54704 24.5811Z" fill="#BD7155"/>
<path d="M19.8556 28.7858C20.5998 28.7858 21.2032 28.2428 21.2032 27.5729C21.2032 26.9031 20.5998 26.36 19.8556 26.36C19.1113 26.36 18.5079 26.9031 18.5079 27.5729C18.5079 28.2428 19.1113 28.7858 19.8556 28.7858Z" fill="#BD7155"/>
<path d="M27.3126 34.4459C28.0569 34.4459 28.6603 33.9029 28.6603 33.233C28.6603 32.5632 28.0569 32.0201 27.3126 32.0201C26.5683 32.0201 25.965 32.5632 25.965 33.233C25.965 33.9029 26.5683 34.4459 27.3126 34.4459Z" fill="#BD7155"/>
<path d="M10.8713 28.7858C11.6156 28.7858 12.2189 28.2428 12.2189 27.5729C12.2189 26.9031 11.6156 26.36 10.8713 26.36C10.127 26.36 9.52364 26.9031 9.52364 27.5729C9.52364 28.2428 10.127 28.7858 10.8713 28.7858Z" fill="#BD7155"/>
<path d="M14.4649 25.3897C15.4573 25.3897 16.2618 24.6657 16.2618 23.7725C16.2618 22.8794 15.4573 22.1553 14.4649 22.1553C13.4726 22.1553 12.6681 22.8794 12.6681 23.7725C12.6681 24.6657 13.4726 25.3897 14.4649 25.3897Z" fill="#BD7155"/>
<path d="M30.6368 19.0827C31.6292 19.0827 32.4336 18.3587 32.4336 17.4655C32.4336 16.5724 31.6292 15.8483 30.6368 15.8483C29.6444 15.8483 28.8399 16.5724 28.8399 17.4655C28.8399 18.3587 29.6444 19.0827 30.6368 19.0827Z" fill="#BD7155"/>
<path d="M45.8586 18.4029C45.5766 16.1169 44.8814 13.9083 43.7925 11.8385C42.6657 9.69678 41.1419 7.75349 39.2634 6.06281C34.9192 2.1532 29.1434 0 22.9999 0C16.8564 0 11.0807 2.1532 6.73655 6.06281C2.39244 9.97259 0 15.1708 0 20.6999C0 26.2291 2.39244 31.4272 6.73655 35.337C10.7639 38.9615 16.1114 41.1047 21.7942 41.3716C22.1984 41.3905 22.6012 41.4 23.0038 41.4C28.2194 41.3998 33.2729 39.8148 37.3484 36.8802C38.3572 36.1539 38.7155 34.8959 38.2197 33.821C38.0772 33.5116 37.6826 33.3647 37.3391 33.4934C36.9954 33.6218 36.8324 33.9767 36.975 34.2859C37.2421 34.8649 37.0494 35.5422 36.5064 35.9331C27.8915 42.1365 15.5028 41.5116 7.68934 34.4794C3.59993 30.7987 1.34765 25.9051 1.34765 20.6999C1.34765 15.4948 3.59993 10.6011 7.68952 6.92056C11.779 3.23986 17.2164 1.21289 22.9999 1.21289C28.7834 1.21289 34.2208 3.23986 38.3103 6.92056C41.8249 10.0835 43.9719 14.1004 44.5191 18.5368C44.5933 19.1386 44.227 19.7134 43.6076 19.967C43.2688 20.1056 43.119 20.4652 43.2731 20.7701C43.4271 21.0749 43.8264 21.2098 44.1654 21.0711C45.317 20.5998 45.9974 19.5275 45.8586 18.4029Z" fill="black"/>
<path d="M37.7285 9.33893C37.3744 8.96755 36.8613 8.74146 36.3168 8.71486C36.2872 8.22469 36.0359 7.76299 35.6233 7.44424C32.4715 5.00958 28.6257 3.57174 24.5021 3.28631C23.9548 3.24798 23.4091 3.4156 23 3.7451C22.591 3.4156 22.0455 3.24782 21.4979 3.28631C17.3743 3.57174 13.5286 5.00958 10.3766 7.44424C9.96398 7.76299 9.71277 8.22477 9.68313 8.71486C9.13859 8.74154 8.62549 8.96755 8.27133 9.33893C5.56614 12.1758 3.96855 15.6369 3.65131 19.3481C3.60917 19.8411 3.79506 20.3318 4.16126 20.6999C3.79506 21.0681 3.60917 21.5588 3.65131 22.0518C3.96855 25.763 5.56614 29.2241 8.27133 32.061C8.62549 32.4324 9.1385 32.6584 9.68313 32.685C9.71268 33.1752 9.96398 33.6369 10.3766 33.9557C13.5287 36.3903 17.3743 37.8282 21.4979 38.1136C21.5491 38.1172 21.6003 38.1189 21.6513 38.1189C22.1467 38.1189 22.6291 37.9527 22.9999 37.6539C23.3708 37.9528 23.853 38.1189 24.3484 38.1189C24.3995 38.1189 24.4508 38.1172 24.502 38.1136C28.4226 37.8422 32.117 36.5178 35.186 34.2837C35.7291 33.8881 36.0617 33.301 36.0984 32.6727C36.1352 32.0437 35.8725 31.4277 35.3778 30.9824L24.6268 21.3064H39.8403C40.5407 21.3064 41.2112 21.0376 41.68 20.569C42.1461 20.1029 42.3717 19.4788 42.2989 18.8568C41.8861 15.3329 40.3058 12.0417 37.7285 9.33893ZM23.8902 4.65509C24.0293 4.53906 24.2101 4.48278 24.3986 4.49547C28.2345 4.76101 31.8125 6.09891 34.7455 8.36458C34.8846 8.47196 34.965 8.62309 34.972 8.79014C34.9793 8.96229 34.9087 9.12425 34.7733 9.24602L23.6737 19.2358V8.10656C23.9914 8.73734 24.6972 9.17754 25.5155 9.17754C26.6301 9.17754 27.537 8.36134 27.537 7.35821C27.537 6.35507 26.6301 5.53888 25.5155 5.53888C24.6972 5.53888 23.9914 5.97899 23.6737 6.60986V5.10078C23.6737 4.92977 23.7506 4.77145 23.8902 4.65509ZM24.8417 7.35821C24.8417 7.02377 25.1439 6.75176 25.5155 6.75176C25.8871 6.75176 26.1893 7.02377 26.1893 7.35821C26.1893 7.69264 25.8871 7.96465 25.5155 7.96465C25.1439 7.96465 24.8417 7.69264 24.8417 7.35821ZM11.2543 8.36458C14.1873 6.09891 17.7653 4.7611 21.6012 4.49547C21.7898 4.48318 21.9705 4.53906 22.1097 4.65509C22.2493 4.77136 22.3262 4.92969 22.3262 5.10078V19.2358L11.2263 9.24602C11.091 9.12425 11.0204 8.96237 11.0277 8.79014C11.0348 8.62317 11.1152 8.47196 11.2543 8.36458ZM4.99501 19.4411C5.29014 15.9889 6.77669 12.7686 9.29401 10.1289C9.41333 10.0038 9.58124 9.93139 9.76677 9.92508C9.95769 9.91934 10.1381 9.982 10.2735 10.1038L21.3731 20.0935H5.66758C5.47747 20.0935 5.30164 20.0244 5.17236 19.8987C5.04343 19.7735 4.98045 19.6109 4.99501 19.4411ZM9.29401 31.271C6.77669 28.6313 5.29014 25.411 4.99501 21.9588C4.98045 21.7889 5.04343 21.6264 5.17236 21.5012C5.30164 21.3755 5.47747 21.3064 5.66758 21.3064H21.3731L10.2734 31.2961C10.138 31.4181 9.95742 31.4824 9.76668 31.4749C9.58115 31.4686 9.41333 31.3961 9.29401 31.271ZM22.1096 36.7448C21.9705 36.8608 21.7899 36.9165 21.6012 36.9044C17.7653 36.6389 14.1874 35.301 11.2542 33.0353C11.1152 32.9279 11.0347 32.7768 11.0277 32.6098C11.0204 32.4375 11.091 32.2757 11.2264 32.1538L22.3261 22.1641V36.2991C22.3261 36.4701 22.2493 36.6284 22.1096 36.7448ZM34.7527 32.609C34.7358 32.8987 34.5886 33.1586 34.3384 33.3407C31.4828 35.4195 28.0457 36.6518 24.3986 36.9044C24.2103 36.9168 24.0295 36.8608 23.8902 36.7447C23.7506 36.6285 23.6738 36.4701 23.6738 36.299V22.164L34.4249 31.8401C34.6532 32.0455 34.7696 32.3186 34.7527 32.609ZM40.6783 19.7575C40.4616 19.9742 40.1639 20.0935 39.8403 20.0935H24.6267L35.7263 10.1037C35.8618 9.98192 36.0411 9.91869 36.2331 9.925C36.4186 9.9313 36.5866 10.0038 36.7059 10.1288C39.1041 12.6439 40.5748 15.7059 40.9585 18.9839C40.9919 19.2687 40.8924 19.5434 40.6783 19.7575Z" fill="black"/>
<path d="M18.9569 10.7947C20.5669 10.7947 21.8769 9.61581 21.8769 8.16674C21.8769 6.71766 20.5669 5.53882 18.9569 5.53882C17.347 5.53882 16.037 6.71766 16.037 8.16674C16.037 9.61581 17.347 10.7947 18.9569 10.7947ZM18.9569 6.7517C19.8238 6.7517 20.5292 7.38653 20.5292 8.16674C20.5292 8.94695 19.8238 9.58177 18.9569 9.58177C18.09 9.58177 17.3847 8.94695 17.3847 8.16674C17.3847 7.38653 18.09 6.7517 18.9569 6.7517Z" fill="black"/>
<path d="M24.3492 11.1601C24.0861 11.397 24.0861 11.7809 24.3492 12.0178C24.6125 12.2545 25.0391 12.2545 25.3022 12.0178C25.9151 11.466 26.9128 11.466 27.5257 12.0178C28.1387 12.5695 28.1387 13.4671 27.5257 14.0189C26.9128 14.5706 25.9151 14.5706 25.3022 14.0189C25.039 13.7821 24.6124 13.7821 24.3492 14.0189C24.0861 14.2558 24.0861 14.6397 24.3492 14.8765C24.9008 15.3728 25.634 15.6462 26.4139 15.6462C27.1939 15.6462 27.9272 15.3728 28.4786 14.8765C29.0301 14.3801 29.3339 13.7202 29.3339 13.0183C29.3339 12.3164 29.0301 11.6564 28.4786 11.1601C27.9271 10.6638 27.1939 10.3904 26.4139 10.3904C25.634 10.3904 24.9007 10.6638 24.3492 11.1601Z" fill="black"/>
<path d="M24.4748 30.3464C25.0093 30.774 25.698 31.0094 26.4139 31.0094C28.0239 31.0094 29.3338 29.8306 29.3338 28.3815C29.3338 26.9324 28.0239 25.7536 26.4139 25.7536C26.0416 25.7536 25.74 26.025 25.74 26.36C25.74 26.695 26.0416 26.9665 26.4139 26.9665C27.2808 26.9665 27.9861 27.6013 27.9861 28.3815C27.9861 29.1617 27.2808 29.7966 26.4139 29.7966C26.0284 29.7966 25.6577 29.6698 25.3701 29.4397C25.0918 29.2172 24.6659 29.2398 24.4187 29.4902C24.1716 29.7406 24.1967 30.1239 24.4748 30.3464Z" fill="black"/>
<path d="M9.9726 17.2634C11.5826 17.2634 12.8925 16.0846 12.8925 14.6355C12.8925 13.1864 11.5826 12.0076 9.9726 12.0076C8.3626 12.0076 7.05269 13.1864 7.05269 14.6355C7.05269 16.0846 8.3626 17.2634 9.9726 17.2634ZM9.9726 13.2205C10.8395 13.2205 11.5449 13.8553 11.5449 14.6355C11.5449 15.4157 10.8395 16.0505 9.9726 16.0505C9.1057 16.0505 8.40034 15.4157 8.40034 14.6355C8.40034 13.8553 9.1057 13.2205 9.9726 13.2205Z" fill="black"/>
<path d="M17.16 29.7966C15.55 29.7966 14.2401 30.9754 14.2401 32.4245C14.2401 33.8736 15.55 35.0524 17.16 35.0524C18.77 35.0524 20.08 33.8736 20.08 32.4245C20.08 30.9754 18.7701 29.7966 17.16 29.7966ZM17.16 33.8395C16.2931 33.8395 15.5878 33.2047 15.5878 32.4245C15.5878 31.6443 16.2931 31.0095 17.16 31.0095C18.0269 31.0095 18.7323 31.6443 18.7323 32.4245C18.7323 33.2047 18.027 33.8395 17.16 33.8395Z" fill="black"/>
<path d="M16.2616 19.6892C17.3763 19.6892 18.2831 18.873 18.2831 17.8699C18.2831 17.5349 17.9814 17.2634 17.6093 17.2634C17.2371 17.2634 16.9354 17.5349 16.9354 17.8699C16.9354 18.2043 16.6332 18.4763 16.2616 18.4763C15.89 18.4763 15.5878 18.2043 15.5878 17.8699C15.5878 17.5354 15.89 17.2634 16.2616 17.2634C16.6337 17.2634 16.9354 16.992 16.9354 16.657C16.9354 16.322 16.6337 16.0505 16.2616 16.0505C15.1469 16.0505 14.2401 16.8667 14.2401 17.8699C14.2401 18.873 15.147 19.6892 16.2616 19.6892Z" fill="black"/>
<path d="M36.0271 12.0076C34.9125 12.0076 34.0056 12.8238 34.0056 13.8269C34.0056 14.83 34.9125 15.6462 36.0271 15.6462C37.1417 15.6462 38.0486 14.83 38.0486 13.8269C38.0486 12.8238 37.1418 12.0076 36.0271 12.0076ZM36.0271 14.4333C35.6555 14.4333 35.3533 14.1613 35.3533 13.8269C35.3533 13.4925 35.6555 13.2205 36.0271 13.2205C36.3987 13.2205 36.7009 13.4925 36.7009 13.8269C36.7009 14.1613 36.3987 14.4333 36.0271 14.4333Z" fill="black"/>
<path d="M9.5683 23.3683C9.5683 22.3651 8.66151 21.549 7.54682 21.549C6.43213 21.549 5.52534 22.3651 5.52534 23.3683C5.52534 24.3714 6.43213 25.1876 7.54682 25.1876C8.66151 25.1876 9.5683 24.3714 9.5683 23.3683ZM7.54682 23.9747C7.17523 23.9747 6.873 23.7027 6.873 23.3683C6.873 23.0338 7.17523 22.7618 7.54682 22.7618C7.91841 22.7618 8.22065 23.0338 8.22065 23.3683C8.22065 23.7027 7.91841 23.9747 7.54682 23.9747Z" fill="black"/>
<path d="M19.8554 29.3923C20.97 29.3923 21.8768 28.5761 21.8768 27.5729C21.8768 26.5698 20.97 25.7536 19.8554 25.7536C18.7407 25.7536 17.8339 26.5698 17.8339 27.5729C17.8339 28.5761 18.7408 29.3923 19.8554 29.3923ZM19.8554 26.9665C20.2269 26.9665 20.5292 27.2385 20.5292 27.5729C20.5292 27.9074 20.2269 28.1794 19.8554 28.1794C19.4838 28.1794 19.1815 27.9074 19.1815 27.5729C19.1815 27.2385 19.4839 26.9665 19.8554 26.9665Z" fill="black"/>
<path d="M27.3124 31.4138C26.1978 31.4138 25.2909 32.2299 25.2909 33.2331C25.2909 34.2362 26.1978 35.0524 27.3124 35.0524C28.427 35.0524 29.3339 34.2362 29.3339 33.2331C29.3339 32.2299 28.4271 31.4138 27.3124 31.4138ZM27.3124 33.8395C26.9408 33.8395 26.6386 33.5675 26.6386 33.2331C26.6386 32.8987 26.9408 32.6266 27.3124 32.6266C27.684 32.6266 27.9862 32.8987 27.9862 33.2331C27.9862 33.5675 27.684 33.8395 27.3124 33.8395Z" fill="black"/>
<path d="M12.8925 27.5729C12.8925 26.5698 11.9857 25.7536 10.871 25.7536C9.75632 25.7536 8.84953 26.5698 8.84953 27.5729C8.84953 28.5761 9.75632 29.3923 10.871 29.3923C11.9857 29.3923 12.8925 28.5761 12.8925 27.5729ZM10.1972 27.5729C10.1972 27.2385 10.4994 26.9665 10.871 26.9665C11.2426 26.9665 11.5448 27.2385 11.5448 27.5729C11.5448 27.9074 11.2426 28.1794 10.871 28.1794C10.4994 28.1794 10.1972 27.9074 10.1972 27.5729Z" fill="black"/>
<path d="M14.4648 25.9962C15.8271 25.9962 16.9355 24.9986 16.9355 23.7726C16.9355 22.5465 15.8271 21.549 14.4648 21.549C13.1024 21.549 11.9941 22.5465 11.9941 23.7726C11.9941 24.9986 13.1025 25.9962 14.4648 25.9962ZM14.4648 22.7618C15.084 22.7618 15.5878 23.2152 15.5878 23.7726C15.5878 24.3299 15.084 24.7833 14.4648 24.7833C13.8455 24.7833 13.3417 24.3299 13.3417 23.7726C13.3417 23.2152 13.8456 22.7618 14.4648 22.7618Z" fill="black"/>
<path d="M30.6365 15.2419C30.2643 15.2419 29.9627 15.5134 29.9627 15.8484C29.9627 16.1834 30.2643 16.4548 30.6365 16.4548C31.2558 16.4548 31.7596 16.9082 31.7596 17.4656C31.7596 18.0229 31.2558 18.4763 30.6365 18.4763C30.0173 18.4763 29.5135 18.0229 29.5135 17.4656C29.5135 17.1306 29.2119 16.8591 28.8397 16.8591C28.4675 16.8591 28.1658 17.1306 28.1658 17.4656C28.1658 18.6916 29.2742 19.6892 30.6365 19.6892C31.9988 19.6892 33.1072 18.6916 33.1072 17.4656C33.1072 16.2395 31.9988 15.2419 30.6365 15.2419Z" fill="black"/>
<path d="M19.0425 20.0369C19.4147 20.0369 19.7164 19.7653 19.7164 19.4304C19.7164 19.0955 19.4147 18.824 19.0425 18.824C18.6704 18.824 18.3687 19.0955 18.3687 19.4304C18.3687 19.7653 18.6704 20.0369 19.0425 20.0369Z" fill="black"/>
<path d="M13.6519 9.5252C14.0241 9.5252 14.3258 9.25369 14.3258 8.91876C14.3258 8.58383 14.0241 8.31232 13.6519 8.31232C13.2798 8.31232 12.9781 8.58383 12.9781 8.91876C12.9781 9.25369 13.2798 9.5252 13.6519 9.5252Z" fill="black"/>
<path d="M10.8668 25.2119C11.239 25.2119 11.5407 24.9403 11.5407 24.6054C11.5407 24.2705 11.239 23.999 10.8668 23.999C10.4947 23.999 10.193 24.2705 10.193 24.6054C10.193 24.9403 10.4947 25.2119 10.8668 25.2119Z" fill="black"/>
<path d="M21.109 25.2119C21.4811 25.2119 21.7828 24.9403 21.7828 24.6054C21.7828 24.2705 21.4811 23.999 21.109 23.999C20.7368 23.999 20.4352 24.2705 20.4352 24.6054C20.4352 24.9403 20.7368 25.2119 21.109 25.2119Z" fill="black"/>
<path d="M27.398 19.5517C27.7701 19.5517 28.0718 19.2802 28.0718 18.9452C28.0718 18.6103 27.7701 18.3388 27.398 18.3388C27.0258 18.3388 26.7242 18.6103 26.7242 18.9452C26.7242 19.2802 27.0258 19.5517 27.398 19.5517Z" fill="black"/>
<path d="M31.749 10.6521C31.8096 10.7083 31.8792 10.7516 31.954 10.7822C32.1987 10.8823 32.4971 10.8442 32.7019 10.6656C32.9692 10.4324 32.9759 10.0485 32.717 9.80797L29.9314 7.22032C29.6723 6.98017 29.2459 6.9737 28.9786 7.20681C28.7113 7.43993 28.7046 7.82385 28.9635 8.0644L31.749 10.6521Z" fill="black"/>
<path d="M18.6126 11.6033H16.8157C16.4436 11.6033 16.1419 11.8747 16.1419 12.2097C16.1419 12.5447 16.4436 12.8162 16.8157 12.8162H18.6126C18.9847 12.8162 19.2864 12.5447 19.2864 12.2097C19.2864 11.8747 18.9847 11.6033 18.6126 11.6033Z" fill="black"/>
<path d="M10.6855 17.6779L9.41491 18.8215C9.15176 19.0583 9.15176 19.4423 9.41491 19.6791C9.54644 19.7975 9.71894 19.8567 9.89135 19.8567C10.0638 19.8567 10.2363 19.7975 10.3678 19.679L11.6384 18.5354C11.9015 18.2986 11.9015 17.9147 11.6384 17.6778C11.3753 17.4411 10.9486 17.441 10.6855 17.6779Z" fill="black"/>
<path d="M29.1805 31.8079C29.312 31.9263 29.4845 31.9855 29.6569 31.9855C29.8294 31.9855 30.0019 31.9263 30.1334 31.8079L31.404 30.6643C31.6671 30.4274 31.6671 30.0435 31.404 29.8067C31.1408 29.5699 30.7141 29.5698 30.4511 29.8068L29.1805 30.9503C28.9174 31.1871 28.9174 31.571 29.1805 31.8079Z" fill="black"/>
<path d="M36.4224 16.8693C36.1593 16.6325 35.7326 16.6324 35.4695 16.8692C35.2064 17.1062 35.2064 17.4901 35.4695 17.7268L36.7401 18.8704C36.8716 18.9889 37.0441 19.0481 37.2165 19.0481C37.3889 19.0481 37.5614 18.9889 37.693 18.8705C37.9561 18.6336 37.9561 18.2497 37.693 18.0129L36.4224 16.8693Z" fill="black"/>
<path d="M20.5201 29.8068C20.2569 29.5698 19.8303 29.5699 19.5672 29.8067C19.3041 30.0436 19.3041 30.4275 19.5672 30.6643L20.8378 31.8079C20.9693 31.9263 21.1418 31.9855 21.3142 31.9855C21.4866 31.9855 21.6591 31.9263 21.7907 31.8079C22.0538 31.571 22.0538 31.1871 21.7907 30.9503L20.5201 29.8068Z" fill="black"/>
<path d="M20.2506 14.4435C19.9875 14.2067 19.5608 14.2066 19.2977 14.4435C19.0345 14.6804 19.0345 15.0643 19.2977 15.301L20.5683 16.4446C20.6998 16.5631 20.8723 16.6223 21.0447 16.6223C21.2171 16.6223 21.3896 16.5631 21.5211 16.4447C21.7843 16.2078 21.7843 15.8239 21.5211 15.5871L20.2506 14.4435Z" fill="black"/>
</svg>
