<svg width="52" height="47" viewBox="0 0 52 47" fill="none" xmlns="http://www.w3.org/2000/svg">
<g clip-path="url(#clip0)">
<path d="M23.9708 25.2285L26.9588 25.2661L26.7507 41.7736L23.7626 41.7359L23.9708 25.2285Z" fill="#BFBFBF"/>
<path d="M48.0242 25.56L3.50231 24.9987C2.12711 24.9813 1.02495 23.9618 1.04059 22.7214L1.26096 5.2425C1.2766 4.00212 2.40412 3.01064 3.77931 3.02798L48.3012 3.5893C49.6764 3.60664 50.7785 4.62624 50.7629 5.86661L50.5425 23.3455C50.5269 24.5859 49.3994 25.5774 48.0242 25.56Z" fill="#D8EFD7"/>
<path d="M31.9599 43.4117L18.5137 43.2421C17.5511 43.23 16.7796 42.5163 16.7905 41.648C16.8015 40.7797 17.5907 40.0857 18.5534 40.0978L31.9996 40.2674C32.9622 40.2795 33.7337 40.9932 33.7228 41.8615C33.7118 42.7298 32.9226 43.4238 31.9599 43.4117Z" fill="#838383"/>
<path d="M48.3011 3.5893L44.6407 3.54315C46.0159 3.56049 47.118 4.58009 47.1024 5.82046L46.882 23.2993C46.8664 24.5397 45.7389 25.5312 44.3637 25.5139L48.0241 25.56C49.3993 25.5774 50.5269 24.5859 50.5425 23.3455L50.7629 5.86661C50.7785 4.62624 49.6763 3.60664 48.3011 3.5893Z" fill="#F5F5F5"/>
<path d="M23.9708 25.2285L26.9588 25.2661L26.8852 31.1048L23.8972 31.0671L23.9708 25.2285Z" fill="#ACACAC"/>
<path d="M31.1006 28.611L19.746 28.4679C19.306 28.4623 18.9533 28.136 18.9583 27.7391L19.0364 21.5404C19.0414 21.1435 19.4022 20.8262 19.8423 20.8318L31.1968 20.9749C31.6369 20.9805 31.9896 21.3068 31.9846 21.7037L31.9064 27.9024C31.9014 28.2993 31.5406 28.6166 31.1006 28.611Z" fill="#E2E2E2"/>
<path d="M31.9996 40.2673L28.6115 40.2246C29.5742 40.2367 30.3457 40.9505 30.3347 41.8187C30.3238 42.687 29.5345 43.381 28.5719 43.3689L31.9599 43.4116C32.9226 43.4237 33.7118 42.7297 33.7228 41.8614C33.7337 40.9932 32.9622 40.2795 31.9996 40.2673Z" fill="#5A5A5A"/>
<path d="M19.7755 16.4901C19.2812 16.4839 18.8837 16.1142 18.8893 15.6661C18.894 15.294 18.5633 14.9881 18.1508 14.9829C17.7382 14.9777 17.4 15.2751 17.3953 15.6472C17.3803 16.8384 18.4404 17.8211 19.7585 17.8377C21.0766 17.8543 22.1611 16.8987 22.1762 15.7075L22.1765 15.6812C22.1915 14.4901 21.1314 13.5075 19.8133 13.4908C19.3191 13.4846 18.9215 13.115 18.9271 12.6669L18.9274 12.6406C18.9331 12.1925 19.3399 11.8329 19.8341 11.8391C20.3283 11.8453 20.7259 12.2151 20.7203 12.6632C20.7156 13.0353 21.0462 13.3412 21.4588 13.3464C21.8713 13.3516 22.2096 13.0541 22.2143 12.682C22.2293 11.4909 21.1692 10.5082 19.8511 10.4916C18.533 10.4749 17.4484 11.4306 17.4334 12.6217L17.4331 12.648C17.4181 13.8392 18.4782 14.8218 19.7963 14.8384C20.2905 14.8446 20.6881 15.2143 20.6825 15.6624L20.6821 15.6887C20.6765 16.1368 20.2697 16.4964 19.7755 16.4901Z" fill="black"/>
<path d="M10.8747 12.9133L10.8838 12.1912C10.8964 11.1918 10.0069 10.3675 8.90088 10.3535L7.33594 10.3338C6.66871 10.3254 6.1198 10.8087 6.11221 11.4111L6.07971 13.9891C6.0797 13.99 6.07959 13.9908 6.07957 13.9917L6.04176 16.991C6.03707 17.3631 6.36773 17.669 6.78028 17.6742C7.19283 17.6794 7.53109 17.3819 7.53578 17.0098L7.5651 14.6843L8.19777 14.6923L9.01727 17.2248C9.133 17.5824 9.5479 17.7882 9.94379 17.6849C10.3398 17.5814 10.5671 17.2078 10.4514 16.8503L9.70257 14.5362C10.3855 14.2541 10.8656 13.6363 10.8747 12.9133ZM9.38068 12.8945C9.37745 13.1508 9.14524 13.3564 8.86307 13.3528L8.77562 13.3517C8.77343 13.3517 8.77133 13.3517 8.76914 13.3516L7.58209 13.3367L7.60292 11.6849L8.88389 11.7011C9.16606 11.7046 9.39302 11.916 9.38978 12.1723L9.38068 12.8945Z" fill="black"/>
<path d="M12.568 17.7471L15.5561 17.7848C15.9686 17.79 16.3069 17.4925 16.3116 17.1204C16.3163 16.7483 15.9856 16.4424 15.5731 16.4372L13.332 16.409L13.3473 15.1991L15.5883 15.2274C16.0009 15.2326 16.3391 14.9351 16.3438 14.563C16.3485 14.1909 16.0178 13.8851 15.6053 13.8799L13.3643 13.8516L13.3907 11.7579L15.6317 11.7861C16.0442 11.7913 16.3825 11.4939 16.3872 11.1218C16.3919 10.7497 16.0612 10.4438 15.6487 10.4386L12.6606 10.4009C12.2481 10.3957 11.9098 10.6932 11.9051 11.0653L11.8295 17.0638C11.8248 17.436 12.1555 17.7419 12.568 17.7471Z" fill="black"/>
<path d="M27.1717 11.9316C27.5842 11.9368 27.9225 11.6393 27.9272 11.2672C27.9319 10.8951 27.6012 10.5892 27.1887 10.584L24.2006 10.5463C23.7881 10.5411 23.4498 10.8386 23.4451 11.2107L23.3695 17.2093C23.3648 17.5814 23.6955 17.8873 24.108 17.8925L27.096 17.9301C27.5086 17.9353 27.8469 17.6379 27.8516 17.2658C27.8562 16.8937 27.5256 16.5878 27.113 16.5826L24.872 16.5543L24.8873 15.3445L27.1283 15.3728C27.5408 15.378 27.8791 15.0805 27.8838 14.7084C27.8885 14.3363 27.5578 14.0304 27.1453 14.0252L24.9042 13.997L24.9306 11.9032L27.1717 11.9315L27.1717 11.9316Z" fill="black"/>
<path d="M33.7507 13.2017L33.7598 12.4796C33.7724 11.4802 32.8828 10.6559 31.7769 10.6419L30.2119 10.6222C29.5447 10.6138 28.9958 11.0971 28.9882 11.6995L28.9557 14.2775C28.9557 14.2784 28.9556 14.2792 28.9556 14.2801L28.9177 17.2794C28.913 17.6515 29.2437 17.9574 29.6563 17.9626C30.0688 17.9678 30.4071 17.6703 30.4118 17.2982L30.4411 14.9727L31.0737 14.9807L31.8932 17.5132C32.009 17.8707 32.4239 18.0766 32.8198 17.9732C33.2158 17.8698 33.4431 17.4962 33.3274 17.1387L32.5785 14.8246C33.2616 14.5425 33.7416 13.9247 33.7507 13.2017ZM32.2567 13.1828C32.2534 13.4391 32.0212 13.6448 31.739 13.6412C31.4978 13.6382 32.3535 13.649 30.4581 13.6251L30.4789 11.9733L31.7599 11.9895C32.042 11.993 32.269 12.2044 32.2658 12.4607L32.2567 13.1828Z" fill="black"/>
<path d="M37.1346 18.0568C37.4589 18.0609 37.7487 17.8757 37.8516 17.5986L40.0686 11.627C40.1996 11.2744 39.9885 10.8921 39.5973 10.773C39.2058 10.6539 38.7827 10.8434 38.6517 11.196L37.1708 15.1848L35.791 11.1599C35.669 10.8042 35.251 10.6043 34.8564 10.7133C34.4623 10.8224 34.2416 11.1992 34.3637 11.5551L36.4295 17.5806C36.5254 17.8603 36.8102 18.0528 37.1346 18.0568Z" fill="black"/>
<path d="M44.672 12.1522C45.0845 12.1574 45.4228 11.86 45.4275 11.4879C45.4322 11.1157 45.1015 10.8099 44.689 10.8047L41.7009 10.767C41.2884 10.7618 40.9501 11.0592 40.9454 11.4313L40.8698 17.4299C40.8651 17.802 41.1958 18.1079 41.6083 18.1131L44.5964 18.1508C45.0089 18.156 45.3472 17.8585 45.3519 17.4864C45.3566 17.1143 45.0259 16.8084 44.6133 16.8032L42.3723 16.775L42.3876 15.5651L44.6286 15.5934C45.0411 15.5986 45.3794 15.3011 45.3841 14.929C45.3888 14.5569 45.0581 14.2511 44.6456 14.2459L42.4046 14.2176L42.431 12.1239L44.672 12.1521L44.672 12.1522Z" fill="black"/>
<path d="M48.3096 2.91556L10.4611 2.43837C10.0485 2.43317 9.71028 2.73063 9.70559 3.10273C9.70089 3.47483 10.0316 3.78072 10.4441 3.78592L48.2927 4.26311C49.2537 4.27523 50.0268 4.99039 50.0159 5.85723L49.85 19.0151C49.8453 19.3872 50.1759 19.693 50.5885 19.6982C51.001 19.7034 51.3393 19.406 51.344 19.0339L51.5099 5.87606C51.5302 4.26619 50.0945 2.93806 48.3096 2.91556Z" fill="black"/>
<path d="M50.5658 21.495C50.1533 21.4898 49.815 21.7872 49.8103 22.1593L49.7955 23.3361C49.7846 24.2029 48.9937 24.8984 48.0326 24.8863L32.694 24.6929L32.7316 21.7131C32.7413 20.9453 32.0566 20.3119 31.2053 20.3012L19.8508 20.158C18.9995 20.1473 18.2991 20.7632 18.2894 21.531L18.2518 24.5108L3.5108 24.3249C2.54974 24.3128 1.77666 23.5977 1.78759 22.7308L2.00796 5.25194C2.01889 4.38511 2.80975 3.68966 3.77081 3.70178L6.95806 3.74196C7.3706 3.74716 7.70887 3.44971 7.71356 3.0776C7.71825 2.7055 7.38759 2.39961 6.97504 2.39441L3.7878 2.35423C2.00294 2.33172 0.534237 3.62323 0.51394 5.23311L0.293569 22.712C0.273272 24.3219 1.70895 25.65 3.49381 25.6725L18.2348 25.8583L18.2112 27.7297C18.2015 28.4976 18.8862 29.1309 19.7375 29.1417L23.1737 29.185L23.0439 39.4806L18.5619 39.4241C17.1889 39.4068 16.0591 40.4002 16.0435 41.6386C16.0279 42.877 17.1322 43.8986 18.5052 43.9159L31.9514 44.0855C33.3244 44.1028 34.4542 43.1093 34.4698 41.8709C34.4854 40.6325 33.3811 39.6109 32.0081 39.5936L27.526 39.5371L27.6558 29.2415L31.0921 29.2848C31.9434 29.2955 32.6438 28.6796 32.6534 27.9118L32.677 26.0404L48.0157 26.2338C49.8005 26.2563 51.2692 24.9648 51.2895 23.3549L51.3044 22.1782C51.309 21.8061 50.9784 21.5002 50.5658 21.495ZM31.9911 40.9412C32.5403 40.9481 32.982 41.3567 32.9758 41.8521C32.9695 42.3475 32.5176 42.7448 31.9684 42.7379L18.5222 42.5684C17.973 42.5615 17.5313 42.1528 17.5375 41.6575C17.5438 41.1621 17.9957 40.7647 18.5449 40.7717L31.9911 40.9412ZM24.538 39.4995L24.6678 29.2038L26.1618 29.2227L26.032 39.5183L24.538 39.4995ZM31.1915 25.3478L31.1594 27.893C31.1591 27.9178 31.1365 27.9376 31.1091 27.9373C19.0112 27.7847 19.7044 27.8187 19.7052 27.7486L19.7373 25.2034L19.7834 21.5498C19.7837 21.525 19.8063 21.5052 19.8338 21.5055L31.1883 21.6487C31.2158 21.6491 31.2379 21.6695 31.2376 21.6943L31.1915 25.3478Z" fill="black"/>
</g>
<defs>
<clipPath id="clip0">
<rect width="51" height="46" fill="white" transform="translate(0.579926) rotate(0.722337)"/>
</clipPath>
</defs>
</svg>
