<svg xmlns="http://www.w3.org/2000/svg" width="58" height="54" fill="none" viewBox="0 0 58 54"><g clip-path="url(#clip0)"><path fill="#BFBFBF" d="M26.7478 28.3752L29.6983 28.8491L27.0806 45.149L24.1301 44.6752L26.7478 28.3752Z"/><path fill="#F47C7C" d="M50.4946 32.2175L6.53254 25.1574C5.17463 24.9393 4.23326 23.7696 4.42995 22.5449L7.20169 5.28573C7.39838 4.06095 8.65866 3.24484 10.0166 3.46291L53.9787 10.523C55.3366 10.7411 56.2779 11.9108 56.0812 13.1356L53.3095 30.3947C53.1128 31.6195 51.8525 32.4356 50.4946 32.2175Z"/><path fill="#838383" d="M31.9946 47.5305L18.7175 45.3982C17.7669 45.2456 17.108 44.4268 17.2457 43.5695C17.3833 42.7121 18.2655 42.1408 19.2161 42.2935L32.4932 44.4257C33.4438 44.5784 34.1027 45.3972 33.965 46.2545C33.8273 47.1119 32.9451 47.6831 31.9946 47.5305Z"/><path fill="#EE6161" d="M53.9786 10.523L50.3642 9.94257C51.7221 10.1606 52.6635 11.3303 52.4668 12.5551L49.6951 29.8142C49.4984 31.039 48.2381 31.8551 46.8802 31.637L50.4946 32.2175C51.8525 32.4356 53.1128 31.6195 53.3095 30.3947L56.0812 13.1356C56.2779 11.9108 55.3366 10.7411 53.9786 10.523Z"/><path fill="#ACACAC" d="M26.7478 28.3752L29.6983 28.8491L28.7724 34.6143L25.8219 34.1405L26.7478 28.3752Z"/><path fill="#E2E2E2" d="M33.3069 32.7632L22.0951 30.9626C21.6606 30.8928 21.3593 30.5185 21.4222 30.1266L22.4052 24.0058C22.4681 23.6139 22.8715 23.3527 23.306 23.4225L34.5178 25.2231C34.9523 25.2928 35.2535 25.6672 35.1906 26.0591L34.2076 32.1799C34.1447 32.5718 33.7414 32.8329 33.3069 32.7632Z"/><path fill="#5A5A5A" d="M32.4932 44.4258L29.1478 43.8885C30.0983 44.0411 30.7573 44.8599 30.6196 45.7173C30.4819 46.5746 29.5997 47.1459 28.6492 46.9932L31.9946 47.5305C32.9451 47.6832 33.8273 47.1119 33.965 46.2545C34.1027 45.3972 33.4438 44.5784 32.4932 44.4258Z"/><path fill="#000" d="M21.1383 18.7355C20.6503 18.6571 20.311 18.2333 20.3821 17.7908C20.4411 17.4234 20.1587 17.0725 19.7513 17.0071C19.3439 16.9416 18.9659 17.1865 18.9068 17.5539C18.718 18.7301 19.6231 19.8571 20.9247 20.0661C22.2262 20.2751 23.4387 19.4882 23.6276 18.312L23.6318 18.286C23.8207 17.1099 22.9155 15.983 21.614 15.7739C21.126 15.6956 20.7866 15.2718 20.8577 14.8293L20.8619 14.8033C20.9329 14.3609 21.3879 14.0646 21.8759 14.143C22.3639 14.2213 22.7032 14.6452 22.6321 15.0876C22.5731 15.4551 22.8556 15.806 23.2629 15.8714C23.6703 15.9368 24.0484 15.692 24.1074 15.3246C24.2963 14.1484 23.3911 13.0214 22.0896 12.8124C20.788 12.6033 19.5755 13.3903 19.3866 14.5664L19.3824 14.5924C19.1936 15.7686 20.0987 16.8955 21.4003 17.1045C21.8883 17.1829 22.2276 17.6067 22.1565 18.0491L22.1524 18.0751C22.0813 18.5176 21.6264 18.8139 21.1383 18.7355Z"/><path fill="#000" d="M12.8557 13.8966L12.9702 13.1836C13.1287 12.1968 12.3691 11.2513 11.2771 11.0759L9.73179 10.8278C9.07295 10.7219 8.45932 11.1199 8.36379 11.7147L7.95499 14.2603C7.95484 14.2612 7.95462 14.2619 7.95447 14.2628L7.47886 17.2244C7.41985 17.5918 7.70227 17.9428 8.10963 18.0082C8.517 18.0736 8.89509 17.8288 8.9541 17.4613L9.32287 15.1651L9.94758 15.2654L10.3883 17.8905C10.4505 18.2611 10.8309 18.5254 11.2376 18.4809C11.6445 18.4364 11.924 18.1001 11.8617 17.7295L11.459 15.3309C12.1759 15.1515 12.7411 14.6105 12.8557 13.8966ZM11.3805 13.6597C11.3398 13.9128 11.0801 14.0822 10.8014 14.0375L10.7151 14.0236C10.7129 14.0233 10.7109 14.0229 10.7087 14.0226L9.53657 13.8344L9.7985 12.2034L11.0634 12.4065C11.342 12.4513 11.5356 12.6936 11.495 12.9466L11.3805 13.6597Z"/><path fill="#000" d="M13.8246 18.9259L16.7751 19.3997C17.1825 19.4651 17.5606 19.2203 17.6196 18.8529C17.6786 18.4855 17.3962 18.1345 16.9888 18.0691L14.7759 17.7137L14.9678 16.5191L17.1806 16.8745C17.588 16.9399 17.9661 16.6951 18.0251 16.3277C18.0841 15.9602 17.8017 15.6093 17.3943 15.5439L15.1815 15.1885L15.5135 13.1211L17.7263 13.4765C18.1337 13.5419 18.5118 13.2971 18.5708 12.9296C18.6298 12.5622 18.3474 12.2113 17.94 12.1459L14.9896 11.672C14.5822 11.6066 14.2041 11.8515 14.1451 12.2189L13.1939 18.142C13.1348 18.5096 13.4173 18.8605 13.8246 18.9259Z"/><path fill="#000" d="M29.1212 15.3064C29.5286 15.3719 29.9067 15.127 29.9657 14.7596C30.0247 14.3922 29.7422 14.0413 29.3349 13.9758L26.3844 13.502C25.977 13.4366 25.599 13.6814 25.5399 14.0488L24.5887 19.972C24.5297 20.3394 24.8121 20.6903 25.2195 20.7558L28.17 21.2296C28.5773 21.295 28.9554 21.0502 29.0144 20.6827C29.0734 20.3153 28.791 19.9644 28.3837 19.899L26.1708 19.5436L26.3626 18.349L28.5755 18.7044C28.9829 18.7698 29.361 18.5249 29.42 18.1575C29.479 17.7901 29.1966 17.4392 28.7892 17.3738L26.5763 17.0184L26.9084 14.951L29.1212 15.3064L29.1212 15.3064Z"/><path fill="#000" d="M35.4441 17.5241L35.5586 16.8111C35.717 15.8243 34.9575 14.8789 33.8654 14.7035L32.3201 14.4553C31.6613 14.3495 31.0477 14.7474 30.9521 15.3423L30.5433 17.8878C30.5432 17.8887 30.543 17.8895 30.5428 17.8904L30.0672 20.852C30.0082 21.2194 30.2906 21.5703 30.698 21.6357C31.1054 21.7012 31.4834 21.4563 31.5425 21.0889L31.9112 18.7926L32.5359 18.8929L32.9766 21.518C33.0389 21.8886 33.4193 22.1529 33.826 22.1085C34.2328 22.064 34.5123 21.7276 34.4501 21.3571L34.0474 18.9584C34.7643 18.7791 35.3294 18.2381 35.4441 17.5241ZM33.9688 17.2872C33.9282 17.5403 33.6684 17.7098 33.3898 17.6651C33.1516 17.6268 33.9965 17.7625 32.1249 17.4619L32.3869 15.831L33.6517 16.0341C33.9303 16.0788 34.124 16.3211 34.0833 16.5742L33.9688 17.2872Z"/><path fill="#000" d="M38.0824 22.8216C38.4026 22.873 38.7163 22.7321 38.8586 22.4729L41.9243 16.8894C42.1054 16.5597 41.9524 16.1506 41.5827 15.9757C41.2129 15.8007 40.7667 15.9263 40.5856 16.256L38.5378 19.9856L37.7608 15.8023C37.692 15.4326 37.3078 15.1738 36.9015 15.2239C36.4956 15.2743 36.2223 15.6149 36.2911 15.9847L37.4543 22.2474C37.5083 22.5381 37.762 22.7701 38.0824 22.8216Z"/><path fill="#000" d="M46.4015 18.0815C46.8089 18.1469 47.187 17.9021 47.246 17.5347C47.305 17.1673 47.0226 16.8163 46.6152 16.7509L43.6647 16.2771C43.2574 16.2117 42.8793 16.4565 42.8203 16.8239L41.869 22.7471C41.81 23.1145 42.0924 23.4654 42.4998 23.5308L45.4503 24.0047C45.8576 24.0701 46.2357 23.8253 46.2947 23.4578C46.3538 23.0904 46.0713 22.7395 45.664 22.6741L43.4511 22.3187L43.643 21.1241L45.8558 21.4795C46.2632 21.5449 46.6413 21.3 46.7003 20.9326C46.7593 20.5652 46.4769 20.2143 46.0695 20.1488L43.8567 19.7935L44.1887 17.7261L46.4015 18.0814L46.4015 18.0815Z"/><path fill="#000" d="M52.521 21.6405L52.5901 21.2103C52.8922 19.329 51.4411 17.526 49.3553 17.191C48.8381 17.1079 48.3563 17.4199 48.2814 17.8865L47.3882 23.4481C47.3133 23.9146 47.6732 24.3618 48.1904 24.4448C50.2762 24.7798 52.2189 23.5218 52.521 21.6405ZM49.6697 18.6648C50.6487 19.0466 51.2724 19.9926 51.1148 20.9734L51.0458 21.4036C50.8883 22.3844 49.9997 23.0875 48.9504 23.1436L49.6697 18.6648Z"/><path fill="#000" d="M54.0855 9.85771L16.7128 3.85582C16.3054 3.7904 15.9274 4.03524 15.8683 4.40267C15.8093 4.77009 16.0918 5.12101 16.4991 5.18643L53.8718 11.1883C54.8208 11.3407 55.4811 12.1612 55.3436 13.0171L53.2571 26.0095C53.1981 26.3769 53.4805 26.7278 53.8879 26.7932C54.2952 26.8587 54.6733 26.6138 54.7323 26.2464L56.8189 13.254C57.0741 11.6644 55.8479 10.1407 54.0855 9.85771Z"/><path fill="#000" d="M53.603 28.5674C53.1956 28.502 52.8175 28.7468 52.7585 29.1143L52.5719 30.2762C52.4344 31.1322 51.5504 31.7046 50.6015 31.5522L35.4557 29.1199L35.9282 26.1775C36.05 25.4194 35.4652 24.6928 34.6246 24.5578L23.4128 22.7572C22.5722 22.6222 21.7893 23.1292 21.6676 23.8873L21.1951 26.8297L6.63938 24.4921C5.69041 24.3397 5.03011 23.5193 5.16757 22.6633L7.93931 5.4042C8.07677 4.54826 8.96075 3.97583 9.90972 4.12823L13.0569 4.63365C13.4643 4.69907 13.8424 4.45423 13.9014 4.0868C13.9604 3.71938 13.6779 3.36846 13.2706 3.30304L10.1234 2.79762C8.36099 2.51458 6.71936 3.57765 6.46407 5.16728L3.69233 22.4264C3.43705 24.016 4.66327 25.5397 6.42569 25.8227L20.9814 28.1603L20.6846 30.0081C20.5629 30.7663 21.1476 31.4929 21.9882 31.6279L25.3813 32.1728L23.7486 42.339L19.3229 41.6283C17.9672 41.4105 16.7044 42.2282 16.508 43.4511C16.3116 44.6739 17.2549 45.8459 18.6106 46.0636L31.8877 48.1959C33.2435 48.4136 34.5062 47.5959 34.7026 46.373C34.899 45.1502 33.9558 43.9782 32.6 43.7605L28.1743 43.0498L29.807 32.8836L33.2 33.4285C34.0406 33.5635 34.8235 33.0565 34.9452 32.2983L35.242 30.4505L50.3878 32.8828C52.1502 33.1658 53.7918 32.1028 54.0471 30.5131L54.2337 29.3512C54.2927 28.9838 54.0103 28.6328 53.603 28.5674ZM32.3864 45.0911C32.9287 45.1782 33.3059 45.647 33.2274 46.1361C33.1488 46.6253 32.6437 46.9523 32.1014 46.8653L18.8243 44.733C18.282 44.6459 17.9047 44.1771 17.9833 43.688C18.0618 43.1989 18.5669 42.8718 19.1092 42.9589L32.3864 45.0911ZM25.2239 42.5759L26.8565 32.4097L28.3317 32.6467L26.6991 42.8128L25.2239 42.5759ZM33.8736 29.5483L33.47 32.0614C33.4661 32.0859 33.4409 32.1022 33.4137 32.0979C21.4679 30.1794 22.1487 30.3143 22.1599 30.2451L22.5635 27.7319L23.1428 24.1243C23.1468 24.0998 23.172 24.0834 23.1991 24.0878L34.4109 25.8884C34.4381 25.8927 34.4569 25.9161 34.453 25.9406L33.8736 29.5483Z"/></g><defs><clipPath id="clip0"><rect width="51" height="46" fill="#fff" transform="translate(7.29391) rotate(9.12354)"/></clipPath></defs></svg>