<svg width="46" height="27" viewBox="0 0 46 27" fill="none" xmlns="http://www.w3.org/2000/svg">
<path d="M41.7219 16.0505H4.13299C2.89252 16.0505 1.8869 16.9556 1.8869 18.072V18.9797C1.8869 20.0961 2.89252 21.0011 4.13299 21.0011H41.7219C42.9624 21.0011 43.968 20.0961 43.968 18.9797V18.072C43.968 16.9556 42.9624 16.0505 41.7219 16.0505Z" fill="#AB5034"/>
<path d="M1.8869 18.072V18.9797C1.8869 18.9935 1.8878 19.0071 1.88807 19.0209H37.375C39.0301 19.0209 40.3719 17.9126 40.3719 16.5456C40.3719 16.3761 40.3511 16.2106 40.3118 16.0505H4.13299C2.89252 16.0505 1.8869 16.9556 1.8869 18.072Z" fill="#BD7155"/>
<path d="M35.2755 11.1181H10.731C7.18331 11.1181 3.80179 12.3599 1.42534 14.5356L1.41555 14.5446C0.979 14.9443 1.05878 15.5685 1.58688 15.8839L1.59874 15.8911C1.98965 16.1277 2.52718 16.3094 3.13156 16.3893C3.73566 16.4698 4.3961 16.4499 5.01297 16.3114C5.58644 16.186 6.08076 16.148 6.48793 16.2377C6.89555 16.327 7.19472 16.5464 7.43613 16.8775C7.56596 17.0582 7.73172 17.2224 7.92991 17.3747C7.95363 17.3934 7.9822 17.413 8.00331 17.4305L8.06387 17.4816C8.10466 17.5152 8.14617 17.5476 8.18848 17.579C8.27302 17.6416 8.36053 17.7006 8.45055 17.7536C8.81056 17.9683 9.21036 18.1066 9.62059 18.1674C10.4416 18.2871 11.3019 18.0892 11.984 17.5555C12.3002 17.3084 12.693 17.1958 13.095 17.2351C13.4969 17.2749 13.861 17.4629 14.1239 17.7666C14.6914 18.424 15.4927 18.7887 16.3128 18.8391C17.1331 18.8899 17.9699 18.6256 18.6118 18.0444C18.9091 17.7755 19.2933 17.6346 19.6968 17.6466C20.1002 17.6584 20.4758 17.8214 20.757 18.1078C21.3645 18.7262 22.1835 19.0393 23.0034 19.0391C23.8233 19.0393 24.6422 18.7262 25.2496 18.1079C25.5309 17.8214 25.9064 17.6584 26.3099 17.6467C26.7133 17.6347 27.0975 17.7756 27.3947 18.0444C28.0367 18.6257 28.8735 18.89 29.6938 18.8392C30.5139 18.7888 31.3152 18.424 31.8826 17.7667C32.1456 17.463 32.5097 17.275 32.9116 17.2352C33.3135 17.1959 33.7063 17.3085 34.0224 17.5555C34.7048 18.0893 35.565 18.2871 36.3861 18.1674C36.7963 18.1066 37.1961 17.9683 37.5561 17.7536C37.6462 17.7006 37.7337 17.6416 37.8182 17.579C37.8605 17.5476 37.902 17.5151 37.9428 17.4816L38.0034 17.4305C38.0244 17.413 38.0531 17.3934 38.0767 17.3747C38.2748 17.2225 38.4406 17.0582 38.5704 16.8776C38.8119 16.5464 39.111 16.327 39.5187 16.2377C39.9258 16.1481 40.4202 16.186 40.9934 16.3114C41.6104 16.4499 42.2708 16.4698 42.875 16.3893C43.4794 16.3093 44.0169 16.1277 44.4079 15.8911C44.9422 15.5717 45.023 14.9401 44.5812 14.5357C42.2047 12.3599 38.8232 11.1181 35.2755 11.1181Z" fill="#7C9554"/>
<path d="M41.7219 10.2104H4.13299C2.89252 10.2104 1.8869 11.1155 1.8869 12.2319V13.1396C1.8869 14.256 2.89252 15.161 4.13299 15.161H41.7219C42.9624 15.161 43.968 14.256 43.968 13.1396V12.2319C43.968 11.1155 42.9624 10.2104 41.7219 10.2104Z" fill="#AB5034"/>
<path d="M1.8869 12.2319V13.1396C1.8869 13.1534 1.8878 13.1671 1.88807 13.1808H37.375C39.0301 13.1808 40.3719 12.0726 40.3719 10.7055C40.3719 10.536 40.3511 10.3705 40.3118 10.2104H4.13299C2.89252 10.2104 1.8869 11.1155 1.8869 12.2319Z" fill="#CE9276"/>
<path d="M1.39401 9.61899C1.52877 9.66387 0.213016 9.31617 22.169 15.0596C22.686 15.1948 23.3142 15.1948 23.8311 15.0596C45.5543 9.37706 44.5553 9.6523 44.7889 9.54888C45.6054 9.1889 45.4906 8.52618 44.4426 8.25207L26.3139 3.50984C24.2523 2.9706 21.7477 2.9706 19.6861 3.50984L1.55752 8.25215C0.445081 8.54316 0.375812 9.27752 1.39401 9.61899Z" fill="#EBD37A"/>
<path d="M45.2084 8.66348C45.0238 8.4391 44.6929 8.35549 44.395 8.43352C42.9419 8.81429 40.8549 9.35976 37.882 10.1367C34.4632 11.0303 29.8363 12.2397 23.5681 13.8794C23.22 13.9703 22.7522 13.9703 22.4044 13.8794C15.5277 12.0806 10.6316 10.8001 7.14427 9.88809C4.65112 9.23605 2.86872 8.76989 1.59779 8.43732C1.28918 8.35654 0.945261 8.45131 0.768809 8.693C0.533419 9.01554 0.737723 9.39881 1.39394 9.61891C1.5287 9.66379 0.212949 9.3161 22.169 15.0595C22.6859 15.1947 23.3141 15.1947 23.8311 15.0595C45.5543 9.37707 44.5552 9.65223 44.7889 9.54881C45.3136 9.31755 45.4535 8.96137 45.2084 8.66348Z" fill="#D9B43A"/>
<path d="M35.2755 3.19727H10.731C7.18331 3.19727 3.80179 4.4391 1.42534 6.61477L1.41555 6.62375C0.979 7.02343 1.05878 7.64766 1.58688 7.9631L1.59874 7.97021C1.98965 8.20689 2.52718 8.38858 3.13156 8.46846C3.73566 8.54892 4.3961 8.52903 5.01297 8.3906C5.58644 8.26519 6.08076 8.22718 6.48793 8.31685C6.89555 8.4062 7.19472 8.62557 7.43613 8.95669C7.56596 9.13733 7.73172 9.30156 7.92991 9.45381C7.95363 9.47257 7.9822 9.49214 8.00331 9.50969L8.06387 9.56079C8.10466 9.59435 8.14617 9.62677 8.18848 9.65814C8.27302 9.72081 8.36053 9.77976 8.45055 9.83272C8.81056 10.0475 9.21036 10.1857 9.62059 10.2466C10.4416 10.3662 11.3019 10.1684 11.984 9.63461C12.3002 9.38759 12.693 9.27495 13.095 9.31425C13.4969 9.35403 13.861 9.54211 14.1239 9.84574C14.6914 10.5031 15.4927 10.8679 16.3128 10.9182C17.1331 10.969 17.9699 10.7048 18.6118 10.1236C18.9091 9.85463 19.2933 9.71377 19.6968 9.72574C20.1002 9.73755 20.4758 9.90056 20.757 10.187C21.3645 10.8054 22.1835 11.1185 23.0034 11.1183C23.8233 11.1185 24.6422 10.8054 25.2496 10.187C25.5309 9.90056 25.9064 9.73755 26.3099 9.72574C26.7133 9.71377 27.0975 9.85463 27.3947 10.1235C28.0367 10.7048 28.8735 10.969 29.6938 10.9182C30.5139 10.8679 31.3152 10.5031 31.8826 9.84582C32.1456 9.54211 32.5097 9.35403 32.9116 9.31425C33.3135 9.27495 33.7063 9.38759 34.0224 9.63453C34.7048 10.1684 35.565 10.3662 36.3861 10.2465C36.7963 10.1857 37.1961 10.0474 37.5561 9.83264C37.6462 9.77967 37.7337 9.72073 37.8182 9.65806C37.8605 9.62669 37.902 9.59418 37.9428 9.56071L38.0034 9.50961C38.0244 9.49206 38.0531 9.47249 38.0767 9.45373C38.2748 9.30155 38.4406 9.13725 38.5704 8.95669C38.8119 8.62549 39.111 8.40612 39.5187 8.31677C39.9258 8.22718 40.4202 8.2651 40.9934 8.39052C41.6104 8.52895 42.2708 8.54884 42.875 8.46838C43.4794 8.38841 44.0169 8.20681 44.4079 7.97013C44.9422 7.65082 45.023 7.01923 44.5812 6.61477C42.2047 4.4391 38.8232 3.19727 35.2755 3.19727Z" fill="#7C9554"/>
<path d="M41.8672 0.606445H23.0001L21.2032 3.84081L23.0001 5.45799H41.8672C42.3634 5.45799 42.7656 5.09599 42.7656 4.6494V1.41504C42.7656 0.968452 42.3634 0.606445 41.8672 0.606445Z" fill="#AD712C"/>
<path d="M4.13298 0.606445C3.63677 0.606445 3.23454 0.968452 3.23454 1.41504V4.6494C3.23454 5.09599 3.63677 5.45799 4.13298 5.45799H23.0001V0.606445H4.13298Z" fill="#D5A150"/>
<path d="M41.8672 21.001H23.0001L21.2032 24.2354L23.0001 25.8526H41.8672C42.3634 25.8526 42.7656 25.4906 42.7656 25.044V21.8096C42.7656 21.363 42.3634 21.001 41.8672 21.001Z" fill="#AD712C"/>
<path d="M4.13298 21.001C3.63677 21.001 3.23454 21.363 3.23454 21.8096V25.044C3.23454 25.4906 3.63677 25.8526 4.13298 25.8526H23.0001V21.001H4.13298Z" fill="#D5A150"/>
<path d="M45.809 8.37562C45.6846 8.19992 45.5137 8.05987 45.3159 7.9617C45.4317 7.78357 45.5059 7.58579 45.5302 7.37831C45.5812 6.94264 45.4082 6.5094 45.0553 6.1896C44.617 5.79234 43.8463 5.32061 43.3552 5.03614C43.395 4.91154 43.4166 4.782 43.4166 4.64939V1.41503C43.4166 0.634824 42.7041 0 41.8283 0H3.71098C2.83528 0 2.12273 0.634824 2.12273 1.41503V4.64939C2.12273 4.96305 2.23656 5.26077 2.45164 5.51022C2.75522 5.86236 3.21414 6.06443 3.71098 6.06443H41.8284C42.0435 6.06443 42.2513 6.02642 42.4426 5.95495C42.9149 6.22243 43.7089 6.69941 44.0845 7.03983C44.1717 7.11883 44.1826 7.19904 44.1763 7.25241C44.1666 7.33488 44.1106 7.41025 44.015 7.46685C43.4404 7.81139 42.2865 8.06326 41.1066 7.8012C40.0743 7.57754 38.7798 7.46895 37.9265 8.62734C37.7961 8.80692 37.6479 8.92215 37.5171 9.02379C37.4731 9.05791 37.4332 9.0892 37.405 9.11281C36.5187 9.83424 35.2341 9.86125 34.3503 9.17653C33.8947 8.82407 33.3216 8.65855 32.7355 8.70868C32.1344 8.76083 31.591 9.0322 31.2049 9.47361C30.7645 9.97857 30.1479 10.277 29.4689 10.3139C28.8069 10.35 28.1762 10.1303 27.6914 9.69573C27.2586 9.30801 26.6907 9.1036 26.0974 9.1188C25.4985 9.13456 24.9425 9.37124 24.5319 9.78516C24.0672 10.2536 23.4425 10.5115 22.7729 10.5115C22.1032 10.5114 21.4784 10.2535 21.0136 9.78499C20.603 9.37116 20.0468 9.13448 19.4479 9.1188C18.8517 9.10206 18.287 9.30801 17.8538 9.69597C17.3693 10.1303 16.7381 10.3489 16.0769 10.314C15.3978 10.2771 14.7811 9.97865 14.3401 9.47296C13.9547 9.03212 13.4121 8.76067 12.8124 8.70868C12.2253 8.65814 11.6512 8.82399 11.195 9.17685C10.344 9.83618 9.12881 9.8416 8.24088 9.19044C7.88753 8.93048 7.69931 8.71588 7.53328 8.5265C7.25602 8.21035 6.96933 7.88351 6.25148 7.7277C5.60425 7.5866 5.07525 7.68492 4.56395 7.77993C4.06622 7.87236 3.55178 7.96777 2.79826 7.86856C2.3123 7.80492 1.85041 7.65856 1.52698 7.46483C1.42896 7.40685 1.37218 7.334 1.36274 7.25403C1.35421 7.18125 1.38565 7.1084 1.45124 7.04889C1.71484 6.81003 1.71106 6.42611 1.44288 6.19138C1.17488 5.95664 0.743901 5.95972 0.48039 6.19882C0.129731 6.51659 -0.0421393 6.94725 0.00880188 7.38033C0.060372 7.81955 0.339605 8.21876 0.770944 8.47354C1.26041 8.7669 1.91007 8.97826 2.59962 9.0685C3.59212 9.19925 4.28499 9.07069 4.84166 8.96735C5.27057 8.88786 5.58044 8.83029 5.92858 8.90614C6.1876 8.96234 6.23459 9.01586 6.46046 9.2734C6.64859 9.48784 6.90617 9.7816 7.37488 10.1265C8.76467 11.1456 10.7471 11.1315 12.0879 10.0926C12.2588 9.96038 12.4693 9.8982 12.6806 9.91599C12.9047 9.93539 13.1127 10.0429 13.2657 10.2178C13.9399 10.9908 14.9344 11.4672 15.9943 11.5247C17.0534 11.5822 18.0553 11.2363 18.8192 10.5513C18.984 10.4039 19.1914 10.3246 19.4078 10.3313C19.6268 10.337 19.8349 10.4284 19.9938 10.5885C20.7101 11.3105 21.723 11.7246 22.773 11.7246C22.773 11.7246 22.773 11.7246 22.7731 11.7246C23.8228 11.7246 24.8356 11.3106 25.552 10.5887C25.7108 10.4286 25.9188 10.3372 26.1377 10.3314C26.3526 10.3233 26.5617 10.4037 26.7262 10.5511C27.4797 11.2265 28.5104 11.5808 29.5517 11.5247C30.6115 11.4671 31.6059 10.9908 32.2794 10.2186C32.4329 10.043 32.6417 9.93564 32.8672 9.91607C33.016 9.90337 33.239 9.92343 33.4574 10.0923C34.8712 11.1875 36.9178 11.1521 38.3295 10.0032C38.3536 9.9831 38.3815 9.96159 38.412 9.9379C38.5806 9.80691 38.8353 9.60888 39.067 9.28949C39.348 8.90808 39.705 8.74612 40.7811 8.97907C41.8244 9.21065 42.963 9.15826 43.9002 8.86045C44.0114 8.95983 44.1581 9.02379 44.3163 9.03745C43.9427 9.15365 43.238 9.34633 42.0497 9.65902C41.9964 9.6671 41.9448 9.68077 41.896 9.69945C40.5284 10.0585 38.552 10.5688 35.7541 11.2906C35.7252 11.2946 35.6964 11.2996 35.6677 11.3071C32.702 12.0744 28.7338 13.1012 23.4191 14.4774C23.3878 14.4856 23.3549 14.4919 23.3224 14.4988C23.2966 14.5042 23.2711 14.5099 23.2446 14.5145C23.2317 14.5168 23.2185 14.5183 23.2056 14.5204C22.921 14.5647 22.5997 14.5638 22.3165 14.5178C22.3074 14.5163 22.2981 14.5153 22.2891 14.5137C22.264 14.5093 22.2402 14.5036 22.2158 14.4985C22.1838 14.4917 22.1512 14.4855 22.1202 14.4774C22.1196 14.4773 22.1191 14.4772 22.1185 14.477L9.27471 11.1515C6.52514 10.4396 4.71004 9.96968 3.51009 9.65877C1.83622 9.22521 1.31908 9.09066 1.20453 9.05896C0.845244 8.95983 0.464218 9.13877 0.352902 9.45873C0.241676 9.77861 0.442476 10.1184 0.80167 10.2175C0.87058 10.2365 1.02915 10.2783 1.57316 10.4197C1.06671 10.8939 0.76133 11.5342 0.76133 12.2321V13.1398C0.76133 14.5888 2.08445 15.7677 3.71089 15.7677H4.20485C3.111 15.9507 2.06783 15.7099 1.53084 15.388C1.21917 15.2011 0.79592 15.2748 0.586136 15.5527C0.376261 15.8306 0.459007 16.2075 0.770944 16.3943C0.917748 16.4823 1.0765 16.5608 1.24307 16.6315C0.933021 17.052 0.76124 17.5491 0.76124 18.0722V18.9798C0.76124 18.9948 0.76169 19.0096 0.762229 19.0246L0.762588 19.0332C0.783971 19.9808 1.3808 20.81 2.24905 21.2569C2.16774 21.4268 2.12255 21.6137 2.12255 21.8099V25.0442C2.12255 25.8244 2.83501 26.4593 3.7108 26.4593H22.7695H41.8283C42.704 26.4593 43.4166 25.8244 43.4166 25.0442V21.8099C43.4166 21.5909 43.3588 21.3841 43.2586 21.1988C44.0827 20.7323 44.6311 19.9123 44.6311 18.9798V18.0722C44.6311 17.5708 44.4724 17.0909 44.1841 16.6801C44.3948 16.5979 44.5934 16.503 44.7747 16.3943C45.0866 16.2074 45.1694 15.8306 44.9595 15.5527C44.7496 15.2748 44.3267 15.2009 44.0148 15.388C43.4785 15.7095 42.4376 15.9502 41.3421 15.7677H41.6815C42.8954 15.7677 43.9707 15.1185 44.4209 14.1136C44.6399 13.6252 44.6374 13.2898 44.6328 12.6217C44.632 12.506 44.6311 12.3773 44.6311 12.2322C44.6311 11.5543 44.333 10.9219 43.84 10.4473C43.8738 10.438 43.9072 10.4289 43.9393 10.4201C45.1494 10.0864 45.3887 9.98965 45.6457 9.72944L45.6628 9.71222C46.0518 9.32442 46.1092 8.79989 45.809 8.37562ZM23.4504 4.85154V4.2451C23.4504 3.9101 23.1456 3.63866 22.7697 3.63866C22.3937 3.63866 22.0891 3.9101 22.0891 4.2451V4.85154H3.71098C3.61107 4.85154 3.55214 4.79567 3.53129 4.77149C3.49994 4.73519 3.48403 4.69403 3.48403 4.64939V1.41503C3.48403 1.30353 3.58574 1.21289 3.71089 1.21289H22.0891V1.81933C22.0891 2.15433 22.3938 2.42577 22.7697 2.42577C23.1457 2.42577 23.4504 2.15433 23.4504 1.81933V1.21289H41.8285C41.9536 1.21289 42.0553 1.30353 42.0553 1.41503V4.64939C42.0553 4.69371 42.0396 4.73462 42.0085 4.77093C41.9878 4.79518 41.9287 4.85154 41.8284 4.85154H23.4504ZM2.12282 13.1396V12.232C2.12282 11.5857 2.60815 11.0305 3.29581 10.8662C4.49522 11.1768 6.26864 11.636 8.89503 12.316L17.5409 14.5546H3.71098C2.83528 14.5546 2.12282 13.9198 2.12282 13.1396ZM41.8285 21.6075C41.9536 21.6075 42.0553 21.6981 42.0553 21.8096V25.044C42.0553 25.1555 41.9536 25.2461 41.8285 25.2461H23.4504V24.6711C23.4504 24.3361 23.1456 24.0646 22.7697 24.0646C22.3937 24.0646 22.0891 24.3361 22.0891 24.6711V25.2461H3.71098C3.58583 25.2461 3.48412 25.1555 3.48412 25.044V21.8096C3.48412 21.6981 3.58583 21.6075 3.71098 21.6075H22.0891V22.1644C22.0891 22.4994 22.3938 22.7709 22.7697 22.7709C23.1457 22.7709 23.4504 22.4994 23.4504 22.1644V21.6075H41.6817H41.8285ZM42.7345 17.0138C43.0729 17.2807 43.2698 17.6628 43.2698 18.072V18.9796C43.2698 19.7598 42.5574 20.3947 41.6816 20.3947H22.7697H3.71098C2.85306 20.3947 2.14097 19.773 2.12381 19.0105L2.12273 18.0721C2.12273 17.6543 2.32622 17.2669 2.67598 16.9998C3.35736 17.0811 4.07979 17.052 4.76062 16.9008C5.98483 16.6359 6.18976 16.872 6.56171 17.3004C6.70789 17.4686 6.87329 17.6592 7.10014 17.8325C7.60326 18.2272 8.17611 18.6238 9.14543 18.766C10.2012 18.9185 11.2739 18.6439 12.088 18.0133C12.2587 17.8812 12.4682 17.818 12.6807 17.8368C12.9048 17.8562 13.1128 17.9636 13.2658 18.1385C13.9399 18.9116 14.9345 19.3878 15.9945 19.4454C17.0519 19.5027 18.0552 19.157 18.8193 18.472C18.9841 18.3245 19.1928 18.244 19.4077 18.2521C19.6269 18.2578 19.8351 18.3492 19.9939 18.5093C20.7098 19.231 21.7227 19.6448 22.7728 19.6448C23.8231 19.6448 24.8361 19.2309 25.5521 18.5094C25.7124 18.3477 25.914 18.2589 26.1356 18.2526C26.3553 18.2451 26.5591 18.3219 26.7263 18.4718C27.4908 19.157 28.4945 19.5037 29.5519 19.4454C30.6117 19.3878 31.6061 18.9115 32.2795 18.1393C32.433 17.9637 32.6418 17.8563 32.8673 17.8368C33.0161 17.824 33.2391 17.8441 33.4575 18.013C34.7995 19.0526 36.782 19.0666 38.171 18.047C38.7143 17.6482 38.924 17.4076 39.0671 17.2103C39.3479 16.829 39.7049 16.6668 40.7812 16.8999C41.4192 17.0416 42.0926 17.0759 42.7345 17.0138ZM37.9264 16.5482C37.8685 16.6281 37.7606 16.7767 37.3055 17.1108C36.4172 17.7627 35.2023 17.7573 34.3504 17.0974C33.8948 16.745 33.3217 16.5792 32.7356 16.6296C32.1345 16.6817 31.5911 16.9531 31.2049 17.3945C30.7646 17.8994 30.1481 18.198 29.469 18.2348C28.8077 18.2704 28.1764 18.0512 27.6915 17.6166C27.257 17.2274 26.6918 17.022 26.091 17.0403C25.4944 17.0575 24.9406 17.2941 24.532 17.7061C24.0677 18.1741 23.4428 18.4319 22.7727 18.4319C22.1028 18.4319 21.4781 18.1741 21.0138 17.706C20.6032 17.2921 20.047 17.0555 19.4479 17.0398C18.8558 17.0212 18.2872 17.229 17.8539 17.6168C17.3693 18.0512 16.7391 18.2706 16.0772 18.2348C15.3979 18.1979 14.7812 17.8995 14.3402 17.3938C13.9547 16.9531 13.4123 16.6815 12.8125 16.6296C12.2255 16.5792 11.6513 16.745 11.1951 17.0977C10.6791 17.4974 10.0287 17.6646 9.36482 17.569C8.74706 17.4783 8.40799 17.2426 7.99642 16.9196C7.99372 16.9175 7.99103 16.9154 7.98833 16.9133C7.86615 16.8204 7.75546 16.6929 7.6383 16.5581C7.36383 16.2421 7.0678 15.9486 6.63502 15.7676H38.907C38.5483 15.9144 38.2126 16.1599 37.9264 16.5482ZM43.2699 12.232C43.2699 12.3798 43.2708 12.5112 43.2717 12.6291C43.2761 13.2616 43.2731 13.4046 43.157 13.6636C42.9144 14.2048 42.3354 14.5546 41.6818 14.5546H28.0017C31.0347 13.7705 33.5393 13.1244 35.529 12.6112C38.6471 11.8069 40.7518 11.2639 42.1803 10.8894C42.8203 11.0783 43.2699 11.6206 43.2699 12.232Z" fill="black"/>
</svg>
