<svg width="12" height="11" viewBox="0 0 12 11" fill="none" xmlns="http://www.w3.org/2000/svg">
<path d="M4.37815 3.91314L4.08501 3.93844L2.33729 4.08932C1.85783 4.13071 1.4112 4.17126 1.07812 4.20321C0.911376 4.2192 0.774309 4.23293 0.676254 4.24345C0.628091 4.24863 0.591167 4.25283 0.565489 4.25602C0.564346 4.2567 0.563091 4.25748 0.561727 4.25838C0.552216 4.26462 0.540809 4.27421 0.529722 4.28697C0.518644 4.29973 0.51044 4.31272 0.505194 4.32381C0.50256 4.32938 0.501083 4.33358 0.500279 4.33627C0.500325 4.33672 0.500377 4.33722 0.500439 4.33775C0.501311 4.34533 0.503382 4.35593 0.507076 4.36777C0.509704 4.37619 0.51253 4.38323 0.514986 4.38855C0.517855 4.39107 0.521516 4.39432 0.526055 4.39834C0.541098 4.41167 0.56579 4.43356 0.603309 4.46621C0.67705 4.53039 0.7799 4.61882 0.904783 4.72546C1.1543 4.93852 1.48872 5.22162 1.84762 5.52315C2.20761 5.8256 2.53508 6.10167 2.77274 6.30288C2.89147 6.4034 2.98827 6.48564 3.05565 6.54327C3.08916 6.57193 3.11637 6.59534 3.13565 6.61215C3.14495 6.62025 3.15432 6.62849 3.1622 6.6356C3.16553 6.63861 3.17225 6.6447 3.17959 6.6518C3.18234 6.65445 3.19149 6.6633 3.20225 6.67505C3.2066 6.67981 3.21993 6.69444 3.23498 6.71467C3.24198 6.7241 3.2576 6.74564 3.27365 6.77533C3.27384 6.77569 3.2741 6.77616 3.27442 6.77673C3.28295 6.79223 3.33385 6.88469 3.33385 7.01322C3.33385 7.04867 3.32979 7.07684 3.32957 7.07851C3.32845 7.08705 3.32734 7.09377 3.3268 7.09695L3.32422 7.11099L3.32208 7.12132L3.3195 7.13292L3.31299 7.16125L3.28993 7.25987L3.20622 7.61471C3.1357 7.91293 3.03845 8.32298 2.9315 8.77289C2.75455 9.51733 2.65941 9.92247 2.60928 10.1603C2.55914 10.3983 2.56491 10.4234 2.56521 10.4247L2.56522 10.4247C2.56575 10.4335 2.56627 10.4409 2.56678 10.4473C2.58465 10.4711 2.59567 10.4818 2.60082 10.4863C2.60344 10.4886 2.60634 10.4909 2.61118 10.4938C2.61164 10.4939 2.61211 10.4939 2.6126 10.494C2.62927 10.4968 2.65315 10.4991 2.68044 10.4998C2.70115 10.5003 2.71951 10.4997 2.73393 10.4987C2.75495 10.4872 2.78227 10.4722 2.81576 10.4536C2.89916 10.4074 3.01595 10.3419 3.15799 10.2617C3.44182 10.1015 3.82353 9.88429 4.23444 9.64895C4.64669 9.41284 5.02455 9.19797 5.30138 9.0419C5.43961 8.96397 5.55361 8.90017 5.63441 8.85557C5.67447 8.83345 5.70824 8.81503 5.73336 8.80167C5.74537 8.79529 5.75878 8.78826 5.77118 8.78211C5.77665 8.7794 5.78742 8.77412 5.80014 8.76857C5.80587 8.76606 5.81905 8.7604 5.83595 8.75443C5.84425 8.7515 5.85971 8.74627 5.87946 8.74123L5.87969 8.74117C5.89238 8.73794 5.94051 8.72567 6.0034 8.72567C6.06634 8.72567 6.11452 8.73796 6.12722 8.7412L6.12743 8.74126C6.14722 8.74631 6.16269 8.75155 6.17102 8.75449C6.18795 8.76047 6.20115 8.76616 6.20689 8.76867C6.21964 8.77424 6.23041 8.77954 6.23588 8.78225C6.24829 8.78841 6.2617 8.79545 6.2737 8.80184C6.29879 8.8152 6.33251 8.83364 6.37251 8.85576C6.45319 8.90037 6.56699 8.96418 6.70499 9.04212C6.98136 9.1982 7.35858 9.4131 7.77012 9.64923C8.18032 9.88459 8.56138 10.1018 8.84473 10.262C8.98653 10.3422 9.10312 10.4076 9.18637 10.4539C9.21922 10.4721 9.24613 10.4869 9.26694 10.4983C9.27734 10.499 9.29011 10.4995 9.30465 10.4994C9.32815 10.4993 9.35026 10.4978 9.36771 10.4955C9.37633 10.4944 9.38167 10.4934 9.38406 10.4929C9.39414 10.4893 9.4001 10.4864 9.40323 10.4848C9.40498 10.4839 9.40619 10.4832 9.40703 10.4826C9.40778 10.4822 9.40824 10.4818 9.40854 10.4816C9.4087 10.4815 9.41732 10.4752 9.43474 10.4498C9.43533 10.4427 9.43595 10.4341 9.43659 10.4236C9.43659 10.4235 9.43661 10.4234 9.43662 10.4232C9.43682 10.4209 9.4375 10.4132 9.43366 10.3833C9.42861 10.3439 9.41726 10.2782 9.39205 10.1586C9.34176 9.92024 9.24661 9.51492 9.07022 8.77289C8.96328 8.32297 8.86603 7.9129 8.7955 7.61465L8.71179 7.25975L8.68873 7.16107L8.68221 7.13269L8.67961 7.121L8.67745 7.11054L8.67486 7.09636C8.67432 7.09315 8.67321 7.0864 8.67209 7.07783L8.67204 7.07746C8.67152 7.07361 8.66788 7.04667 8.66788 7.01306C8.66788 6.88598 8.71759 6.7945 8.72632 6.77843C8.72663 6.77787 8.72689 6.77739 8.72709 6.77702C8.74309 6.74712 8.75871 6.7254 8.76578 6.71582C8.78093 6.69531 8.79438 6.68049 8.7988 6.67564C8.80969 6.66369 8.81896 6.65471 8.82175 6.65201C8.82919 6.6448 8.836 6.63862 8.83935 6.63559C8.84728 6.62842 8.8567 6.62014 8.86601 6.61203C8.88533 6.59518 8.91257 6.57175 8.94607 6.54308C9.01347 6.48544 9.11029 6.40319 9.22903 6.30268C9.4667 6.10151 9.79418 5.8255 10.1542 5.52314C10.5131 5.22172 10.8475 4.93869 11.097 4.72568C11.2218 4.61906 11.3247 4.53064 11.3984 4.46648C11.4358 4.43391 11.4604 4.41208 11.4754 4.39878C11.4805 4.39426 11.4845 4.39072 11.4875 4.38808C11.4895 4.38369 11.4918 4.37786 11.494 4.37082C11.4971 4.36067 11.4988 4.35114 11.4996 4.34365C11.4999 4.34019 11.5 4.33792 11.5 4.33687C11.495 4.3062 11.4631 4.2694 11.438 4.25573L4.37815 3.91314ZM4.37815 3.91314L4.49837 3.64459M4.37815 3.91314L4.49837 3.64459M4.49837 3.64459L5.2024 2.07186M4.49837 3.64459L5.2024 2.07186M5.2024 2.07186C5.39561 1.64024 5.5759 1.24144 5.71061 0.946818M5.2024 2.07186L5.71061 0.946818M5.71061 0.946818C5.77805 0.799328 5.83361 0.67895 5.87349 0.593956M5.71061 0.946818L5.87349 0.593956M5.87349 0.593956C5.8842 0.571109 5.89357 0.551298 5.90156 0.534518M5.87349 0.593956L5.90156 0.534518M5.90156 0.534518C5.90276 0.533799 5.904 0.533066 5.90528 0.53232C5.91987 0.523808 5.93574 0.516005 5.95079 0.509892C5.96631 0.503591 5.97612 0.50105 5.97886 0.500461C5.97867 0.500503 5.97857 0.500523 5.97857 0.500527C5.97857 0.500559 5.98702 0.499177 6.00408 0.500758C6.02243 0.502459 6.04391 0.506993 6.0653 0.514484C6.07825 0.519016 6.08897 0.52386 6.09728 0.528232L5.90156 0.534518ZM5.92897 0.478224C5.93225 0.471901 5.9318 0.473182 5.92853 0.479113L5.92897 0.478224ZM6.07293 0.4784L6.07338 0.479303C6.07011 0.473369 6.06966 0.472085 6.07293 0.4784Z" stroke="#FFB84F"/>
</svg>
