<svg xmlns="http://www.w3.org/2000/svg" width="96" height="78" fill="none" viewBox="0 0 96 78"><g id="path895"><mask id="path-1-outside-1" width="96" height="78" x="0" y="0" fill="#000" maskUnits="userSpaceOnUse"><rect width="96" height="78" fill="#fff"/><path d="M21.1748 74.7265C20.3201 74.3974 19.7037 73.9271 19.0576 73.1111C18.6677 72.6186 18.5553 72.2828 18.4961 71.4335C18.4289 70.4705 18.6937 69.3738 21.3379 59.6657C22.9417 53.7775 24.2539 48.9351 24.2539 48.9047C24.2539 48.8743 19.8398 45.613 14.4449 41.6573C9.05 37.7016 4.38076 34.222 4.06884 33.9249C3.34331 33.2338 2.88815 31.9612 3.0239 31.0032C3.23664 29.5018 4.68468 28.0466 6.34411 27.6664C6.75941 27.5713 12.9978 27.049 20.2071 26.5059L33.3151 25.5183L38.5953 15.2241C41.4994 9.56232 44.0207 4.75006 44.1981 4.53021C44.6748 3.93951 45.9746 3.27789 47.0556 3.0757C48.7173 2.76486 50.9364 3.44297 51.8154 4.53021C51.9932 4.75006 54.5145 9.55983 57.4183 15.2186L62.6979 25.5072L75.8058 26.4975C83.0152 27.0421 89.254 27.567 89.6699 27.6638C91.3565 28.0565 92.7419 29.4462 92.9703 30.9744C93.1202 31.9773 92.6904 33.2136 91.9441 33.9262C91.6322 34.224 86.963 37.7032 81.568 41.6576C76.1731 45.612 71.7591 48.8727 71.7591 48.9037C71.7591 48.9346 73.0713 53.7775 74.675 59.6657C77.3109 69.3432 77.5839 70.4728 77.5175 71.426C77.457 72.2942 77.3469 72.607 76.8943 73.1965C76.2627 74.0192 75.57 74.4897 74.5455 74.7918C73.6414 75.0584 71.9248 75.0657 71.1813 74.8061C70.8698 74.6973 65.5725 72.0833 59.4096 68.9972C53.2467 65.9112 48.1239 63.3862 48.0255 63.3862C47.9271 63.3862 42.7956 65.9109 36.6221 68.9967C30.4486 72.0824 25.1427 74.6964 24.8313 74.8055C24.0014 75.0964 22.0245 75.0536 21.1748 74.7265Z"/></mask><path fill="#FFC977" d="M21.1748 74.7265C20.3201 74.3974 19.7037 73.9271 19.0576 73.1111C18.6677 72.6186 18.5553 72.2828 18.4961 71.4335C18.4289 70.4705 18.6937 69.3738 21.3379 59.6657C22.9417 53.7775 24.2539 48.9351 24.2539 48.9047C24.2539 48.8743 19.8398 45.613 14.4449 41.6573C9.05 37.7016 4.38076 34.222 4.06884 33.9249C3.34331 33.2338 2.88815 31.9612 3.0239 31.0032C3.23664 29.5018 4.68468 28.0466 6.34411 27.6664C6.75941 27.5713 12.9978 27.049 20.2071 26.5059L33.3151 25.5183L38.5953 15.2241C41.4994 9.56232 44.0207 4.75006 44.1981 4.53021C44.6748 3.93951 45.9746 3.27789 47.0556 3.0757C48.7173 2.76486 50.9364 3.44297 51.8154 4.53021C51.9932 4.75006 54.5145 9.55983 57.4183 15.2186L62.6979 25.5072L75.8058 26.4975C83.0152 27.0421 89.254 27.567 89.6699 27.6638C91.3565 28.0565 92.7419 29.4462 92.9703 30.9744C93.1202 31.9773 92.6904 33.2136 91.9441 33.9262C91.6322 34.224 86.963 37.7032 81.568 41.6576C76.1731 45.612 71.7591 48.8727 71.7591 48.9037C71.7591 48.9346 73.0713 53.7775 74.675 59.6657C77.3109 69.3432 77.5839 70.4728 77.5175 71.426C77.457 72.2942 77.3469 72.607 76.8943 73.1965C76.2627 74.0192 75.57 74.4897 74.5455 74.7918C73.6414 75.0584 71.9248 75.0657 71.1813 74.8061C70.8698 74.6973 65.5725 72.0833 59.4096 68.9972C53.2467 65.9112 48.1239 63.3862 48.0255 63.3862C47.9271 63.3862 42.7956 65.9109 36.6221 68.9967C30.4486 72.0824 25.1427 74.6964 24.8313 74.8055C24.0014 75.0964 22.0245 75.0536 21.1748 74.7265Z"/><path stroke="#fff" stroke-width="6" d="M21.1748 74.7265C20.3201 74.3974 19.7037 73.9271 19.0576 73.1111C18.6677 72.6186 18.5553 72.2828 18.4961 71.4335C18.4289 70.4705 18.6937 69.3738 21.3379 59.6657C22.9417 53.7775 24.2539 48.9351 24.2539 48.9047C24.2539 48.8743 19.8398 45.613 14.4449 41.6573C9.05 37.7016 4.38076 34.222 4.06884 33.9249C3.34331 33.2338 2.88815 31.9612 3.0239 31.0032C3.23664 29.5018 4.68468 28.0466 6.34411 27.6664C6.75941 27.5713 12.9978 27.049 20.2071 26.5059L33.3151 25.5183L38.5953 15.2241C41.4994 9.56232 44.0207 4.75006 44.1981 4.53021C44.6748 3.93951 45.9746 3.27789 47.0556 3.0757C48.7173 2.76486 50.9364 3.44297 51.8154 4.53021C51.9932 4.75006 54.5145 9.55983 57.4183 15.2186L62.6979 25.5072L75.8058 26.4975C83.0152 27.0421 89.254 27.567 89.6699 27.6638C91.3565 28.0565 92.7419 29.4462 92.9703 30.9744C93.1202 31.9773 92.6904 33.2136 91.9441 33.9262C91.6322 34.224 86.963 37.7032 81.568 41.6576C76.1731 45.612 71.7591 48.8727 71.7591 48.9037C71.7591 48.9346 73.0713 53.7775 74.675 59.6657C77.3109 69.3432 77.5839 70.4728 77.5175 71.426C77.457 72.2942 77.3469 72.607 76.8943 73.1965C76.2627 74.0192 75.57 74.4897 74.5455 74.7918C73.6414 75.0584 71.9248 75.0657 71.1813 74.8061C70.8698 74.6973 65.5725 72.0833 59.4096 68.9972C53.2467 65.9112 48.1239 63.3862 48.0255 63.3862C47.9271 63.3862 42.7956 65.9109 36.6221 68.9967C30.4486 72.0824 25.1427 74.6964 24.8313 74.8055C24.0014 75.0964 22.0245 75.0536 21.1748 74.7265Z" mask="url(#path-1-outside-1)"/></g></svg>