<svg width="46" height="33" viewBox="0 0 46 33" fill="none" xmlns="http://www.w3.org/2000/svg">
<path d="M23.8265 17.2189C26.8711 17.2189 29.3393 14.3823 29.3393 10.883C29.3393 7.38385 26.8711 4.54718 23.8265 4.54718C20.7818 4.54718 18.3137 7.38385 18.3137 10.883C18.3137 14.3823 20.7818 17.2189 23.8265 17.2189Z" fill="#C95A3A"/>
<path d="M11.6994 19.0148C14.744 19.0148 17.2122 16.1781 17.2122 12.6789C17.2122 9.17974 14.744 6.34308 11.6994 6.34308C8.65475 6.34308 6.18658 9.17974 6.18658 12.6789C6.18658 16.1781 8.65475 19.0148 11.6994 19.0148Z" fill="#C95A3A"/>
<path d="M6.18642 28.0865C9.23106 28.0865 11.6992 25.2498 11.6992 21.7506C11.6992 18.2514 9.23106 15.4147 6.18642 15.4147C3.14178 15.4147 0.673613 18.2514 0.673613 21.7506C0.673613 25.2498 3.14178 28.0865 6.18642 28.0865Z" fill="#C95A3A"/>
<path d="M32.4632 26.5128C35.5078 26.5128 37.976 23.6762 37.976 20.177C37.976 16.6778 35.5078 13.8411 32.4632 13.8411C29.4185 13.8411 26.9504 16.6778 26.9504 20.177C26.9504 23.6762 29.4185 26.5128 32.4632 26.5128Z" fill="#C95A3A"/>
<path d="M29.7502 8.25352C21.0596 8.44024 14.1538 16.1667 14.1538 25.4874L38.0384 31.35H40.3801C43.4839 31.35 46 28.652 46 25.3239C46 15.7777 38.6937 8.06128 29.7502 8.25352Z" fill="#9E7325"/>
<path d="M38.8435 10.2091C38.7972 10.0088 38.733 9.81165 38.6517 9.62092C38.5667 9.43315 38.4627 9.25371 38.3439 9.08333C38.2844 8.99825 38.2219 8.91696 38.1566 8.83978C38.0897 8.76398 38.0187 8.69344 37.9462 8.6266C37.8007 8.49312 37.6458 8.37704 37.4841 8.28036C37.1533 8.09375 36.796 7.98452 36.4288 7.96797C35.6987 7.93898 35.1333 7.30122 35.0783 6.48772C35.066 6.28002 35.0341 6.07464 34.9838 5.87411C34.9313 5.67663 34.8579 5.48707 34.7688 5.30393C34.5938 4.93345 34.3335 4.61747 34.0265 4.35094C33.3981 3.83633 32.6262 3.64139 31.9048 3.84582C31.2011 4.02611 30.493 3.61756 30.2387 2.84116C30.1088 2.45181 29.9015 2.10125 29.6346 1.80646C29.3633 1.52348 29.0373 1.28257 28.6652 1.14614C28.2975 0.995694 27.909 0.956157 27.5401 0.992425C27.1691 1.03607 26.8126 1.17387 26.499 1.38779C25.8752 1.82575 25.0966 1.66107 24.6315 1.03639C24.5144 0.87508 24.382 0.726211 24.2363 0.597268C24.0903 0.473492 23.9311 0.366058 23.762 0.276336C23.6774 0.231527 23.5904 0.191041 23.5012 0.1553C23.412 0.121351 23.3205 0.0962586 23.2275 0.0735909C23.0414 0.0294151 22.8486 0.00453355 22.6529 0C22.4572 0.00463898 22.2644 0.0295206 22.0783 0.0735909C21.9853 0.0961531 21.8938 0.121351 21.8046 0.1553C21.7155 0.191147 21.6284 0.231527 21.5438 0.276336C21.3747 0.366058 21.2156 0.473387 21.0695 0.597268C20.9237 0.726211 20.7914 0.87508 20.6743 1.03639C20.2092 1.66097 19.4306 1.82565 18.8066 1.38769C18.493 1.17377 18.1367 1.03597 17.7656 0.99232C17.3967 0.956051 17.0082 0.995588 16.6406 1.14604C16.2684 1.28247 15.9425 1.52348 15.6712 1.80646C15.4042 2.10125 15.1969 2.45191 15.067 2.84127C14.8129 3.61756 14.1049 4.02611 13.4009 3.84592C12.6796 3.64149 11.9078 3.83644 11.2793 4.35105C10.9724 4.61758 10.7121 4.93366 10.537 5.30404C10.4478 5.48717 10.3745 5.67684 10.3218 5.87432C10.2715 6.07485 10.2397 6.28023 10.2274 6.48793C10.1725 7.30133 9.60708 7.93908 8.87689 7.96818C8.50965 7.98474 8.15239 8.09396 7.8216 8.28057C7.65994 8.37736 7.50508 8.49344 7.35955 8.62681C7.28701 8.69366 7.21597 8.76419 7.14912 8.83999C7.08386 8.91717 7.0213 8.99846 6.96182 9.08354C6.84304 9.25392 6.739 9.43336 6.65415 9.62113C6.57286 9.81186 6.50853 10.009 6.46238 10.2093C6.36588 10.6071 6.36159 11.0322 6.42546 11.4385C6.44168 11.5389 6.44876 11.6387 6.44727 11.7366C6.44774 11.8359 6.43981 11.9336 6.42406 12.0283C6.39245 12.2179 6.32943 12.3963 6.23927 12.5556C6.06288 12.8766 5.78729 13.1293 5.43263 13.237C5.08217 13.3516 4.75465 13.5483 4.47356 13.8152C4.33623 13.9504 4.20943 14.1024 4.09531 14.2688C4.03826 14.3519 3.98437 14.4387 3.93402 14.5286C3.88564 14.6197 3.84163 14.7145 3.80089 14.8119C3.71959 15.007 3.65563 15.2077 3.60967 15.4108C3.56622 15.615 3.54487 15.8236 3.53928 16.0296C3.53536 16.2364 3.54487 16.4399 3.58133 16.643C3.61713 16.8457 3.67102 17.0439 3.74318 17.235C3.81562 17.4246 3.84601 17.6145 3.85347 17.8118L22.5302 24.75L35.2427 14.7225C38.4844 13.9608 38.8806 11.4385 38.8806 11.4385C38.9442 11.0319 38.9399 10.6068 38.8435 10.2091Z" fill="#C4C65A"/>
<path d="M35.0838 14.8948C33.8024 16.1131 27.9053 20.1436 23 24.7553L35.8666 29.7C36.0589 29.3521 36.3268 29.1113 36.6273 28.9778C36.7787 28.9142 36.9349 28.8652 37.1017 28.8611C37.2663 28.8512 37.4342 28.8655 37.6064 28.9241C37.9512 29.0337 38.3268 29.0358 38.6928 28.9234C38.8781 28.8715 39.0524 28.7784 39.2281 28.6741C39.3981 28.5617 39.562 28.4254 39.7122 28.2672C40.0076 27.9437 40.235 27.5563 40.3584 27.1381C40.39 27.0342 40.4166 26.9298 40.4382 26.8256C40.4571 26.719 40.4697 26.6116 40.4779 26.5056C40.4858 26.3994 40.4886 26.2941 40.4861 26.1901C40.4815 26.0844 40.47 25.9788 40.4542 25.8758C40.4227 25.6724 40.4258 25.4762 40.4461 25.2833C40.4578 25.1878 40.4766 25.0954 40.5025 25.0062C40.5275 24.9165 40.5541 24.8269 40.5904 24.7432C40.6256 24.6587 40.6695 24.5792 40.7165 24.5021C40.7614 24.424 40.8129 24.3502 40.8706 24.2816C40.9893 24.1457 41.1222 24.0242 41.2789 23.9296C41.3587 23.8818 41.4367 23.828 41.5124 23.7685C41.5849 23.7078 41.6543 23.641 41.7217 23.5689C41.7889 23.4969 41.8535 23.4195 41.9153 23.3373C41.9741 23.2542 42.0277 23.1654 42.0793 23.0728C42.1299 22.9799 42.1798 22.8833 42.2214 22.7819C42.261 22.6801 42.2971 22.5746 42.3292 22.4661C42.3979 22.25 42.4299 22.0185 42.452 21.7828C42.4725 21.547 42.457 21.3111 42.4338 21.0848C42.3991 20.8581 42.3477 20.6398 42.2761 20.4364C42.1973 20.2334 42.1065 20.0444 41.996 19.8755C41.8804 19.7073 41.7518 19.5581 41.612 19.4316C41.4699 19.3077 41.349 19.1633 41.2595 19.0039C41.169 18.8447 41.091 18.6752 41.0505 18.4934C41.0069 18.3126 40.9777 18.1268 40.9867 17.9326C40.9938 17.7386 41.0227 17.5518 41.0916 17.3653C41.1601 17.1775 41.2114 16.9826 41.2454 16.7833C41.2801 16.5837 41.2891 16.3835 41.2854 16.1801C41.2801 15.9774 41.2598 15.7724 41.2185 15.5716C41.1747 15.372 41.114 15.1745 41.0367 14.9827C40.998 14.8869 40.9562 14.7937 40.9102 14.7042C40.8622 14.6156 40.8111 14.5304 40.7569 14.4486C40.6484 14.285 40.5279 14.1355 40.3973 14.0026C40.3676 13.9734 40.3374 13.9451 40.3067 13.9177C39.914 13.5672 39.4294 13.3149 38.9391 13.2435C37.6834 13.0605 36.6282 13.4266 35.0838 14.8948Z" fill="#915729"/>
<path d="M31.7961 9.94732C32.8698 9.67899 33.8523 10.5953 33.5647 11.5966L33.0038 13.5488L32.4429 15.5011C32.1553 16.5024 30.8131 16.8378 30.0271 16.1047L28.4947 14.6756L26.9623 13.2465C26.1763 12.5135 26.5359 11.2618 27.6096 10.9936L29.7029 10.4704L31.7961 9.94732Z" fill="#A7A951"/>
<path d="M31.1986 13.5347L31.7926 11.3433C31.9427 10.7895 31.7654 10.2598 31.4117 9.89999L29.8895 10.3032L27.6727 10.8903C26.5357 11.1915 26.1549 12.5965 26.9873 13.4192L28.6101 15.0234L30.1037 16.5C30.336 16.3111 30.5168 16.0497 30.6046 15.726L31.1986 13.5347Z" fill="#D1D274"/>
<path d="M16.4678 5.48809C17.012 4.77065 18.3728 4.77065 18.917 5.48809L19.9781 6.88691L21.0392 8.28573C21.5835 9.00317 20.9031 9.90001 19.8146 9.90001H17.6923H15.57C14.4815 9.90001 13.8011 9.00317 14.3454 8.28573L15.4065 6.88691L16.4678 5.48809Z" fill="#A7A951"/>
<path d="M18.2527 8.20779L17.2284 7.0461C16.9696 6.75254 16.5194 6.60435 16.0664 6.60001L15.363 7.3977L14.3387 8.55938C13.8134 9.1552 14.4701 9.90001 15.5209 9.90001H17.5696H19.4552C19.4812 9.72501 19.4284 9.541 19.2771 9.36939L18.2527 8.20779Z" fill="#D1D274"/>
<path d="M3.53846 25.4874C3.53846 16.1668 10.3867 8.44024 19.0048 8.25351C27.8739 8.06137 35.1192 15.7777 35.1192 25.3239C35.1192 28.652 37.6144 31.35 40.6923 31.35H8.96049C5.96596 31.35 3.53846 28.7252 3.53846 25.4874Z" fill="#EBD37A"/>
<path d="M26.4248 26.3185H2.38178C2.60984 29.3981 4.35785 31.7937 6.48134 31.7937H30.6257C28.4783 31.7937 26.7049 29.4101 26.4248 26.3185Z" fill="#D9B43A"/>
<path d="M41.1511 12.287C40.8861 11.9825 40.4594 11.986 40.1983 12.295C39.937 12.604 39.9401 13.1015 40.2051 13.4061C40.3489 13.5714 40.4886 13.7403 40.6259 13.911C40.5876 13.8736 40.5487 13.8373 40.5097 13.8025C40.0003 13.3495 39.3924 13.0525 38.798 12.9663C38.7835 12.9642 38.7694 12.9628 38.755 12.9608C38.9069 12.609 38.9605 12.3667 38.9666 12.3372C38.9699 12.3213 38.9728 12.3051 38.9753 12.289C39.0576 11.7501 39.0406 11.2084 38.9284 10.7317C38.873 10.484 38.7956 10.2395 38.6987 10.0048C38.6964 9.9991 38.6939 9.99344 38.6915 9.98779C38.5924 9.76192 38.4688 9.53898 38.3233 9.3237C38.2533 9.22061 38.1787 9.12056 38.1015 9.02649C38.0982 9.02229 38.0948 9.01821 38.0913 9.01423C38.0153 8.9256 37.9321 8.83854 37.8362 8.7475C37.6625 8.58313 37.4759 8.43908 37.2817 8.31913C37.2768 8.3162 37.2721 8.31337 37.2673 8.31054C36.8552 8.07074 36.4208 7.93874 35.973 7.91789C35.622 7.90354 35.3472 7.59009 35.3204 7.17942C35.3054 6.92024 35.2667 6.66085 35.2053 6.40826C35.2043 6.40418 35.2033 6.4002 35.2022 6.39611C35.1404 6.15652 35.0522 5.91462 34.9441 5.68572C34.7406 5.24163 34.438 4.83788 34.0448 4.48577C34.0398 4.48127 34.0347 4.47686 34.0296 4.47257C33.2559 3.81927 32.3108 3.58974 31.4349 3.84232C31.0765 3.93378 30.7402 3.72624 30.6147 3.3315C30.4556 2.83964 30.206 2.39785 29.8729 2.0184C29.8683 2.01317 29.8636 2.00803 29.859 2.00301C29.5018 1.61884 29.1074 1.34237 28.6866 1.18114C28.2637 1.00472 27.8052 0.939981 27.3254 0.98901C27.3216 0.989324 27.3179 0.989743 27.3142 0.990267C26.8648 1.04474 26.4216 1.21812 26.0251 1.49711C25.7185 1.7191 25.3364 1.64199 25.1016 1.31681C24.9541 1.10739 24.7904 0.920181 24.6152 0.760314C24.6116 0.756961 24.6079 0.753713 24.6042 0.750466C24.4277 0.596151 24.2342 0.461007 24.029 0.348807C23.9282 0.293806 23.8234 0.24352 23.7174 0.199625C23.7137 0.198053 23.71 0.196587 23.7062 0.19512C23.5803 0.145777 23.4602 0.113406 23.3662 0.0898341C23.1453 0.0357767 22.9172 0.00560479 22.6881 0.000157144C22.6788 -5.23812e-05 22.6695 -5.23812e-05 22.6602 0.000157144C22.4312 0.00570955 22.203 0.0358809 21.9786 0.0907764C21.8879 0.11351 21.7676 0.145986 21.6418 0.195329C21.6382 0.196796 21.6345 0.198263 21.6309 0.199729C21.5246 0.24373 21.4197 0.294016 21.3193 0.349016C21.1143 0.461007 20.9208 0.596151 20.7442 0.750466C20.7404 0.753818 20.7366 0.757171 20.7328 0.760628C20.5577 0.920495 20.394 1.10771 20.2518 1.30969C20.0118 1.6422 19.6298 1.71941 19.3157 1.49208C18.9265 1.21833 18.4833 1.04495 18.034 0.990476C18.0303 0.990057 18.0266 0.989638 18.0228 0.989219C17.5425 0.940295 17.0845 1.00504 16.6616 1.18135C16.2407 1.34258 15.8463 1.61916 15.4891 2.00342C15.4845 2.00845 15.4798 2.01359 15.4753 2.01872C15.1421 2.39817 14.8925 2.84006 14.732 3.33642C14.608 3.72677 14.2716 3.9342 13.9131 3.84263C13.0373 3.59026 12.0923 3.81969 11.3187 4.47299C11.3135 4.47739 11.3085 4.48168 11.3035 4.48619C10.9102 4.83829 10.6077 5.24205 10.4042 5.68624C10.3849 5.72825 10.3698 5.77162 10.3577 5.81541C7.91252 6.45363 5.98214 8.79391 5.58809 11.7326L4.99746 11.6416C4.40036 11.5493 3.75304 11.8331 3.26689 12.4C2.78147 12.9663 2.5388 13.7192 2.61786 14.4143L2.79926 16.0105C1.06366 17.3353 0 19.6056 0 22.0386C0 24.4006 0.978666 26.5808 2.63035 27.9325C3.36213 30.8567 5.68234 33 8.4258 33H34.1533C34.5255 33 34.8271 32.6482 34.8271 32.2143C34.8271 31.7804 34.5255 31.4286 34.1533 31.4286H8.42571C5.8401 31.4286 3.7365 28.979 3.7365 25.968C3.7365 16.4652 10.3032 8.58083 18.3747 8.39246C22.4288 8.29765 26.2577 10.0659 29.1495 13.3711C32.037 16.6712 33.6271 21.0831 33.6271 25.7939C33.6271 27.6417 34.2279 29.3288 35.2131 30.6056C35.2399 30.6476 35.2706 30.6871 35.3054 30.7233C35.3081 30.7261 35.311 30.7285 35.3138 30.7313C36.4427 32.1264 38.0417 32.9998 39.8136 32.9998C43.2248 32.9998 46 29.7672 46 25.7938C45.9999 20.6778 44.2779 15.881 41.1511 12.287ZM39.6928 15.0525C39.7139 15.0713 39.7347 15.0906 39.755 15.1104C39.8524 15.2099 39.9433 15.3226 40.0248 15.4451C40.0653 15.5061 40.1038 15.5698 40.1391 15.6346C40.1708 15.6963 40.201 15.7634 40.2315 15.8383C40.2904 15.9842 40.3374 16.1355 40.3714 16.288C40.3992 16.4249 40.4154 16.576 40.4195 16.7303C40.4227 16.9033 40.4141 17.0419 40.3919 17.1691C40.3663 17.3185 40.3276 17.4643 40.278 17.5998C40.1814 17.8611 40.1287 18.1392 40.1175 18.4418C40.1055 18.7002 40.1332 18.9596 40.2048 19.2576C40.2601 19.5001 40.3586 19.7437 40.5037 19.9981C40.6347 20.2308 40.807 20.4413 41.0157 20.6239C41.1112 20.7106 41.201 20.8142 41.2831 20.9321C41.3526 21.0396 41.4167 21.1687 41.4789 21.326C41.5261 21.4626 41.5636 21.6173 41.5907 21.7863C41.6067 21.9466 41.6199 22.1294 41.606 22.2894C41.5907 22.452 41.5686 22.6388 41.5199 22.7912C41.518 22.7969 41.5163 22.8026 41.5146 22.8084C41.4899 22.8916 41.462 22.9734 41.4317 23.0514C41.4034 23.1191 41.3643 23.1928 41.333 23.2504C41.2917 23.3244 41.2542 23.3854 41.2185 23.4366C41.1742 23.4948 41.1278 23.5499 41.081 23.6C41.0325 23.6517 40.9859 23.6963 40.9392 23.736C40.8871 23.7762 40.8334 23.8129 40.7778 23.846C40.5714 23.9701 40.3827 24.1313 40.201 24.339C40.1984 24.3421 40.1956 24.3453 40.1929 24.3484C40.1078 24.4491 40.0303 24.5589 39.9628 24.6748C39.8888 24.7963 39.8321 24.9052 39.7853 25.0164C39.7297 25.145 39.6922 25.2692 39.6599 25.3844C39.621 25.5184 39.5925 25.6588 39.5751 25.8016C39.5746 25.8064 39.574 25.8111 39.5735 25.8159C39.5418 26.1148 39.5464 26.388 39.5871 26.6493C39.5986 26.7248 39.6061 26.7956 39.6092 26.8597C39.6108 26.9311 39.6086 27.0047 39.6032 27.077C39.5971 27.1562 39.5881 27.2306 39.5765 27.2984C39.5606 27.3728 39.541 27.4487 39.5162 27.53C39.4306 27.819 39.2669 28.1018 39.0423 28.3484C38.9346 28.4609 38.8156 28.561 38.6884 28.6462C38.5624 28.7204 38.4298 28.7923 38.308 28.8262C38.3032 28.8275 38.2983 28.829 38.2935 28.8305C38.0418 28.9075 37.7828 28.9089 37.5446 28.8343C37.3173 28.7584 37.0825 28.7282 36.8267 28.7422C36.5427 28.7514 36.3008 28.8399 36.1429 28.906C36.139 28.9077 36.1351 28.9093 36.1312 28.911C36.0402 28.9514 35.9527 28.9983 35.8683 29.0507C35.4936 28.4371 35.2215 27.7334 35.0819 26.9727C35.0854 26.9708 35.0892 26.9696 35.0928 26.9676C37.2536 25.7841 38.6496 23.2235 38.6496 20.444C38.6496 18.4316 37.9325 16.5903 36.7678 15.2724C37.1307 15.0391 37.4349 14.7843 37.691 14.5257C37.9824 14.4773 38.29 14.4765 38.6313 14.5259C38.9929 14.5782 39.3696 14.7651 39.6928 15.0525ZM13.5945 5.36934C13.5995 5.3708 13.6045 5.37216 13.6095 5.37353C14.633 5.6436 15.6358 5.01597 15.9944 3.88611C16.0824 3.61394 16.2222 3.36659 16.4102 3.15057C16.6243 2.92209 16.8523 2.76107 17.0881 2.67191C17.0953 2.66919 17.1024 2.66636 17.1096 2.66332C17.3448 2.56401 17.6181 2.52619 17.9003 2.55405C18.152 2.58548 18.4005 2.68344 18.6124 2.8323C19.4881 3.46622 20.6114 3.25167 21.288 2.31446C21.3715 2.19598 21.4623 2.09122 21.5581 2.00301C21.6598 1.915 21.7719 1.83717 21.8916 1.77169C21.9511 1.73911 22.0133 1.70925 22.0765 1.68275C22.1375 1.65928 22.2075 1.64074 22.2587 1.62785C22.3936 1.59496 22.5333 1.57599 22.6743 1.57159C22.8151 1.57599 22.9548 1.59485 23.0861 1.62691C23.1665 1.64713 23.2242 1.66441 23.2719 1.68275C23.3351 1.70915 23.3973 1.73911 23.4569 1.77158C23.5766 1.83706 23.6887 1.9149 23.7902 2.0029C23.886 2.09101 23.9768 2.19577 24.0654 2.32159C24.737 3.25146 25.8601 3.46633 26.7286 2.83733C26.9477 2.68333 27.1962 2.58538 27.4479 2.55385C27.7303 2.52608 28.0034 2.5639 28.2388 2.66322C28.2459 2.66615 28.2531 2.66908 28.2603 2.67181C28.496 2.76096 28.7241 2.92198 28.9382 3.15036C29.126 3.36638 29.2658 3.61373 29.3524 3.8816C29.7128 5.01597 30.7165 5.64329 31.7387 5.37342C31.7437 5.37206 31.7487 5.3707 31.7537 5.36923C32.2421 5.22675 32.7802 5.36127 33.2318 5.73904C33.468 5.95213 33.6443 6.18334 33.7595 6.43487C33.825 6.57358 33.8757 6.71082 33.9103 6.84292C33.9452 6.98833 33.9673 7.1372 33.9762 7.29215C34.0555 8.50194 34.8935 9.44616 35.9226 9.48828C36.1727 9.49991 36.4203 9.57534 36.6583 9.71247C36.7728 9.78381 36.8834 9.86961 36.9863 9.96704C37.0429 10.0208 37.0908 10.0704 37.1326 10.1187C37.1792 10.1758 37.2242 10.2365 37.2658 10.2978C37.3544 10.4289 37.4292 10.5626 37.488 10.695C37.5457 10.8359 37.5915 10.9819 37.6266 11.138C37.6859 11.3901 37.6952 11.6796 37.6538 11.9773C37.6029 12.1675 37.206 13.4384 35.5556 14.203C34.9782 13.8135 34.3404 13.5298 33.66 13.3745L34.0509 11.6756C34.2379 10.8629 34.0449 10.022 33.5346 9.42657C33.0235 8.83037 32.3013 8.60471 31.6027 8.82241L29.8478 9.37C29.1959 6.13127 26.7188 3.82116 23.8269 3.82116C22.5073 3.82116 21.2511 4.29866 20.1887 5.20109L19.9139 4.7834C19.5477 4.22669 18.9187 3.89428 18.2313 3.89428C17.5441 3.89428 16.9151 4.22669 16.5488 4.7834L15.168 6.88242C14.2829 6.18187 13.2713 5.76618 12.2104 5.66518C12.6415 5.34461 13.1396 5.2366 13.5945 5.36934ZM21.4279 7.08513L21.0092 6.4487C21.8338 5.75821 22.8058 5.3928 23.8268 5.3928C26.1027 5.3928 28.0507 7.22038 28.5459 9.77638L27.7593 10.0218C27.7569 10.0226 27.7546 10.0236 27.7521 10.0243C25.844 8.52803 23.6974 7.53058 21.4279 7.08513ZM11.6991 7.212C12.4022 7.212 13.085 7.38695 13.7122 7.7224C11.419 8.58355 9.30779 10.0436 7.51847 12.0298L6.92389 11.9381C7.29952 9.25162 9.32028 7.212 11.6991 7.212ZM4.22004 13.5106C4.40593 13.2938 4.64186 13.1715 4.82083 13.199L6.37045 13.4379C5.55099 14.5484 4.8494 15.7515 4.27431 17.0259L3.95393 14.2074C3.9303 14.0002 4.03479 13.7268 4.22004 13.5106ZM1.34765 22.0386C1.34765 20.4007 1.96443 18.8569 3.00257 17.7977L3.04713 18.1901C3.09107 18.5766 3.23167 18.9158 3.44496 19.1752C2.79396 21.1885 2.43503 23.3334 2.39325 25.535C1.72446 24.5545 1.34765 23.3317 1.34765 22.0386ZM18.3477 6.82145C17.837 6.83339 17.3304 6.87372 16.8287 6.94025L17.6182 5.74009C17.7278 5.57362 17.9684 5.46603 18.2313 5.46603C18.4944 5.46603 18.735 5.57362 18.8445 5.74019L19.5715 6.84544C19.1662 6.82009 18.758 6.81202 18.3477 6.82145ZM29.1212 11.2237L31.951 10.3406C32.2792 10.2381 32.5012 10.4441 32.5812 10.5376C32.6609 10.6305 32.8368 10.8879 32.7492 11.2686L31.9451 14.7636C31.3968 13.8741 30.7784 13.0328 30.0927 12.2491C29.7788 11.8903 29.4545 11.549 29.1212 11.2237ZM32.9057 16.5216C32.9524 16.4027 32.9916 16.2794 33.0211 16.1514L33.31 14.8956C35.6022 15.3658 37.3022 17.7026 37.3022 20.4439C37.3022 22.4184 36.4005 24.2516 34.9681 25.2647C34.8956 22.1511 34.1836 19.1705 32.9057 16.5216ZM39.8135 31.4287C38.7314 31.4287 37.7312 31.0128 36.9244 30.3113C37.0179 30.3092 37.0992 30.3197 37.1757 30.3456C37.1793 30.3469 37.1831 30.3482 37.1869 30.3493C37.6516 30.4966 38.1503 30.4976 38.6291 30.3524C38.8891 30.2788 39.1203 30.1529 39.3125 30.0392C39.3215 30.0339 39.3304 30.0283 39.3392 30.0226C39.5585 29.878 39.7638 29.706 39.9493 29.5111C39.9524 29.5077 39.9556 29.5044 39.9587 29.5009C40.3454 29.079 40.633 28.5747 40.7883 28.0497C40.828 27.9194 40.8619 27.7868 40.8893 27.6554C40.891 27.6472 40.8925 27.639 40.894 27.6307C40.9172 27.5007 40.9346 27.3617 40.9459 27.216C40.9561 27.0787 40.9597 26.941 40.9565 26.8062C40.9563 26.8004 40.9561 26.7945 40.9558 26.7886C40.9501 26.6564 40.936 26.5164 40.9135 26.3704C40.8972 26.2663 40.8964 26.1536 40.9104 26.0162C40.9162 25.9708 40.9253 25.927 40.9373 25.8859C40.9384 25.8823 40.9393 25.8788 40.9404 25.8751C40.9565 25.8172 40.9736 25.7585 40.9896 25.7218C40.9912 25.7182 40.9928 25.7145 40.9944 25.7108C41.0088 25.6762 41.0317 25.6334 41.0644 25.5802C41.0684 25.5737 41.0723 25.5672 41.076 25.5606C41.0972 25.5238 41.1218 25.4886 41.1491 25.4559C41.2315 25.3625 41.312 25.2927 41.3938 25.2436C41.4977 25.1816 41.6004 25.111 41.6989 25.0338C41.7046 25.0294 41.7102 25.0249 41.7157 25.0202C41.8079 24.9432 41.9003 24.8557 41.9908 24.7592C42.0764 24.6677 42.1597 24.5684 42.2383 24.4641C42.2427 24.4582 42.2471 24.4522 42.2515 24.4463C42.3221 24.3466 42.3913 24.2355 42.4667 24.1002C42.524 23.9953 42.5906 23.8684 42.65 23.724C42.6519 23.7194 42.6538 23.7147 42.6557 23.71C42.7035 23.5876 42.7473 23.4599 42.7859 23.3304C42.8846 23.0178 42.9232 22.7015 42.9465 22.4543C42.9751 22.1262 42.951 21.8126 42.9267 21.5762C42.9251 21.561 42.9232 21.5458 42.921 21.5308C42.876 21.2382 42.8087 20.9637 42.7209 20.7151C42.7178 20.7064 42.7146 20.6976 42.7113 20.6891C42.6036 20.4127 42.4851 20.1776 42.3493 19.9703C42.346 19.9651 42.3426 19.96 42.3391 19.955C42.1883 19.7363 42.0193 19.542 41.837 19.3774C41.8338 19.3746 41.8306 19.3717 41.8274 19.3688C41.7436 19.296 41.6757 19.2154 41.6284 19.1316C41.5635 19.0178 41.5239 18.9264 41.5073 18.8523C41.5061 18.8473 41.505 18.8424 41.5038 18.8375C41.4725 18.7081 41.4598 18.6094 41.464 18.5183C41.4685 18.3983 41.4845 18.3071 41.5168 18.2196C41.6039 17.982 41.6701 17.732 41.7134 17.4795C41.755 17.2411 41.7726 16.9851 41.7671 16.6893C41.7601 16.4183 41.7311 16.1578 41.681 15.9147C41.6801 15.9108 41.6793 15.907 41.6785 15.9031C41.6235 15.6527 41.5469 15.4057 41.4507 15.1672C41.3992 15.0404 41.3468 14.9258 41.2907 14.8169C41.2881 14.8119 41.2854 14.8068 41.2827 14.8017C41.2627 14.7648 41.2413 14.7287 41.2201 14.6924C43.4431 17.807 44.6523 21.6885 44.6523 25.7941C44.6523 28.9011 42.4815 31.4287 39.8135 31.4287Z" fill="black"/>
<path d="M9.73077 19.8C10.2193 19.8 10.6154 19.4306 10.6154 18.975C10.6154 18.5194 10.2193 18.15 9.73077 18.15C9.24221 18.15 8.84615 18.5194 8.84615 18.975C8.84615 19.4306 9.24221 19.8 9.73077 19.8Z" fill="black"/>
<path d="M15.0385 23.1C15.527 23.1 15.9231 22.7306 15.9231 22.275C15.9231 21.8194 15.527 21.45 15.0385 21.45C14.5499 21.45 14.1538 21.8194 14.1538 22.275C14.1538 22.7306 14.5499 23.1 15.0385 23.1Z" fill="black"/>
<path d="M9.73077 16.5C10.2193 16.5 10.6154 16.1306 10.6154 15.675C10.6154 15.2194 10.2193 14.85 9.73077 14.85C9.24221 14.85 8.84615 15.2194 8.84615 15.675C8.84615 16.1306 9.24221 16.5 9.73077 16.5Z" fill="black"/>
<path d="M16.8077 13.2C17.2963 13.2 17.6923 12.8306 17.6923 12.375C17.6923 11.9194 17.2963 11.55 16.8077 11.55C16.3191 11.55 15.9231 11.9194 15.9231 12.375C15.9231 12.8306 16.3191 13.2 16.8077 13.2Z" fill="black"/>
<path d="M20.3462 19.8C20.8347 19.8 21.2308 19.4306 21.2308 18.975C21.2308 18.5194 20.8347 18.15 20.3462 18.15C19.8576 18.15 19.4615 18.5194 19.4615 18.975C19.4615 19.4306 19.8576 19.8 20.3462 19.8Z" fill="black"/>
<path d="M29.1923 21.45C29.6809 21.45 30.0769 21.0806 30.0769 20.625C30.0769 20.1694 29.6809 19.8 29.1923 19.8C28.7037 19.8 28.3077 20.1694 28.3077 20.625C28.3077 21.0806 28.7037 21.45 29.1923 21.45Z" fill="black"/>
</svg>
