<svg xmlns="http://www.w3.org/2000/svg" width="14" height="10" fill="none" viewBox="0 0 14 10"><path fill="#FFB84F" d="M2.8272 9.96202C2.69424 9.91631 2.59835 9.85099 2.49784 9.73765C2.4372 9.66926 2.41971 9.62262 2.4105 9.50465C2.40005 9.37091 2.44125 9.21859 2.85257 7.87024C3.10204 7.05244 3.30616 6.37987 3.30616 6.37565C3.30616 6.37144 2.61953 5.91847 1.78032 5.36907C0.941111 4.81966 0.214785 4.33639 0.166264 4.29513C0.053404 4.19914 -0.0173985 4.02239 0.0037175 3.88933C0.0368103 3.68081 0.262061 3.47869 0.520194 3.42589C0.584797 3.41268 1.55521 3.34014 2.67666 3.2647L4.71567 3.12754L5.53704 1.69779C5.9888 0.911433 6.38099 0.243064 6.40859 0.21253C6.48275 0.130488 6.68494 0.0385953 6.85309 0.0105132C7.11159 -0.032658 7.45678 0.0615236 7.59351 0.21253C7.62116 0.243064 8.01336 0.911087 8.46506 1.69702L9.28634 3.126L11.3254 3.26354C12.4468 3.33919 13.4173 3.41208 13.482 3.42553C13.7443 3.48007 13.9598 3.67308 13.9954 3.88533C14.0187 4.02462 13.9518 4.19634 13.8358 4.29531C13.7872 4.33667 13.0609 4.81988 12.2217 5.36911C11.3825 5.91833 10.6959 6.37121 10.6959 6.37551C10.6959 6.37981 10.9 7.05244 11.1494 7.87024C11.5595 9.21434 11.6019 9.37123 11.5916 9.50362C11.5822 9.6242 11.5651 9.66764 11.4947 9.74951C11.3964 9.86378 11.2887 9.92913 11.1293 9.97108C10.9887 10.0081 10.7216 10.0091 10.606 9.97307C10.5575 9.95796 9.7335 9.59491 8.77483 9.16629C7.81616 8.73766 7.01927 8.38697 7.00396 8.38697C6.98866 8.38697 6.19042 8.73763 5.2301 9.16621C4.26978 9.59478 3.44442 9.95784 3.39599 9.97299C3.26689 10.0134 2.95936 10.0075 2.8272 9.96202Z"/></svg>